$MeshFormat
4.1 0 8
$EndMeshFormat
$PhysicalNames
6
1 2 "Circle"
1 3 "A"
1 4 "B"
1 5 "C"
1 6 "D"
2 1 "Domain"
$EndPhysicalNames
$Entities
9 8 1 0
1 0 0 0 0 
2 1000 0 0 0 
3 1000 400 0 0 
4 0 400 0 0 
5 500 200 0 0 
6 575 200 0 0 
7 500 275 0 0 
8 425 200 0 0 
9 500 125 0 0 
1 0 0 0 1000 0 0 1 3 2 1 -2 
2 1000 0 0 1000 400 0 1 4 2 2 -3 
3 0 400 0 1000 400 0 1 5 2 3 -4 
4 0 0 0 0 400 0 1 6 2 4 -1 
5 500 200 0 575 275 0 1 2 2 6 -7 
6 425 200 0 500 275 0 1 2 2 7 -8 
7 425 125 0 500 200 0 1 2 2 8 -9 
8 500 125 0 575 200 0 1 2 2 9 -6 
1 0 0 0 1000 400 0 1 1 8 1 2 3 4 -8 -7 -6 -5 
$EndEntities
$Nodes
17 818 1 818
0 1 0 1
1
0 0 0
0 2 0 1
2
1000 0 0
0 3 0 1
3
1000 400 0
0 4 0 1
4
0 400 0
0 6 0 1
5
575 200 0
0 7 0 1
6
500 275 0
0 8 0 1
7
425 200 0
0 9 0 1
8
500 125 0
1 1 0 39
9
10
11
12
13
14
15
16
17
18
19
20
21
22
23
24
25
26
27
28
29
30
31
32
33
34
35
36
37
38
39
40
41
42
43
44
45
46
47
24.99999999998769 0 0
49.99999999996727 0 0
74.99999999995586 0 0
99.99999999996501 0 0
124.9999999999714 0 0
149.9999999999178 0 0
174.9999999998559 0 0
199.999999999794 0 0
224.9999999997321 0 0
249.9999999996702 0 0
274.9999999996682 0 0
299.9999999996773 0 0
324.9999999996865 0 0
349.9999999996956 0 0
374.9999999997048 0 0
399.9999999997139 0 0
424.9999999997231 0 0
449.9999999997322 0 0
474.9999999997414 0 0
499.9999999997617 0 0
524.9999999998263 0 0
549.9999999998354 0 0
574.9999999998445 0 0
599.9999999998537 0 0
624.9999999998628 0 0
649.9999999998719 0 0
674.9999999998811 0 0
699.9999999998903 0 0
724.9999999998994 0 0
749.9999999999085 0 0
774.9999999999177 0 0
799.9999999999268 0 0
824.9999999999359 0 0
849.9999999999451 0 0
874.9999999999542 0 0
899.9999999999634 0 0
924.9999999999725 0 0
949.9999999999817 0 0
974.9999999999908 0 0
1 2 0 15
48
49
50
51
52
53
54
55
56
57
58
59
60
61
62
1000 24.99999999989821 0
1000 49.9999999998108 0
1000 74.99999999968247 0
1000 99.99999999955274 0
1000 124.999999999423 0
1000 149.9999999993766 0
1000 174.9999999993356 0
1000 199.9999999992947 0
1000 224.9999999992538 0
1000 249.9999999992129 0
1000 274.9999999993163 0
1000 299.9999999994531 0
1000 324.9999999995898 0
1000 349.9999999997265 0
1000 374.9999999998633 0
1 3 0 39
63
64
65
66
67
68
69
70
71
72
73
74
75
76
77
78
79
80
81
82
83
84
85
86
87
88
89
90
91
92
93
94
95
96
97
98
99
100
101
975.0000000000017 400 0
950.0000000000033 400 0
925.000000000005 400 0
900.0000000000067 400 0
875.0000000000083 400 0
850.00000000001 400 0
825.0000000000117 400 0
800.0000000000133 400 0
775.000000000015 400 0
750.0000000000166 400 0
725.0000000000184 400 0
700.00000000002 400 0
675.0000000000217 400 0
650.0000000000234 400 0
625.000000000025 400 0
600.0000000000266 400 0
575.0000000000283 400 0
550.00000000003 400 0
525.0000000000316 400 0
500.0000000000222 400 0
474.9999999999683 400 0
449.9999999999701 400 0
424.9999999999717 400 0
399.9999999999735 400 0
374.999999999975 400 0
349.9999999999768 400 0
324.9999999999784 400 0
299.9999999999801 400 0
274.9999999999818 400 0
249.9999999999834 400 0
224.9999999999851 400 0
199.9999999999867 400 0
174.9999999999883 400 0
149.99999999999 400 0
124.9999999999917 400 0
99.99999999999341 400 0
74.99999999999511 400 0
49.99999999999659 400 0
24.99999999999841 400 0
1 4 0 15
102
103
104
105
106
107
108
109
110
111
112
113
114
115
116
0 375.0000000001776 0
0 350.0000000003553 0
0 325.0000000005329 0
0 300.0000000007105 0
0 275.0000000008882 0
0 250.0000000010325 0
0 225.0000000010325 0
0 200.0000000010325 0
0 175.0000000010325 0
0 150.0000000010325 0
0 125.0000000008882 0
0 100.0000000007105 0
0 75.00000000053291 0
0 50.00000000035527 0
0 25.00000000017764 0
1 5 0 4
117
118
119
120
571.3292387238274 223.1762745729171 0
560.67627454071 244.0838939734273 0
544.0838938399742 260.6762746376694 0
523.1762744904576 271.3292387506201 0
1 6 0 4
121
122
123
124
476.8237253177874 271.3292386883151 0
455.9161058907547 260.6762744420325 0
439.3237253298264 244.083893795236 0
428.6707612483145 223.1762744871787 0
1 7 0 4
125
126
127
128
428.670761306725 176.8237253330522 0
439.3237255472328 155.9161059055297 0
455.9161062091734 139.3237253266228 0
476.8237254845651 128.6707612574955 0
1 8 0 4
129
130
131
132
523.1762747595461 128.6707613368121 0
544.0838941014335 139.3237255522919 0
560.6762746950044 155.9161062389406 0
571.329238762892 176.8237255473116 0
2 1 0 686
133
134
135
136
137
138
139
140
141
142
143
144
145
146
147
148
149
150
151
152
153
154
155
156
157
158
159
160
161
162
163
164
165
166
167
168
169
170
171
172
173
174
175
176
177
178
179
180
181
182
183
184
185
186
187
188
189
190
191
192
193
194
195
196
197
198
199
200
201
202
203
204
205
206
207
208
209
210
211
212
213
214
215
216
217
218
219
220
221
222
223
224
225
226
227
228
229
230
231
232
233
234
235
236
237
238
239
240
241
242
243
244
245
246
247
248
249
250
251
252
253
254
255
256
257
258
259
260
261
262
263
264
265
266
267
268
269
270
271
272
273
274
275
276
277
278
279
280
281
282
283
284
285
286
287
288
289
290
291
292
293
294
295
296
297
298
299
300
301
302
303
304
305
306
307
308
309
310
311
312
313
314
315
316
317
318
319
320
321
322
323
324
325
326
327
328
329
330
331
332
333
334
335
336
337
338
339
340
341
342
343
344
345
346
347
348
349
350
351
352
353
354
355
356
357
358
359
360
361
362
363
364
365
366
367
368
369
370
371
372
373
374
375
376
377
378
379
380
381
382
383
384
385
386
387
388
389
390
391
392
393
394
395
396
397
398
399
400
401
402
403
404
405
406
407
408
409
410
411
412
413
414
415
416
417
418
419
420
421
422
423
424
425
426
427
428
429
430
431
432
433
434
435
436
437
438
439
440
441
442
443
444
445
446
447
448
449
450
451
452
453
454
455
456
457
458
459
460
461
462
463
464
465
466
467
468
469
470
471
472
473
474
475
476
477
478
479
480
481
482
483
484
485
486
487
488
489
490
491
492
493
494
495
496
497
498
499
500
501
502
503
504
505
506
507
508
509
510
511
512
513
514
515
516
517
518
519
520
521
522
523
524
525
526
527
528
529
530
531
532
533
534
535
536
537
538
539
540
541
542
543
544
545
546
547
548
549
550
551
552
553
554
555
556
557
558
559
560
561
562
563
564
565
566
567
568
569
570
571
572
573
574
575
576
577
578
579
580
581
582
583
584
585
586
587
588
589
590
591
592
593
594
595
596
597
598
599
600
601
602
603
604
605
606
607
608
609
610
611
612
613
614
615
616
617
618
619
620
621
622
623
624
625
626
627
628
629
630
631
632
633
634
635
636
637
638
639
640
641
642
643
644
645
646
647
648
649
650
651
652
653
654
655
656
657
658
659
660
661
662
663
664
665
666
667
668
669
670
671
672
673
674
675
676
677
678
679
680
681
682
683
684
685
686
687
688
689
690
691
692
693
694
695
696
697
698
699
700
701
702
703
704
705
706
707
708
709
710
711
712
713
714
715
716
717
718
719
720
721
722
723
724
725
726
727
728
729
730
731
732
733
734
735
736
737
738
739
740
741
742
743
744
745
746
747
748
749
750
751
752
753
754
755
756
757
758
759
760
761
762
763
764
765
766
767
768
769
770
771
772
773
774
775
776
777
778
779
780
781
782
783
784
785
786
787
788
789
790
791
792
793
794
795
796
797
798
799
800
801
802
803
804
805
806
807
808
809
810
811
812
813
814
815
816
817
818
211.689659902021 19.24711079095248 0
788.8658341475373 379.6563510418952 0
762.499999999913 21.65063509461884 0
238.4358974129966 377.697804896962 0
977.2708168183967 188.3413832801089 0
20.77190084614359 213.1080146991108 0
593.2809975780737 218.4778468546297 0
406.0353931077856 186.3913214530506 0
838.1576156009507 20.27485820268608 0
164.8840423619467 378.6037948957176 0
979.8257322256683 262.5973924467231 0
21.65063509467346 137.5000000009603 0
712.2051842678221 378.5563396563213 0
287.5332775390286 21.36245289559191 0
685.8633945400564 23.34124060805189 0
312.7959781744364 378.2400648548037 0
137.1188847322366 20.34578965814217 0
863.1467084883807 378.0152941755252 0
584.1092861579122 157.144178397338 0
416.0802150970042 241.661482483137 0
977.7662156024199 116.8871389316702 0
20.50377561171029 285.2609659158089 0
362.0623396319064 21.37004397974164 0
636.700306050116 379.2816341318151 0
613.8292354899659 22.68103196200941 0
387.6476602757559 378.3488400788084 0
431.1822087168126 136.4505699567349 0
570.2121224098219 263.679355518506 0
912.5008546614523 21.19845007478185 0
87.49999999999426 378.3493649053905 0
546.9437854047097 117.5083585931656 0
460.0956843562445 286.343367679378 0
439.2175796717526 20.46843452811911 0
562.9923424082166 380.0256233525984 0
979.3123156096574 312.0231129408882 0
21.65045720765679 87.50223561199432 0
87.82005263513987 19.87260194203237 0
912.076809605881 378.5937074098895 0
513.3964674161463 375.8489539179413 0
487.1800413384122 21.69913153241781 0
560.1545947934293 22.0675739473994 0
437.4109505579087 379.8232690390067 0
515.0539204893851 290.0781508580707 0
486.3174526023528 107.2638870618701 0
982.9102831308178 62.90129694069076 0
19.94625154249066 337.3534161724713 0
18.69187318597346 36.99321558406014 0
977.6341872271837 362.2601799225974 0
585.7232167970077 243.5146764119247 0
608.136078866782 235.1355418757159 0
617.3930699010301 213.7752319082254 0
631.9023190154039 232.0065903908248 0
640.9369827572783 209.6957737845131 0
655.6501705294122 228.7614998149062 0
664.8089210341179 206.1948357391341 0
679.4938095571738 225.5577269677302 0
688.8123929676491 202.8109826621193 0
703.433872008115 222.5448273305759 0
712.9598249495011 199.5599133562699 0
727.712649472466 219.4630741521868 0
737.2540457378557 196.6865582778174 0
752.2129082711441 216.2092681757323 0
761.6389973131319 193.4563756365076 0
776.6536152411539 212.9956523930041 0
786.07315339434 190.1905164111686 0
801.1330073800697 209.7787304796597 0
810.5662590423491 186.9214052701284 0
673.7726214489785 183.3671899341161 0
825.6504888609712 206.5487089531473 0
835.1196986260812 183.6821110415049 0
816.1480488175195 229.4224531579624 0
746.6147884550918 173.9512057768981 0
742.41384725612 239.2911118367695 0
820.0055462971028 164.0317014656824 0
844.5955979092259 160.7843888968942 0
840.7349926151667 226.1848076214578 0
670.2267772555948 247.9714719893451 0
831.2073148712916 249.1023829630885 0
855.8490135529347 245.8482378083149 0
829.469096714897 141.122177921249 0
854.0705646936418 137.8466499108214 0
869.2099008756209 157.5403661664621 0
846.3407691586227 268.7910973210561 0
821.6666144441342 272.0346471873703 0
870.9787203685744 265.5562788103134 0
880.49052521256 242.5815677608867 0
878.7007954600141 134.573715397813 0
623.0061448218023 254.3521922614979 0
863.5447668347498 114.8667299937695 0
888.2037826696261 111.5832112126888 0
836.814410757268 291.7419579101521 0
812.1523779629906 294.9779390534825 0
893.8518448404268 154.2880654475398 0
895.6399759485176 262.3119250131163 0
886.1184169293143 285.3034722294582 0
905.1302728698456 239.3303580808745 0
873.0249299809085 91.85535168484397 0
848.3898509008973 95.18891236388653 0
804.8823036615463 144.3861431066135 0
897.7336084703535 88.70402267743688 0
827.2961870060985 314.717138986373 0
910.8073252872873 282.0605777449726 0
901.2701342644328 305.0802539429766 0
802.6941554935408 317.897090237421 0
787.5092512771762 298.1995043469687 0
777.9241956538891 320.1163656361613 0
762.8598909482691 301.2783831501515 0
753.2225345745279 323.163385138459 0
738.2604570370661 304.4678593567755 0
912.8950100197751 108.3305991914682 0
884.3337617857836 177.2683742391933 0
909.0041295256348 173.9875535881886 0
626.6351100342674 191.4654744161943 0
883.8613821912447 68.19664744950194 0
922.4461488089761 85.44443491639987 0
729.4225469185433 328.5313335046464 0
713.7590460197653 307.8859657056214 0
705.4573656367488 332.1036615262617 0
689.520465616499 311.3714823998079 0
680.9704402350264 334.712641996881 0
665.1444076849511 314.5597888808148 0
817.8430144297697 337.6642531053292 0
926.9876360009102 302.0696490335101 0
917.5100057640996 324.0757012067703 0
892.8484174949551 332.3986597672227 0
723.2248445034062 285.0825159288229 0
814.3374798231422 121.4725501051188 0
789.7517049741975 124.7317391769675 0
799.2100777857972 101.8122612297597 0
774.617168547699 105.0752389544936 0
784.0781048549527 82.14901580748074 0
759.507377042281 85.57381388161782 0
750.0328309150574 108.3661592081663 0
734.955291815292 88.89586242871505 0
725.4947343805668 111.6165377285903 0
710.4460519689842 92.09015169278877 0
701.0309853483146 114.8169476490338 0
686.0152673834815 95.36859346315299 0
676.6168637087105 118.0482671537993 0
661.6549549847039 98.6211137212573 0
652.3499309444637 121.2684022196148 0
637.4048249559039 101.8913178860209 0
646.697751082017 79.20890579022151 0
622.4407888918348 82.54784400086641 0
613.2131213424746 105.1122109815403 0
598.3078024612307 85.89100746645562 0
719.6027373752993 68.29833597363432 0
715.9990716095764 134.2001322868922 0
772.3916773749626 278.4986406755267 0
918.5298708591574 151.0233601217213 0
842.4764778023249 334.4749528267336 0
808.6688610802491 78.85392652420168 0
793.553660451284 59.26688649220418 0
743.8235490327467 347.2124029117877 0
586.857105488219 112.6336603411681 0
573.8939618934248 89.70385993292734 0
583.3565396960089 66.79455528885315 0
557.7413607054775 69.35921066653543 0
934.2012336016001 170.7667354285894 0
924.2216943488097 193.6903060841464 0
943.7675329566673 147.492790510084 0
655.7045964603996 336.8175248407197 0
640.7273593295403 317.5348029512442 0
650.046512968534 295.0398343948199 0
625.9950506799297 298.2410486423423 0
616.510126686473 320.6450650544383 0
600.6319512387309 301.6333992816222 0
593.0157270677627 323.1730518289807 0
608.353063707395 341.9644833823145 0
935.739110096761 278.8493092371891 0
576.7633927313826 303.7450477592863 0
570.0754417448248 328.0867817210694 0
427.3901041052803 262.5042617495055 0
403.0968520658757 262.2392619710214 0
392.5242599684113 240.0371827311623 0
379.3049093567728 259.9769194865553 0
368.4636634992097 239.4414679949253 0
355.331313711366 258.6768682263522 0
344.4346479995435 238.0817966791346 0
331.6783063472013 257.7688068150123 0
320.326016255299 236.8433012734196 0
304.5448744480921 257.6220899205622 0
295.5544919114235 234.8607922080811 0
309.3189840826774 215.3638644942782 0
284.8326646234096 213.6914439311035 0
271.402942827937 233.3330442847729 0
260.373981407152 212.1672734739241 0
246.9039411801097 232.0659058149369 0
235.8361219047785 210.7923446525914 0
222.3060963425376 230.6905895393716 0
211.259512167517 209.3255265359432 0
197.622861709 229.8914494461708 0
186.5292369354903 208.0277608559974 0
249.5131785769649 190.1640575097728 0
172.9110183959749 228.5956456880564 0
161.7917233556188 206.5797492716557 0
175.4661222533716 185.8756440831358 0
148.1635105224454 227.2793131878534 0
150.6674863877722 184.4511415519942 0
164.3232274617597 163.7236737568329 0
210.1334754272791 249.8668087854352 0
139.5181933781093 162.2739159520497 0
153.1921509352695 141.5237850271796 0
177.9942099491643 142.9851870910536 0
128.3725508071807 140.0513912030075 0
260.9028507202185 251.880494523862 0
159.6923726531315 249.3625532310424 0
134.5899250882593 248.0145775762536 0
146.1476679298989 270.2293327533679 0
123.4091880767706 225.8745221288002 0
298.3812954293172 193.393933960652 0
166.872717922003 120.7786401475407 0
191.6844176564899 122.2395048718587 0
114.6887630804071 160.8331748439903 0
342.1169231212552 280.4145893499416 0
120.9557535081659 268.7913086239069 0
385.6937440606005 279.0931330829434 0
132.1318992478838 291.0203099241301 0
160.5695237760938 295.0213809509583 0
107.2157785333948 289.5823931420616 0
96.01975341103741 267.3293240505267 0
322.7346348405124 194.8904286650673 0
311.8329728423237 173.1283718965816 0
103.5273354577318 138.5848192825053 0
117.2247212722197 117.78992775483 0
180.553672214681 100.0184898663265 0
205.3704172115252 101.5057409395107 0
89.84160430213163 159.3865169588621 0
336.1309012416458 174.5699806492556 0
325.2829209072461 152.7781004368323 0
301.0051017712125 151.2597707503751 0
314.4018140564345 130.9392872992408 0
338.7726132387221 132.4411980968404 0
327.9125994539477 110.6296504040979 0
303.4740429100437 109.0295855261699 0
352.2432609638547 112.1901821668164 0
216.4886991289368 123.7127027546646 0
230.1810513285002 103.1799054956462 0
317.0596005538392 88.62313743910833 0
292.5604858316802 87.024313564241 0
92.3544860246695 116.3156770215437 0
106.071173972801 95.5002363932487 0
118.3966840048641 311.8380864168965 0
93.50259691961777 310.3932625831153 0
362.7443633043479 133.7434183103662 0
376.455002188202 113.6953347593772 0
365.7159983547432 91.95760260328032 0
389.9926005772629 93.53760487458506 0
241.2845227628232 125.5703895817939 0
81.98631705293339 93.6174553778869 0
194.2427437199323 79.25728292325931 0
169.4136909103972 77.75807840961069 0
379.1453788710274 73.17760498364214 0
403.4966962453248 73.603032414822 0
346.2518746546885 196.6116109251315 0
363.6632289400311 175.9533091811589 0
227.6049341219645 145.9257803331472 0
95.78976146646593 73.62196409041927 0
69.39174338995022 69.50211540083228 0
119.9162246100594 74.76821122219974 0
101.0129884664327 181.6136205982015 0
76.15158894294643 180.199538420255 0
87.40746814231069 201.5992040939574 0
354.9401427231886 70.15098714556285 0
252.3287928571307 147.7101896433599 0
387.0071048384 133.5157231570181 0
65.59166113489906 114.4060722309672 0
306.2039335503371 66.52729911843622 0
282.5213327891947 64.8302959715259 0
104.6982538966024 332.6661391489066 0
79.79630739472591 331.2340392391542 0
129.5926855944149 334.1048124063055 0
68.59222586070499 308.9430713912678 0
182.813306995774 57.11046692883774 0
390.4879055732711 51.54158191821747 0
65.7249937725625 158.4358786544181 0
380.8833067377485 219.5303573710331 0
413.7483961962574 94.86494254267173 0
427.6358423383509 74.99898938417964 0
440.6585035772922 96.75801469861518 0
450.9153824853335 76.25682148640868 0
51.74281130080084 178.6601469038411 0
510.9742419396424 105.42043560194 0
500.0000000764327 86.2114169382605 0
486.8534425284965 293.843950887893 0
465.1335933647158 309.3669373595152 0
487.2527514923626 317.3609094079097 0
441.3622197190306 302.42922821727 0
468.1886763269085 331.9999718205468 0
667.2402398677008 140.6038735622078 0
643.6834812497486 143.3467983257779 0
962.3940691965026 21.16927152379768 0
36.47447759299616 378.5849264445172 0
539.091498560937 285.9903837214165 0
490.7830762168913 340.4618466724542 0
672.0881697885794 357.2520680138607 0
631.7506396238833 60.33140316891463 0
656.0796253147772 56.55619330050999 0
529.1415253581112 310.309949969726 0
471.4683999612744 356.5043502522766 0
780.2846534527791 147.6288042899373 0
889.9667135302276 219.618081942697 0
279.0170559736338 107.4641907237817 0
207.9863980419207 58.45989640418622 0
937.0371889279555 104.8384348378076 0
158.6835806969579 56.16718490590163 0
591.1442232053755 265.7165380310649 0
941.1830468942508 321.6189051678278 0
932.2568872594479 342.4144194854337 0
818.1867686457069 55.88483797123564 0
524.1678708649124 84.42826319622129 0
510.6970966317259 64.5708335980469 0
486.5037141767652 66.2365189543586 0
116.8018926767959 355.2066473308877 0
607.4929095442333 130.3541070850795 0
110.3971243811282 54.71337014072314 0
829.9316378258737 357.8657284526715 0
448.9266293084955 345.2190363172973 0
415.306590751127 157.7644385595881 0
947.7331265806904 83.97925547381345 0
934.9428499057105 63.82759343667866 0
803.1892855716126 38.50829146976089 0
592.6368514960361 177.5776071571105 0
606.7495188676387 156.9174790855849 0
640.6924195578365 35.84708199791797 0
390.8270832958671 166.6688015012705 0
566.7495075688288 133.250492805615 0
172.0149231257356 37.32696862971268 0
56.09215348110754 329.1846738652962 0
67.45600892784989 352.5997362445039 0
441.2071417912202 56.29831936483262 0
509.318684315894 327.1675373478751 0
139.5493525995972 352.8926699009664 0
154.6119859881998 337.2772612694558 0
956.3957485981971 341.4298697936449 0
946.9355644260052 363.2854107358382 0
948.883057662021 190.545636268179 0
939.2931567723981 213.4438495093815 0
46.38401735021614 308.7105386588571 0
57.20340029174973 288.304530402542 0
512.794108687352 350.5276083064813 0
531.4100205310914 336.1065467466584 0
534.084134790559 359.0726016016345 0
963.8196111117195 212.6207255340447 0
954.5265883665477 233.3934841480909 0
462.2149409350662 112.9063743883153 0
959.125219598414 167.107636411583 0
966.8923425399789 142.6836924677443 0
657.8728473723977 163.0895218014133 0
682.4712899459655 159.8915689528136 0
806.8256567414286 360.3194257070543 0
697.8514454424003 179.5070613126889 0
406.7641381531794 214.7671097358575 0
534.6116338456895 62.67157061840494 0
520.9191122223144 42.65435548825845 0
383.0080252439159 187.0086650438356 0
570.6467930937567 44.26716947609611 0
595.4816831402741 43.70117845762667 0
631.6123374022327 165.8974723419873 0
40.8824927788942 153.3695319940891 0
28.20887729319471 176.2718647398851 0
635.4827305844689 275.4761488736577 0
660.0849794396114 271.6378554567433 0
552.6978541646031 94.43196540640562 0
629.4547007875395 124.372114546521 0
333.4581532752443 216.5955320018643 0
463.5767306441084 20.91352048891486 0
475.2861634757575 42.95866718417349 0
412.5253020882836 378.6715683456688 0
400.1190074021167 356.9832286669722 0
375.4029496595793 356.8026550258957 0
387.8241543539973 335.5557052531396 0
363.2229889738369 335.3893061395488 0
350.7468884461268 356.5924970678481 0
338.610535245321 335.1681689535478 0
411.3230337824268 336.0201493181873 0
375.6465861845498 315.5220809901451 0
325.9807527393604 356.4925341642175 0
313.9747899724186 334.9629954189582 0
326.4830747915609 314.8690293923007 0
301.8807603945702 313.6880451697288 0
289.3441261600441 334.7550151685499 0
277.2480500437534 313.2281194182133 0
264.6621335737461 334.4835003181573 0
252.5225601945716 312.937610121307 0
239.9144525425636 334.2398860331629 0
227.7491908153353 312.649483814385 0
215.1201360754512 334.0027853373316 0
202.936090685324 312.3680283703628 0
276.8081618187023 356.0110583199875 0
240.3688839129507 292.1679202188924 0
289.7864606252396 293.0281111925028 0
191.4034132095775 333.1176759647976 0
202.5002043281418 355.1999770154559 0
179.7690618840469 312.8290635243387 0
187.7695874062957 292.0415288670267 0
176.7413759792349 353.5644064216251 0
172.1957842110128 271.029538631188 0
403.3757945405536 312.1578927841693 0
189.5704872049018 376.9655643759174 0
427.4512166388636 356.9069103085261 0
400.0327504698457 114.321713992762 0
665.1411724382444 36.72228961541524 0
680.5704227786746 53.23209010744125 0
704.6193002848772 43.45440466972727 0
349.6642372130362 154.1828837248285 0
698.827172550755 288.413217815251 0
708.3336161048112 265.3723234623243 0
732.7339101884081 262.2579365819279 0
684.2747139098802 268.3015492818162 0
718.0781474238507 242.2683488648934 0
486.241739904485 378.5565662438885 0
351.075918403923 315.5299419909862 0
363.6678641358452 293.5269981152864 0
535.1721201487112 21.27672841884329 0
238.6446199764457 168.0875895015408 0
213.9080939753295 166.6469459766516 0
263.1618533585365 169.8028255145911 0
337.897556208283 378.2207324992601 0
414.6168144376518 20.01835059446413 0
388.6487022733274 24.78322765909786 0
587.5677151077953 379.5845599431153 0
573.5733280476711 357.2278003731767 0
612.2903404966864 380.2689692845996 0
337.499999999691 21.65063509461884 0
350.0940753209327 46.43129772680366 0
324.0003904007624 43.88886882434247 0
312.6960868188034 21.76360805094471 0
797.008848945924 275.2774089989677 0
781.9775942627396 255.5894974298234 0
806.4928033118454 252.350862804671 0
740.4911434904677 131.1610405070243 0
731.1332116606623 153.9297627201171 0
755.7838693874871 150.8868526956082 0
757.4107326518866 258.8772199376147 0
739.067906548388 374.6418332769023 0
686.9655766046503 378.6704940934172 0
696.8097553365362 356.509367984869 0
262.5110791501108 21.36886872082615 0
674.5597200951202 291.6052839725276 0
737.8954307178508 22.01977865141005 0
752.3337139375786 43.33296085545394 0
262.9214948049982 378.1608155064805 0
762.5000000000165 378.3493649053904 0
776.1321320546206 357.4763997462541 0
237.3718511611683 20.57877695018306 0
248.4829603064771 41.3995553943026 0
265.1103116411547 292.8122713106864 0
279.7726521643966 271.1550394354128 0
213.6738479659774 291.369388792474 0
224.2817319108345 271.1659385867742 0
219.0063010531489 80.82284897552566 0
243.8878241704854 83.32945547895018 0
795.4732772217581 167.3091343811238 0
862.6049112995602 21.41175845867497 0
849.9999971680771 43.27747084205532 0
874.966836926281 43.27048381534254 0
887.5121005633382 21.5286526882976 0
900.0000004928177 43.29122378098629 0
765.1516717834912 127.9540671364602 0
189.1526471264188 165.1461921880489 0
21.50294497300785 237.5949297342537 0
46.65655892228712 222.3248523775672 0
43.51381824708702 249.013099261812 0
63.10036902684786 239.6961976322303 0
66.51355178353569 263.7961275059555 0
21.15904741614543 261.4333805040745 0
287.8997247747568 378.2542689154516 0
975.9605184246373 86.49430649333334 0
979.0717894554198 287.4367856705204 0
954.5570530518198 299.8766328783237 0
21.65023013776868 112.5003362400303 0
42.77335126768436 100.7547198981785 0
43.32062495177436 76.7298002256546 0
42.24357353764457 125.8571802900835 0
21.16100391546392 62.70420874092825 0
43.90390851978952 47.92336548901998 0
72.9503908026488 38.65259593858746 0
52.16848193751963 25.90168390851603 0
937.4824961308929 21.04494554517871 0
949.3369041384268 41.44159907146069 0
62.50059015270202 378.349705630214 0
112.4927022761455 19.56031621724584 0
887.5372646330286 378.3344823368607 0
876.7534520119802 355.6255884023826 0
900.1391800549206 357.9669776449085 0
130.945474797501 97.015078015483 0
317.51103217481 293.2405183381568 0
876.8231009255152 309.2944716571587 0
202.8073472761577 144.4345675239369 0
200.2614373300554 187.3077644812966 0
142.6810521533469 314.2192700407669 0
865.3351920019924 222.9324958518771 0
747.8135854506663 281.7437592718032 0
125.8559150256056 183.0249224575185 0
857.2160007713316 67.76914152666357 0
142.0591000826755 119.2976820901882 0
859.7134546733976 180.4580285086668 0
92.38605617985267 354.0013533254837 0
691.620453290937 137.2985731712571 0
838.9310639155472 118.1900377391425 0
79.23634211051343 137.63319030563 0
62.60210429755075 199.9771689471389 0
81.50788446667339 288.0581181792448 0
920.307769226592 259.0558878730751 0
903.3715448834791 131.3072166077894 0
768.7277920124718 62.83671057246603 0
226.9614545032227 355.5598401814503 0
861.5003517537607 288.6902832125488 0
110.0265265341937 246.7646872836305 0
137.0293471129954 205.1596436790531 0
290.051103766497 129.3886151360762 0
791.6706991591941 232.5819545602719 0
767.056566140373 235.9241173888693 0
850.2238436314922 203.3093658581656 0
301.482545867101 356.1660591091636 0
155.7461449751788 98.53198763811989 0
823.792576125446 98.51145744278888 0
770.9781232040979 170.5704815318739 0
273.9830310354328 191.8073053691083 0
649.9563949061754 185.8506083303722 0
927.9668435066035 127.9344983705406 0
851.9833846807294 311.7287185451287 0
865.7941574063207 332.7031661837792 0
251.7530411616192 355.947117222057 0
356.737896167047 218.3420026268827 0
631.9289061806223 339.1479569804585 0
112.2331595800803 203.6214617330614 0
409.750950941809 285.2706287314173 0
362.7825090982828 378.3274541119686 0
144.6141174510117 76.25099847040116 0
722.0295975851441 176.6441918110979 0
134.7495346984262 55.94653883096959 0
671.0684377858069 75.94947257563679 0
341.4067460179211 90.37721514434017 0
98.91588188140464 223.7580568734083 0
833.2181232470427 75.55105669462407 0
416.481802635626 55.74651675667242 0
874.8138622462297 200.0560279797494 0
224.9038273218485 188.7207047762994 0
331.0228683134142 68.09472352079948 0
608.0332747900381 63.77076707882047 0
899.461280430033 196.8299989292094 0
695.3870362628538 71.39884141373022 0
268.6008994746818 85.47243143092078 0
914.5326492817255 216.4970001651995 0
299.2706794005225 43.00046102425288 0
287.5520238819621 171.5039366721484 0
646.5240415136327 250.8005737504252 0
461.6709107605934 379.968191454615 0
929.7518182847944 236.2806067923863 0
943.6890464319119 255.5272374255284 0
977.9337069723382 235.2422185706761 0
233.8293537229017 61.3704338531527 0
792.4701640548484 339.6073757413311 0
778.1986395060804 40.43140353114737 0
184.5830552332148 249.6650362839416 0
693.9734893765709 245.3360413161141 0
276.7657982856367 149.5829146445024 0
952.1517176583139 123.4054714420037 0
112.4999999999925 379.0809204376672 0
706.8508449224475 156.9118817091445 0
609.5296451305278 276.9404769361734 0
265.7472798055109 127.5523737148242 0
909.0324853239896 65.67127433340846 0
743.7499160817506 66.05968874433691 0
254.7864389192725 105.4281244043195 0
587.0710253763434 21.00450635000379 0
661.0914540598224 378.7647223211044 0
553.6197434915036 345.1332416144313 0
565.2622065067584 110.0139998231902 0
42.10217420937111 350.1870758676988 0
274.5185001941486 42.18634490114216 0
511.0419203855446 21.80884863871621 0
213.7446739082058 377.5705310782976 0
23.24617242391925 310.1912470754752 0
977.6056085705993 39.52861038542068 0
19.89130570834387 361.8906978519241 0
470.4683904689155 87.53346530890155 0
979.5379164290727 336.7621247641463 0
138.2978242826657 375.0795222077635 0
498.1427918416547 44.72790455115378 0
410.2581611230671 134.911904778166 0
713.1846083154646 21.88475581262825 0
426.5583413299303 318.2412756646876 0
959.3497685297167 272.4785475877363 0
722.1305994678908 355.2940743168561 0
85.60691808532395 244.6914422298034 0
838.3042906323783 379.3793632921364 0
195.7941038420981 37.33292912839671 0
447.0280672712556 324.0596044529971 0
374.520110060577 152.7923458120904 0
258.6033760640821 64.04527654272268 0
727.8068773631769 46.23770046589237 0
962.2554305411688 380.7890392628765 0
37.97087869028799 197.4061718942903 0
646.9995085873203 358.6342723757432 0
789.1952664089777 20.00941005795131 0
555.0171107875559 303.8241027959683 0
371.842667768747 40.54461573379181 0
924.429923087803 41.69537679948372 0
617.9574505203996 45.26629253305782 0
958.1297534388034 103.1209214357257 0
423.1415546105713 115.5516463090879 0
538.6417516211153 380.7238078256077 0
198.7729136924357 270.8563733244732 0
584.8946951366194 282.6322724257867 0
603.8776766449241 196.8533609129694 0
222.5257211627645 39.73145042019562 0
546.5409358015631 43.71610143592293 0
436.4676766654295 282.5222985106626 0
41.43374566506746 271.7312881106524 0
622.7104213099856 360.2505349701829 0
813.6843043662682 380.8050699807702 0
981.564767456339 160.105452026258 0
852.7344540278764 356.3440155555381 0
813.4523789282035 19.34221568965858 0
236.2499392830796 251.7776334787584 0
465.177087307849 61.73735684569181 0
185.4384466623016 18.83929561443957 0
623.2036575465081 144.2178831769586 0
960.1948549019262 63.10075355082523 0
586.3909897064854 137.2332722923789 0
368.6564733751914 200.0180962530296 0
933.4071890659576 380.7123503999018 0
73.98466265145092 220.3224873437646 0
547.9870023608501 324.390898439026 0
251.6450078469798 272.7321250294756 0
32.29195756472969 19.55086798391129 0
638.4043310094827 14.63259120461649 0
442.6226628097832 120.1980661358752 0
161.5764123752087 18.97312030953847 0
598.7180774939935 360.2914196895319 0
18.14840103335247 158.4282793473999 0
282.4355624144135 249.7702920745382 0
454.3784206996161 40.26617973627492 0
89.28981205580783 54.27059878239156 0
61.15060689373401 90.11299552257296 0
58.37797197108615 138.6701776854839 0
984.1481371857139 212.4999999992743 0
495.6179990437642 360.3293315192783 0
302.5331485083117 277.9527187582891 0
431.9492191928608 336.7061572800328 0
767.1838478824255 339.8141244942424 0
613.805072696988 176.3525736534759 0
149.0210801531038 37.43316411958789 0
826.244045865498 38.54256007022796 0
961.0123606056817 322.1384594640351 0
390.4909278773498 203.085095962455 0
588.7471276123295 342.1487073990147 0
505.0610507418691 307.99392497887 0
922.8493991790957 360.9757985527618 0
338.9412357678912 299.2406948300506 0
18.30127018925049 381.6987298107965 0
981.6987298107524 18.30127018921716 0
429.7512081446818 39.11892793247873 0
124.259425372814 37.0428495663672 0
603.9570295837384 254.1885002604883 0
661.6367016149206 15.62115640470856 0
319.676856919934 273.3997446363924 0
963.2158799167195 250.5839278681335 0
532.1838533346106 100.9482850784764 0
561.0868361038783 284.0788170280676 0
36.29744774317905 325.1593738072253 0
366.0402771538324 274.6092607566407 0
982.5217675615301 382.5217675614894 0
837.0508849848699 57.04406783639072 0
157.0369486168677 359.6251269962484 0
387.8167909063088 298.9183458143959 0
17.67804567860749 193.4616843428311 0
99.6677950067612 36.87262150540122 0
69.11872309984697 17.82931353120076 0
756.7748170517058 360.6137228423456 0
986.1002257812449 137.4999999993998 0
172.6618742739368 330.5684352914146 0
398.2276185988737 148.7630264580895 0
406.4606575014553 38.60399442984691 0
449.769338557247 364.6020217831644 0
912.2807646623636 342.8819256406 0
423.5029966393506 300.1242647816413 0
552.8185608714073 363.5911290780055 0
37.75422226853257 292.8397140326671 0
14.90169059949023 14.90169059956695 0
161.4341288527576 317.038112612841 0
368.4238575920874 57.78507975991807 0
540.2572761777284 78.76660333993354 0
$EndNodes
$Elements
9 1636 1 1636
1 1 1 40
1 1 9 
2 9 10 
3 10 11 
4 11 12 
5 12 13 
6 13 14 
7 14 15 
8 15 16 
9 16 17 
10 17 18 
11 18 19 
12 19 20 
13 20 21 
14 21 22 
15 22 23 
16 23 24 
17 24 25 
18 25 26 
19 26 27 
20 27 28 
21 28 29 
22 29 30 
23 30 31 
24 31 32 
25 32 33 
26 33 34 
27 34 35 
28 35 36 
29 36 37 
30 37 38 
31 38 39 
32 39 40 
33 40 41 
34 41 42 
35 42 43 
36 43 44 
37 44 45 
38 45 46 
39 46 47 
40 47 2 
1 2 1 16
41 2 48 
42 48 49 
43 49 50 
44 50 51 
45 51 52 
46 52 53 
47 53 54 
48 54 55 
49 55 56 
50 56 57 
51 57 58 
52 58 59 
53 59 60 
54 60 61 
55 61 62 
56 62 3 
1 3 1 40
57 3 63 
58 63 64 
59 64 65 
60 65 66 
61 66 67 
62 67 68 
63 68 69 
64 69 70 
65 70 71 
66 71 72 
67 72 73 
68 73 74 
69 74 75 
70 75 76 
71 76 77 
72 77 78 
73 78 79 
74 79 80 
75 80 81 
76 81 82 
77 82 83 
78 83 84 
79 84 85 
80 85 86 
81 86 87 
82 87 88 
83 88 89 
84 89 90 
85 90 91 
86 91 92 
87 92 93 
88 93 94 
89 94 95 
90 95 96 
91 96 97 
92 97 98 
93 98 99 
94 99 100 
95 100 101 
96 101 4 
1 4 1 16
97 4 102 
98 102 103 
99 103 104 
100 104 105 
101 105 106 
102 106 107 
103 107 108 
104 108 109 
105 109 110 
106 110 111 
107 111 112 
108 112 113 
109 113 114 
110 114 115 
111 115 116 
112 116 1 
1 5 1 5
113 5 117 
114 117 118 
115 118 119 
116 119 120 
117 120 6 
1 6 1 5
118 6 121 
119 121 122 
120 122 123 
121 123 124 
122 124 7 
1 7 1 5
123 7 125 
124 125 126 
125 126 127 
126 127 128 
127 128 8 
1 8 1 5
128 8 129 
129 129 130 
130 130 131 
131 131 132 
132 132 5 
2 1 2 1504
133 391 609 610 
134 459 287 755 
135 614 425 704 
136 695 299 739 
137 388 458 488 
138 287 459 703 
139 661 531 801 
140 250 248 719 
141 583 582 738 
142 458 388 724 
143 527 351 528 
144 588 589 628 
145 462 614 704 
146 478 412 711 
147 531 661 812 
148 391 606 609 
149 537 279 676 
150 528 351 530 
151 439 695 739 
152 617 257 618 
153 152 307 485 
154 412 413 711 
155 431 464 783 
156 462 162 614 
157 598 353 636 
158 483 134 577 
159 589 246 628 
160 162 462 631 
161 489 173 700 
162 536 147 537 
163 467 180 468 
164 464 431 474 
165 601 452 754 
166 447 456 755 
167 333 583 738 
168 483 577 687 
169 162 631 693 
170 489 290 742 
171 570 250 719 
172 631 446 693 
173 490 489 700 
174 613 709 754 
175 153 480 692 
176 257 617 656 
177 255 302 603 
178 558 396 673 
179 428 252 570 
180 536 537 676 
181 693 446 713 
182 290 486 742 
183 5 455 740 
184 150 721 748 
185 305 122 743 
186 446 465 713 
187 307 409 485 
188 535 147 536 
189 595 635 758 
190 445 416 711 
191 709 177 754 
192 716 573 726 
193 181 139 182 
194 559 558 673 
195 451 140 458 
196 160 181 439 
197 175 431 783 
198 164 417 418 
199 175 426 431 
200 157 457 734 
201 415 176 416 
202 492 144 607 
203 457 157 762 
204 750 338 760 
205 583 750 760 
206 581 314 774 
207 456 447 753 
208 314 581 767 
209 611 609 761 
210 353 598 720 
211 609 179 761 
212 246 589 591 
213 449 721 746 
214 252 250 570 
215 286 568 719 
216 177 601 754 
217 721 449 748 
218 440 255 603 
219 171 473 475 
220 173 489 742 
221 480 153 806 
222 569 428 570 
223 483 449 746 
224 5 132 455 
225 123 122 305 
226 128 127 478 
227 349 661 801 
228 304 555 702 
229 140 7 485 
230 125 140 451 
231 117 139 181 
232 124 152 485 
233 159 126 451 
234 472 598 636 
235 151 131 459 
236 160 118 181 
237 478 127 763 
238 130 163 459 
239 175 120 426 
240 164 121 417 
241 6 175 417 
242 568 286 805 
243 8 176 415 
244 416 176 711 
245 697 591 733 
246 137 469 479 
247 492 607 771 
248 400 559 673 
249 477 476 685 
250 452 601 735 
251 635 595 728 
252 246 591 697 
253 537 716 726 
254 469 137 476 
255 468 180 727 
256 668 720 758 
257 453 697 733 
258 459 163 703 
259 456 151 755 
260 559 400 679 
261 555 304 782 
262 248 286 719 
263 436 722 741 
264 597 595 758 
265 610 169 803 
266 159 451 715 
267 157 490 700 
268 457 762 791 
269 553 407 732 
270 279 537 726 
271 727 64 757 
272 140 485 781 
273 172 706 714 
274 151 459 755 
275 535 457 791 
276 180 467 712 
277 445 711 751 
278 639 574 688 
279 417 175 783 
280 620 347 785 
281 139 5 740 
282 685 476 772 
283 347 620 792 
284 122 164 743 
285 769 610 803 
286 142 529 532 
287 603 302 718 
288 95 142 532 
289 163 129 794 
290 291 293 479 
291 129 415 794 
292 605 399 607 
293 407 553 809 
294 490 157 734 
295 582 528 738 
296 495 494 681 
297 400 401 679 
298 494 220 681 
299 220 494 695 
300 287 447 755 
301 119 160 795 
302 426 119 795 
303 529 466 807 
304 613 424 709 
305 469 291 479 
306 171 475 737 
307 679 401 705 
308 432 544 682 
309 610 609 611 
310 495 209 542 
311 466 529 800 
312 720 597 758 
313 574 135 688 
314 299 303 739 
315 341 339 530 
316 220 695 790 
317 351 341 530 
318 468 727 757 
319 722 133 741 
320 191 189 484 
321 209 495 681 
322 717 531 812 
323 93 94 707 
324 706 487 714 
325 588 628 799 
326 547 173 742 
327 303 304 731 
328 15 752 764 
329 200 481 482 
330 730 40 749 
331 245 491 653 
332 94 95 532 
333 655 621 656 
334 479 293 480 
335 428 569 701 
336 546 349 801 
337 618 257 811 
338 540 542 690 
339 187 185 653 
340 153 692 735 
341 142 713 800 
342 565 664 694 
343 428 701 729 
344 708 154 814 
345 349 546 797 
346 182 139 183 
347 458 140 488 
348 704 425 710 
349 575 136 657 
350 579 705 725 
351 471 708 814 
352 713 465 800 
353 481 200 653 
354 189 200 484 
355 164 418 420 
356 136 640 657 
357 418 417 419 
358 415 416 443 
359 192 205 543 
360 491 456 753 
361 752 460 764 
362 575 522 600 
363 148 510 551 
364 542 209 690 
365 205 541 543 
366 89 148 551 
367 547 487 706 
368 94 532 707 
369 731 304 759 
370 573 574 726 
371 191 484 664 
372 574 639 698 
373 522 575 657 
374 701 156 729 
375 185 245 653 
376 664 484 694 
377 283 655 656 
378 200 482 484 
379 705 401 725 
380 148 600 648 
381 621 257 656 
382 370 585 699 
383 491 481 653 
384 190 192 543 
385 600 522 648 
386 309 311 658 
387 724 398 808 
388 495 542 572 
389 200 187 653 
390 399 605 770 
391 711 413 751 
392 537 147 716 
393 544 83 682 
394 541 205 567 
395 510 148 648 
396 566 433 651 
397 88 89 551 
398 562 567 646 
399 565 204 664 
400 204 565 566 
401 447 277 497 
402 598 597 720 
403 454 730 749 
404 277 274 497 
405 169 610 804 
406 530 339 689 
407 204 566 651 
408 87 88 662 
409 567 205 646 
410 311 498 658 
411 326 548 550 
412 542 539 572 
413 409 309 658 
414 146 20 560 
415 127 159 763 
416 351 527 816 
417 502 508 533 
418 549 548 672 
419 473 171 773 
420 501 158 502 
421 311 313 498 
422 501 502 533 
423 165 26 499 
424 388 361 538 
425 458 724 808 
426 398 378 534 
427 325 329 623 
428 317 319 652 
429 554 166 555 
430 88 551 662 
431 504 509 531 
432 86 158 501 
433 313 316 498 
434 156 77 556 
435 30 173 547 
436 433 566 592 
437 24 552 553 
438 499 172 500 
439 361 362 538 
440 548 326 672 
441 544 432 773 
442 79 166 554 
443 543 540 690 
444 25 165 552 
445 468 757 784 
446 326 550 652 
447 274 273 497 
448 278 277 287 
449 509 545 546 
450 557 155 558 
451 509 505 545 
452 508 504 531 
453 539 251 572 
454 287 277 447 
455 377 378 398 
456 22 155 557 
457 174 501 533 
458 502 503 504 
459 380 410 534 
460 20 21 560 
461 203 210 563 
462 502 504 508 
463 562 281 567 
464 171 82 544 
465 296 295 297 
466 253 296 572 
467 365 368 377 
468 323 325 623 
469 410 411 412 
470 549 593 622 
471 273 422 423 
472 27 172 499 
473 296 297 494 
474 249 251 539 
475 378 380 534 
476 343 317 652 
477 502 158 503 
478 91 575 600 
479 423 481 491 
480 210 216 563 
481 276 274 277 
482 290 288 496 
483 272 271 273 
484 253 295 296 
485 136 93 707 
486 296 495 572 
487 504 505 509 
488 174 85 501 
489 273 423 497 
490 585 686 725 
491 354 361 387 
492 81 82 171 
493 27 28 172 
494 387 361 388 
495 78 554 556 
496 155 23 553 
497 362 365 538 
498 329 593 623 
499 30 31 173 
500 84 85 174 
501 73 145 568 
502 19 146 571 
503 29 30 547 
504 273 271 422 
505 182 183 184 
506 278 287 288 
507 505 507 545 
508 377 368 378 
509 281 239 626 
510 272 273 274 
511 354 355 361 
512 540 539 542 
513 507 512 545 
514 365 377 538 
515 25 26 165 
516 79 80 166 
517 299 300 303 
518 22 23 155 
519 76 77 156 
520 563 562 645 
521 297 298 299 
522 564 265 592 
523 380 386 410 
524 260 433 592 
525 145 569 570 
526 78 79 554 
527 253 294 295 
528 38 135 573 
529 24 25 552 
530 316 343 354 
531 276 277 278 
532 560 559 679 
533 216 561 563 
534 92 136 575 
535 32 33 157 
536 86 87 158 
537 566 564 592 
538 524 580 581 
539 423 422 481 
540 316 354 498 
541 35 36 147 
542 89 90 148 
543 258 249 539 
544 573 135 574 
545 524 515 580 
546 216 224 561 
547 145 74 569 
548 391 610 769 
549 504 503 505 
550 251 252 253 
551 249 250 251 
552 593 549 623 
553 593 336 622 
554 270 269 271 
555 241 248 249 
556 82 83 544 
557 73 74 145 
558 19 20 146 
559 585 677 699 
560 422 271 632 
561 134 483 746 
562 21 22 557 
563 239 240 241 
564 268 267 269 
565 557 558 559 
566 567 281 626 
567 258 539 540 
568 26 27 499 
569 645 562 646 
570 500 172 714 
571 266 265 267 
572 319 326 652 
573 158 87 662 
574 241 249 258 
575 72 568 576 
576 369 370 381 
577 77 78 556 
578 482 422 632 
579 418 419 421 
580 523 519 582 
581 523 582 583 
582 251 253 572 
583 85 86 501 
584 23 24 553 
585 389 381 397 
586 512 513 620 
587 507 511 512 
588 206 199 586 
589 548 397 550 
590 237 239 281 
591 237 238 239 
592 21 557 560 
593 362 364 365 
594 578 571 579 
595 513 524 620 
596 269 267 280 
597 589 590 591 
598 595 138 728 
599 37 38 573 
600 38 39 135 
601 92 93 136 
602 270 271 272 
603 91 92 575 
604 72 73 568 
605 18 19 571 
606 264 262 265 
607 266 267 268 
608 443 416 444 
609 199 197 586 
610 241 240 248 
611 410 386 411 
612 269 280 632 
613 365 366 368 
614 134 576 577 
615 74 75 569 
616 412 411 413 
617 133 17 578 
618 369 359 370 
619 260 231 433 
620 354 343 355 
621 515 517 580 
622 517 523 580 
623 513 515 524 
624 264 265 266 
625 224 237 561 
626 369 381 389 
627 18 571 578 
628 268 269 270 
629 561 281 562 
630 239 238 240 
631 249 248 250 
632 345 359 369 
633 519 521 582 
634 354 387 498 
635 587 43 590 
636 389 397 548 
637 589 587 590 
638 231 206 586 
639 541 540 543 
640 389 549 622 
641 521 528 582 
642 154 106 599 
643 141 587 588 
644 267 265 564 
645 224 236 237 
646 517 519 523 
647 297 295 298 
648 71 72 576 
649 134 71 576 
650 262 260 592 
651 251 250 252 
652 369 389 622 
653 596 595 597 
654 623 549 672 
655 594 138 595 
656 253 252 294 
657 616 617 618 
658 239 241 626 
659 541 567 626 
660 433 586 651 
661 237 236 238 
662 604 605 607 
663 148 90 600 
664 203 563 645 
665 433 231 586 
666 594 595 596 
667 211 208 625 
668 370 584 585 
669 383 436 584 
670 141 42 587 
671 596 597 598 
672 106 107 599 
673 41 42 141 
674 95 96 142 
675 465 404 466 
676 606 608 609 
677 350 351 624 
678 265 262 592 
679 588 587 589 
680 521 527 528 
681 590 161 591 
682 296 494 495 
683 466 404 624 
684 334 331 627 
685 608 179 609 
686 332 336 593 
687 237 281 561 
688 241 258 626 
689 259 231 260 
690 144 604 607 
691 108 138 594 
692 616 150 617 
693 170 616 618 
694 604 168 605 
695 602 167 603 
696 336 345 622 
697 605 168 606 
698 115 179 608 
699 43 44 590 
700 202 207 630 
701 505 506 507 
702 42 43 587 
703 17 18 578 
704 107 108 594 
705 612 424 613 
706 378 379 380 
707 212 206 231 
708 44 161 590 
709 561 562 563 
710 54 55 137 
711 108 109 138 
712 218 211 625 
713 114 115 608 
714 261 260 262 
715 51 153 601 
716 512 511 513 
717 280 564 565 
718 51 52 153 
719 105 106 154 
720 143 58 602 
721 144 112 604 
722 329 332 593 
723 161 45 612 
724 405 471 472 
725 177 50 601 
726 263 262 264 
727 50 51 601 
728 57 58 143 
729 111 112 144 
730 336 344 345 
731 100 425 614 
732 44 45 161 
733 98 99 162 
734 59 167 602 
735 113 168 604 
736 162 99 614 
737 332 335 336 
738 58 59 602 
739 112 113 604 
740 46 424 612 
741 45 46 612 
742 59 60 167 
743 113 114 168 
744 13 149 615 
745 67 150 616 
746 49 50 177 
747 103 104 178 
748 169 12 615 
749 170 66 616 
750 99 100 614 
751 67 68 150 
752 13 14 149 
753 11 12 169 
754 65 66 170 
755 12 13 615 
756 66 67 616 
757 100 101 425 
758 46 47 424 
759 115 116 179 
760 61 62 180 
761 70 71 134 
762 16 17 133 
763 374 392 619 
764 107 594 599 
765 346 334 627 
766 375 350 624 
767 374 390 392 
768 360 346 393 
769 299 298 300 
770 228 218 434 
771 168 114 608 
772 357 374 619 
773 606 168 608 
774 258 541 626 
775 345 358 359 
776 594 596 599 
777 271 269 632 
778 229 221 230 
779 207 214 630 
780 394 393 395 
781 370 359 584 
782 345 369 622 
783 303 300 304 
784 350 341 351 
785 230 221 633 
786 275 274 276 
787 357 619 629 
788 402 375 404 
789 441 467 468 
790 212 231 259 
791 227 235 621 
792 361 355 362 
793 405 472 636 
794 392 390 448 
795 446 404 465 
796 235 256 257 
797 214 225 243 
798 470 476 477 
799 292 469 470 
800 336 335 344 
801 320 318 338 
802 244 291 292 
803 383 406 436 
804 376 403 405 
805 229 230 628 
806 227 621 641 
807 405 461 471 
808 434 218 625 
809 235 257 621 
810 360 393 394 
811 258 540 541 
812 259 260 261 
813 441 440 467 
814 390 382 391 
815 90 91 600 
816 393 346 627 
817 280 267 564 
818 210 215 216 
819 382 373 399 
820 222 232 242 
821 452 247 453 
822 404 375 624 
823 374 382 390 
824 461 403 462 
825 352 376 636 
826 255 234 302 
827 353 352 636 
828 405 403 461 
829 402 404 446 
830 357 373 374 
831 216 223 224 
832 470 469 476 
833 242 247 437 
834 261 262 263 
835 492 414 493 
836 194 196 646 
837 374 373 382 
838 389 548 549 
839 376 375 402 
840 437 247 452 
841 224 233 236 
842 256 440 441 
843 376 402 403 
844 227 234 235 
845 242 232 247 
846 430 535 536 
847 202 199 206 
848 235 255 256 
849 337 356 357 
850 356 346 360 
851 521 525 527 
852 348 352 353 
853 292 291 469 
854 345 344 358 
855 243 225 244 
856 256 255 440 
857 232 229 246 
858 360 394 408 
859 217 211 218 
860 254 449 483 
861 408 394 414 
862 352 375 376 
863 205 194 646 
864 226 218 228 
865 217 226 227 
866 337 334 346 
867 235 234 255 
868 319 321 326 
869 408 414 492 
870 565 564 566 
871 519 520 521 
872 198 201 203 
873 185 183 245 
874 357 356 373 
875 222 229 232 
876 222 221 229 
877 406 438 460 
878 219 213 221 
879 313 315 316 
880 227 226 234 
881 325 328 329 
882 406 384 438 
883 207 213 214 
884 291 282 293 
885 359 358 383 
886 263 264 639 
887 365 364 366 
888 394 395 635 
889 557 559 560 
890 352 350 375 
891 244 225 282 
892 332 334 335 
893 214 219 225 
894 266 268 279 
895 330 327 339 
896 507 510 511 
897 359 383 584 
898 246 229 628 
899 214 243 630 
900 207 206 212 
901 254 233 283 
902 219 221 222 
903 244 282 291 
904 216 215 223 
905 337 346 356 
906 224 223 233 
907 329 331 332 
908 323 324 325 
909 376 405 636 
910 254 283 449 
911 236 233 254 
912 335 334 337 
913 325 327 328 
914 217 218 226 
915 316 317 343 
916 203 208 210 
917 214 213 219 
918 332 331 334 
919 340 339 341 
920 348 341 350 
921 330 340 342 
922 202 206 207 
923 399 373 634 
924 383 358 384 
925 383 384 406 
926 324 322 333 
927 328 327 330 
928 462 403 631 
929 201 199 202 
930 198 199 201 
931 348 350 352 
932 207 212 213 
933 210 211 215 
934 284 263 285 
935 340 341 348 
936 325 324 327 
937 344 335 629 
938 321 322 323 
939 403 402 631 
940 195 193 204 
941 402 446 631 
942 330 339 340 
943 513 514 515 
944 521 520 525 
945 356 360 634 
946 203 201 208 
947 302 234 637 
948 360 408 634 
949 210 208 211 
950 307 309 409 
951 215 211 217 
952 329 328 331 
953 261 263 284 
954 373 356 634 
955 323 322 324 
956 196 198 645 
957 414 394 635 
958 284 285 442 
959 517 518 519 
960 212 259 633 
961 198 197 199 
962 222 242 638 
963 442 285 454 
964 196 197 198 
965 520 518 640 
966 337 357 629 
967 515 516 517 
968 335 337 629 
969 226 228 637 
970 456 491 777 
971 234 226 637 
972 248 240 286 
973 525 520 526 
974 525 526 529 
975 481 422 482 
976 198 203 645 
977 519 518 520 
978 219 222 638 
979 221 213 633 
980 427 419 464 
981 225 219 638 
982 213 212 633 
983 298 295 659 
984 378 368 379 
985 282 225 638 
986 445 500 714 
987 529 526 532 
988 507 506 510 
989 217 227 641 
990 189 187 200 
991 321 320 322 
992 285 263 639 
993 505 503 506 
994 196 195 197 
995 348 353 642 
996 627 331 643 
997 223 215 641 
998 192 194 205 
999 182 184 220 
1000 319 320 321 
1001 638 242 654 
1002 395 393 660 
1003 625 208 647 
1004 372 367 435 
1005 215 217 641 
1006 328 330 643 
1007 340 348 642 
1008 202 630 647 
1009 194 195 196 
1010 629 619 649 
1011 331 328 643 
1012 282 638 654 
1013 515 514 516 
1014 517 516 518 
1015 380 385 386 
1016 342 340 642 
1017 526 520 640 
1018 193 191 664 
1019 201 202 647 
1020 330 342 643 
1021 686 579 725 
1022 473 464 474 
1023 208 201 647 
1024 289 288 290 
1025 242 437 654 
1026 344 629 649 
1027 641 621 655 
1028 384 358 649 
1029 230 633 650 
1030 292 470 678 
1031 259 261 650 
1032 196 645 646 
1033 358 344 649 
1034 283 233 655 
1035 513 511 514 
1036 371 372 400 
1037 695 439 790 
1038 633 259 650 
1039 643 342 660 
1040 272 274 275 
1041 195 204 651 
1042 125 7 140 
1043 117 5 139 
1044 586 197 651 
1045 261 284 650 
1046 627 643 660 
1047 362 363 364 
1048 146 560 679 
1049 319 318 320 
1050 316 315 317 
1051 194 193 195 
1052 366 367 371 
1053 516 514 522 
1054 197 195 651 
1055 293 282 654 
1056 384 649 663 
1057 223 641 655 
1058 430 457 535 
1059 470 477 683 
1060 400 372 401 
1061 233 223 655 
1062 317 318 319 
1063 371 367 372 
1064 192 193 194 
1065 663 392 665 
1066 132 131 151 
1067 124 123 152 
1068 364 363 644 
1069 484 482 694 
1070 380 379 385 
1071 435 367 644 
1072 186 188 209 
1073 301 298 659 
1074 649 619 663 
1075 192 191 193 
1076 119 118 160 
1077 127 126 159 
1078 312 310 347 
1079 317 315 318 
1080 294 252 428 
1081 7 124 485 
1082 126 125 451 
1083 321 323 672 
1084 678 470 683 
1085 438 663 665 
1086 511 510 648 
1087 430 429 457 
1088 184 183 185 
1089 275 276 429 
1090 619 392 663 
1091 323 623 672 
1092 514 511 648 
1093 295 294 659 
1094 367 364 644 
1095 628 230 669 
1096 640 518 657 
1097 118 117 181 
1098 122 121 164 
1099 130 129 163 
1100 430 536 666 
1101 152 306 307 
1102 190 191 192 
1103 275 429 430 
1104 366 364 367 
1105 379 368 667 
1106 278 288 289 
1107 362 355 363 
1108 650 284 669 
1109 444 416 445 
1110 480 293 692 
1111 131 130 459 
1112 474 431 759 
1113 244 292 675 
1114 190 189 191 
1115 647 630 671 
1116 518 516 657 
1117 625 647 671 
1118 313 314 315 
1119 438 384 663 
1120 120 119 426 
1121 522 514 648 
1122 393 627 660 
1123 392 448 665 
1124 297 299 695 
1125 498 387 658 
1126 510 506 551 
1127 230 650 669 
1128 270 272 666 
1129 421 432 450 
1130 83 84 682 
1131 8 128 176 
1132 6 120 175 
1133 188 189 190 
1134 132 151 455 
1135 516 522 657 
1136 204 193 664 
1137 313 312 314 
1138 396 667 673 
1139 311 312 313 
1140 300 298 301 
1141 188 187 189 
1142 667 371 673 
1143 503 158 662 
1144 186 185 187 
1145 386 385 407 
1146 275 430 666 
1147 220 184 681 
1148 385 379 396 
1149 121 6 417 
1150 279 268 676 
1151 186 187 188 
1152 184 185 186 
1153 368 366 667 
1154 272 275 666 
1155 152 123 305 
1156 129 8 415 
1157 395 660 668 
1158 434 625 671 
1159 443 444 486 
1160 683 477 684 
1161 284 442 669 
1162 311 310 312 
1163 396 379 667 
1164 421 419 427 
1165 413 411 463 
1166 427 464 473 
1167 307 306 308 
1168 307 308 309 
1169 326 321 672 
1170 506 503 662 
1171 473 474 475 
1172 308 306 349 
1173 309 310 311 
1174 434 671 675 
1175 289 290 489 
1176 342 642 668 
1177 482 632 694 
1178 184 186 681 
1179 630 243 671 
1180 289 489 490 
1181 306 305 661 
1182 152 305 306 
1183 57 143 685 
1184 176 128 478 
1185 671 243 675 
1186 429 276 674 
1187 666 536 676 
1188 401 372 677 
1189 309 308 310 
1190 366 371 667 
1191 660 342 668 
1192 585 584 686 
1193 173 31 700 
1194 371 400 673 
1195 397 381 696 
1196 280 565 694 
1197 276 278 674 
1198 270 666 676 
1199 238 236 687 
1200 455 151 456 
1201 243 244 675 
1202 675 292 678 
1203 355 343 680 
1204 441 468 784 
1205 550 397 691 
1206 268 270 676 
1207 411 386 670 
1208 381 370 699 
1209 551 506 662 
1210 617 150 748 
1211 32 157 700 
1212 349 306 661 
1213 343 652 680 
1214 254 483 687 
1215 486 444 487 
1216 278 289 674 
1217 421 427 432 
1218 372 435 677 
1219 228 434 678 
1220 76 156 701 
1221 386 407 670 
1222 696 381 699 
1223 569 75 701 
1224 84 174 682 
1225 289 490 674 
1226 228 678 683 
1227 463 411 670 
1228 172 28 706 
1229 339 327 689 
1230 190 543 690 
1231 324 333 689 
1232 29 547 706 
1233 454 285 688 
1234 363 355 680 
1235 98 162 693 
1236 637 228 683 
1237 613 453 733 
1238 434 675 678 
1239 652 550 680 
1240 186 209 681 
1241 698 279 726 
1242 302 637 684 
1243 637 683 684 
1244 579 571 705 
1245 639 264 698 
1246 453 247 697 
1247 56 57 685 
1248 232 246 697 
1249 188 190 690 
1250 266 279 698 
1251 584 436 686 
1252 412 478 763 
1253 691 397 696 
1254 293 654 692 
1255 10 611 761 
1256 163 496 703 
1257 288 287 703 
1258 388 538 724 
1259 476 137 772 
1260 236 254 687 
1261 363 680 691 
1262 680 550 691 
1263 146 679 705 
1264 717 420 723 
1265 640 136 707 
1266 583 333 750 
1267 105 154 708 
1268 178 104 708 
1269 327 324 689 
1270 526 640 707 
1271 377 398 724 
1272 285 639 688 
1273 48 49 709 
1274 102 103 710 
1275 147 36 716 
1276 209 188 690 
1277 142 96 713 
1278 167 60 712 
1279 61 180 712 
1280 632 280 694 
1281 494 297 695 
1282 654 437 692 
1283 644 363 691 
1284 137 479 747 
1285 568 145 719 
1286 37 573 716 
1287 413 463 751 
1288 97 98 693 
1289 388 488 756 
1290 533 450 810 
1291 493 110 766 
1292 602 603 718 
1293 420 418 723 
1294 644 691 696 
1295 435 696 699 
1296 398 534 715 
1297 447 497 753 
1298 155 553 732 
1299 264 266 698 
1300 435 644 696 
1301 247 232 697 
1302 574 698 726 
1303 150 68 721 
1304 436 406 722 
1305 31 32 700 
1306 75 76 701 
1307 496 288 703 
1308 410 412 736 
1309 453 613 754 
1310 135 39 730 
1311 677 435 699 
1312 668 642 720 
1313 418 421 723 
1314 571 146 705 
1315 461 462 704 
1316 97 693 713 
1317 110 493 802 
1318 493 414 728 
1319 607 399 771 
1320 9 10 761 
1321 409 756 781 
1322 396 558 817 
1323 475 474 702 
1324 751 463 768 
1325 81 171 737 
1326 444 445 714 
1327 591 161 733 
1328 612 613 733 
1329 166 80 737 
1330 28 29 706 
1331 409 658 756 
1332 431 426 731 
1333 294 428 729 
1334 598 472 744 
1335 532 526 707 
1336 457 429 734 
1337 338 581 760 
1338 104 105 708 
1339 688 135 730 
1340 578 579 741 
1341 423 491 753 
1342 49 177 709 
1343 103 178 710 
1344 165 499 768 
1345 611 10 804 
1346 154 599 744 
1347 554 555 765 
1348 60 61 712 
1349 487 547 742 
1350 347 546 785 
1351 581 338 767 
1352 596 598 744 
1353 70 134 746 
1354 96 97 713 
1355 610 611 804 
1356 686 436 741 
1357 176 478 711 
1358 387 388 756 
1359 54 137 747 
1360 529 142 800 
1361 40 41 749 
1362 579 686 741 
1363 157 33 762 
1364 606 391 770 
1365 16 133 752 
1366 581 580 760 
1367 63 64 727 
1368 320 338 750 
1369 523 583 760 
1370 333 322 750 
1371 238 687 776 
1372 301 659 745 
1373 509 546 801 
1374 487 444 714 
1375 147 535 791 
1376 692 437 735 
1377 64 65 757 
1378 36 37 716 
1379 303 731 795 
1380 174 533 810 
1381 508 531 717 
1382 395 668 758 
1383 14 15 764 
1384 452 453 754 
1385 524 581 774 
1386 546 347 797 
1387 110 111 766 
1388 546 545 785 
1389 512 620 785 
1390 165 768 788 
1391 145 570 719 
1392 143 602 718 
1393 338 318 767 
1394 674 490 734 
1395 488 140 781 
1396 390 391 769 
1397 35 147 791 
1398 717 723 775 
1399 382 399 770 
1400 408 492 771 
1401 137 55 772 
1402 178 704 710 
1403 576 568 805 
1404 642 353 720 
1405 68 69 721 
1406 538 377 724 
1407 739 303 795 
1408 399 634 771 
1409 160 439 739 
1410 245 183 740 
1411 302 684 718 
1412 315 314 767 
1413 406 460 722 
1414 687 577 776 
1415 479 480 747 
1416 528 530 738 
1417 421 450 723 
1418 101 4 786 
1419 4 102 786 
1420 47 2 787 
1421 2 48 787 
1422 286 240 776 
1423 181 182 790 
1424 491 245 777 
1425 141 588 779 
1426 109 110 802 
1427 153 52 806 
1428 439 181 790 
1429 10 11 804 
1430 401 677 725 
1431 525 529 807 
1432 419 417 783 
1433 301 745 765 
1434 347 310 797 
1435 304 300 782 
1436 56 685 772 
1437 677 585 725 
1438 171 544 773 
1439 454 688 730 
1440 432 427 773 
1441 407 385 817 
1442 628 669 799 
1443 308 349 797 
1444 552 165 788 
1445 661 305 743 
1446 414 635 728 
1447 39 40 730 
1448 558 155 732 
1449 440 603 780 
1450 286 776 805 
1451 553 552 809 
1452 659 294 729 
1453 283 656 748 
1454 500 445 751 
1455 161 612 733 
1456 656 617 748 
1457 601 153 735 
1458 485 409 781 
1459 721 69 746 
1460 765 555 782 
1461 133 722 752 
1462 159 715 736 
1463 450 533 775 
1464 257 256 811 
1465 461 704 796 
1466 704 178 796 
1467 534 410 736 
1468 429 674 734 
1469 144 492 766 
1470 167 712 780 
1471 715 534 736 
1472 437 452 735 
1473 156 556 745 
1474 62 3 798 
1475 3 63 798 
1476 465 466 800 
1477 166 737 813 
1478 183 139 740 
1479 80 81 737 
1480 164 420 743 
1481 552 788 809 
1482 605 606 770 
1483 689 333 738 
1484 133 578 741 
1485 486 290 818 
1486 747 480 806 
1487 732 407 817 
1488 736 412 763 
1489 599 596 744 
1490 486 487 742 
1491 530 689 738 
1492 69 70 746 
1493 779 588 799 
1494 451 458 808 
1495 438 665 778 
1496 245 740 777 
1497 53 54 747 
1498 718 684 793 
1499 756 488 781 
1500 449 283 748 
1501 778 665 789 
1502 712 467 780 
1503 143 718 793 
1504 624 351 816 
1505 431 731 759 
1506 41 141 749 
1507 533 508 775 
1508 497 423 753 
1509 322 320 750 
1510 603 167 780 
1511 15 16 752 
1512 450 432 810 
1513 304 702 759 
1514 702 474 759 
1515 555 166 813 
1516 432 682 810 
1517 460 438 778 
1518 722 460 752 
1519 314 312 792 
1520 179 116 815 
1521 665 448 789 
1522 442 454 779 
1523 745 556 765 
1524 65 170 757 
1525 496 163 794 
1526 789 448 803 
1527 635 395 758 
1528 702 555 813 
1529 658 387 756 
1530 580 523 760 
1531 312 347 792 
1532 492 493 766 
1533 556 554 765 
1534 508 717 775 
1535 493 728 802 
1536 33 34 762 
1537 149 14 764 
1538 500 751 768 
1539 111 144 766 
1540 499 500 768 
1541 53 747 806 
1542 768 463 788 
1543 448 390 769 
1544 318 315 767 
1545 757 170 784 
1546 391 382 770 
1547 634 408 771 
1548 729 156 745 
1549 762 34 791 
1550 55 56 772 
1551 620 524 774 
1552 48 709 787 
1553 102 710 786 
1554 659 729 745 
1555 737 475 813 
1556 240 238 776 
1557 290 496 818 
1558 427 473 773 
1559 740 455 777 
1560 415 443 794 
1561 685 143 793 
1562 178 708 796 
1563 467 440 780 
1564 464 419 783 
1565 180 62 798 
1566 455 456 777 
1567 545 512 785 
1568 170 618 784 
1569 116 1 815 
1570 1 9 815 
1571 300 301 782 
1572 531 509 801 
1573 149 778 789 
1574 425 101 786 
1575 424 47 787 
1576 776 577 805 
1577 615 149 789 
1578 182 220 790 
1579 34 35 791 
1580 466 624 816 
1581 154 744 814 
1582 558 732 817 
1583 477 685 793 
1584 615 789 803 
1585 471 461 796 
1586 256 441 811 
1587 463 670 788 
1588 310 308 797 
1589 577 576 805 
1590 138 109 802 
1591 169 615 803 
1592 11 169 804 
1593 159 736 763 
1594 52 53 806 
1595 527 525 807 
1596 669 442 799 
1597 496 794 818 
1598 684 477 793 
1599 472 471 814 
1600 788 670 809 
1601 443 486 818 
1602 398 715 808 
1603 670 407 809 
1604 301 765 782 
1605 709 424 787 
1606 710 425 786 
1607 682 174 810 
1608 728 138 802 
1609 385 396 817 
1610 708 471 796 
1611 794 443 818 
1612 661 743 812 
1613 723 450 775 
1614 454 749 779 
1615 761 179 815 
1616 715 451 808 
1617 764 460 778 
1618 727 180 798 
1619 475 702 813 
1620 442 779 799 
1621 774 314 792 
1622 420 717 812 
1623 731 426 795 
1624 63 727 798 
1625 749 141 779 
1626 743 420 812 
1627 448 769 803 
1628 160 739 795 
1629 149 764 778 
1630 744 472 814 
1631 620 774 792 
1632 441 784 811 
1633 9 761 815 
1634 807 466 816 
1635 784 618 811 
1636 527 807 816 
$EndElements
