$MeshFormat
4.1 0 8
$EndMeshFormat
$PhysicalNames
7
2 2 "A"
2 3 "B"
2 4 "C"
2 5 "D"
2 6 "E"
2 7 "F"
3 1 "Domain"
$EndPhysicalNames
$Entities
8 12 6 1
1 0 0 0 0 
2 250 0 0 0 
3 250 200 0 0 
4 0 200 0 0 
5 0 0 1000 0 
6 250 0 1000 0 
10 250 200 1000 0 
14 0 200 1000 0 
1 0 0 0 250 0 0 0 2 1 -2 
2 250 0 0 250 200 0 0 2 2 -3 
3 0 200 0 250 200 0 0 2 3 -4 
4 0 0 0 0 200 0 0 2 4 -1 
6 0 0 1000 250 0 1000 0 2 5 -6 
7 250 0 1000 250 200 1000 0 2 6 -10 
8 0 200 1000 250 200 1000 0 2 10 -14 
9 0 0 1000 0 200 1000 0 2 14 -5 
11 0 0 0 0 0 1000 0 2 1 -5 
12 250 0 0 250 0 1000 0 2 2 -6 
16 250 200 0 250 200 1000 0 2 3 -10 
20 0 200 0 0 200 1000 0 2 4 -14 
1 0 0 0 250 200 0 1 7 4 1 2 3 4 
13 0 0 0 250 0 1000 1 6 4 1 12 -6 -11 
17 250 0 0 250 200 1000 1 3 4 2 16 -7 -12 
21 0 200 0 250 200 1000 1 4 4 3 20 -8 -16 
25 0 0 0 0 200 1000 1 5 4 4 11 -9 -20 
26 0 0 1000 250 200 1000 1 2 4 6 7 8 9 
1 0 0 0 250 200 1000 1 1 6 -1 26 13 17 21 25 
$EndEntities
$Nodes
27 630 1 630
0 1 0 1
1
0 0 0
0 2 0 1
2
250 0 0
0 3 0 1
3
250 200 0
0 4 0 1
4
0 200 0
0 5 0 1
5
0 0 1000
0 6 0 1
6
250 0 1000
0 10 0 1
7
250 200 1000
0 14 0 1
8
0 200 1000
1 1 0 4
9
10
11
12
49.99999999994849 0 0
99.99999999992848 0 0
149.9999999999634 0 0
199.9999999999817 0 0
1 2 0 3
13
14
15
250 49.99999999977637 0
250 99.99999999964737 0
250 149.9999999997266 0
1 3 0 4
16
17
18
19
200.0000000000033 200 0
150.0000000000067 200 0
99.99999999999338 200 0
49.99999999999667 200 0
1 4 0 3
20
21
22
0 150.0000000003553 0
0 100.0000000005162 0
0 50.00000000035527 0
1 6 0 4
23
24
25
26
49.99999999994849 0 1000
99.99999999992848 0 1000
149.9999999999634 0 1000
199.9999999999817 0 1000
1 7 0 3
27
28
29
250 49.99999999977637 1000
250 99.99999999964737 1000
250 149.9999999997266 1000
1 8 0 4
30
31
32
33
200.0000000000033 200 1000
150.0000000000067 200 1000
99.99999999999338 200 1000
49.99999999999667 200 1000
1 9 0 3
34
35
36
0 150.0000000003553 1000
0 100.0000000005162 1000
0 50.00000000035527 1000
1 11 0 19
37
38
39
40
41
42
43
44
45
46
47
48
49
50
51
52
53
54
55
0 0 49.99999999996728
0 0 99.99999999996503
0 0 149.9999999999178
0 0 199.999999999794
0 0 249.9999999996702
0 0 299.9999999996773
0 0 349.9999999996956
0 0 399.9999999997139
0 0 449.9999999997322
0 0 499.9999999997617
0 0 549.9999999998354
0 0 599.9999999998537
0 0 649.9999999998719
0 0 699.9999999998903
0 0 749.9999999999085
0 0 799.9999999999268
0 0 849.9999999999451
0 0 899.9999999999634
0 0 949.9999999999817
1 12 0 19
56
57
58
59
60
61
62
63
64
65
66
67
68
69
70
71
72
73
74
250 0 49.99999999996728
250 0 99.99999999996503
250 0 149.9999999999178
250 0 199.999999999794
250 0 249.9999999996702
250 0 299.9999999996773
250 0 349.9999999996956
250 0 399.9999999997139
250 0 449.9999999997322
250 0 499.9999999997617
250 0 549.9999999998354
250 0 599.9999999998537
250 0 649.9999999998719
250 0 699.9999999998903
250 0 749.9999999999085
250 0 799.9999999999268
250 0 849.9999999999451
250 0 899.9999999999634
250 0 949.9999999999817
1 16 0 19
75
76
77
78
79
80
81
82
83
84
85
86
87
88
89
90
91
92
93
250 200 49.99999999996728
250 200 99.99999999996503
250 200 149.9999999999178
250 200 199.999999999794
250 200 249.9999999996702
250 200 299.9999999996773
250 200 349.9999999996956
250 200 399.9999999997139
250 200 449.9999999997322
250 200 499.9999999997617
250 200 549.9999999998354
250 200 599.9999999998537
250 200 649.9999999998719
250 200 699.9999999998903
250 200 749.9999999999085
250 200 799.9999999999268
250 200 849.9999999999451
250 200 899.9999999999634
250 200 949.9999999999817
1 20 0 19
94
95
96
97
98
99
100
101
102
103
104
105
106
107
108
109
110
111
112
0 200 49.99999999996728
0 200 99.99999999996503
0 200 149.9999999999178
0 200 199.999999999794
0 200 249.9999999996702
0 200 299.9999999996773
0 200 349.9999999996956
0 200 399.9999999997139
0 200 449.9999999997322
0 200 499.9999999997617
0 200 549.9999999998354
0 200 599.9999999998537
0 200 649.9999999998719
0 200 699.9999999998903
0 200 749.9999999999085
0 200 799.9999999999268
0 200 849.9999999999451
0 200 899.9999999999634
0 200 949.9999999999817
2 1 0 18
113
114
115
116
117
118
119
120
121
122
123
124
125
126
127
128
129
130
124.9999999998612 33.68474091566792 0
126.5734748678999 167.3808462307364 0
42.33860225262136 124.7881315363762 0
207.6613977473241 75.21186846376605 0
42.28013116809863 75.19899987467308 0
82.89831972120136 100.8858445238635 0
207.7198688318715 124.8010001254919 0
169.7241383917759 100.8901340535172 0
79.4537067409612 45.74534284514587 0
171.7772429855084 155.0882797524171 0
171.6602528141565 43.85578020740844 0
78.96778276057506 156.5695374444202 0
126.3814038103188 77.25037036298113 0
36.60254037865875 36.60254037876776 0
213.3974596214156 163.3974596213415 0
213.3974596216655 36.60254037826964 0
36.6025403782812 163.3974596218131 0
132.8673743392575 120.6755551808958 0
2 13 0 100
131
132
133
134
135
136
137
138
139
140
141
142
143
144
145
146
147
148
149
150
151
152
153
154
155
156
157
158
159
160
161
162
163
164
165
166
167
168
169
170
171
172
173
174
175
176
177
178
179
180
181
182
183
184
185
186
187
188
189
190
191
192
193
194
195
196
197
198
199
200
201
202
203
204
205
206
207
208
209
210
211
212
213
214
215
216
217
218
219
220
221
222
223
224
225
226
227
228
229
230
43.07727614317936 0 174.3136326240485
45.11270170212996 0 270.9772368916411
41.48082344758313 0 872.6433422857458
207.0385559527872 0 675.4358655406448
206.6987301937155 0 574.9999999998447
206.6987301937155 0 774.9999999999179
206.6987301937154 0 374.9999999997048
42.73259568742934 0 474.9863233158001
42.96144434986832 0 724.5641348330354
43.30127006087869 0 625.0000000002584
206.3428214478259 0 123.0396791664511
211.6797556799595 0 223.0524678623683
41.30495651335163 0 374.4662126240835
208.51917671446 0 872.6433422648473
206.4568691390528 0 471.8562565611003
125.2603541515937 0 43.14967100302569
125.000000006044 0 956.6987297423299
43.8205646818949 0 80.49555700692429
75.31781981607735 0 957.8310000557797
100.2664484957989 0 918.9073916830376
149.6787305866826 0 919.1035057602123
124.999999478958 0 870.096190017107
174.7772430777726 0 958.3383723486126
174.6897793294881 0 42.16457207090528
156.275162328338 0 92.87717731014956
99.99999986831763 0 86.6025403022398
124.7736451886482 0 130.7574194317481
74.64974255487142 0 128.8712637533598
99.99999992462126 0 173.2050808556175
148.7686705844907 0 173.6243029285638
123.6706525825197 0 214.8195967328129
74.0926159780239 0 221.2702183991027
100.1719819581401 0 263.5477542404585
82.85782842734284 0 309.2296258709417
132.3492911891555 0 299.3963213808934
117.4664104708666 0 345.9674570743718
165.5861964559223 0 336.102693950199
177.9861527449451 0 288.0149325097163
150.8614745112506 0 383.6314514437253
94.34593380733638 0 391.9783018190014
133.1593573486725 0 429.7148628831105
86.13810980998019 0 448.0930687901336
126.3038103821493 0 481.3181134996456
184.4787438523576 0 422.5737846425053
42.69575965124518 0 525.5859334251994
43.10875540123851 0 575.2041802535389
86.59638726750366 0 600.0250391464931
85.87643017687653 0 648.4615548148482
129.9038102004811 0 625.0000001484686
129.9038101271732 0 674.9999997931873
129.9038101922896 0 575.0000005037501
206.978702205702 0 524.0715476244795
207.109650343221 0 725.555774796595
164.1311336350413 0 751.6142832083622
164.9980675623409 0 799.6408812507093
121.3033977325931 0 774.2694910621806
122.9013351587519 0 727.1951119944025
42.90093336561203 0 774.9327172233441
43.30127040211064 0 824.9999998059792
207.0977683592772 0 625.0676032499177
203.0465701565804 0 172.3182556942847
85.91211907646132 0 551.461418425953
42.89770656267654 0 674.2599025549675
207.6341805275314 0 824.0773950008875
165.2477980847167 0 501.4260549758101
42.99135779824584 0 423.6276756642508
122.7589516917156 0 822.7459761205195
77.37660321342119 0 41.31730025720518
44.67611805380591 0 918.7487832352972
208.7288514823694 0 76.91572681197175
206.1079200161521 0 919.9049268479203
167.5391867751077 0 844.6714362018644
81.52584540443729 0 844.6812573208501
211.5872059981433 0 323.2136945978563
39.15818550938033 0 324.9999999996864
127.5755921662297 0 528.1404036449101
84.22366263540526 0 698.8403973395605
165.8342824343946 0 703.0859980678439
147.468881467684 0 253.9061937575836
168.3012703570454 0 600.00000009685
167.7987880829378 0 650.551172063292
82.32737039671571 0 750.0308168273808
168.3128193082463 0 549.9999999159061
81.66091868594842 0 799.999999657109
83.35635073257319 0 505.6225658705172
167.5989707950905 0 214.8018623839264
33.81428042220892 0 224.9999999997322
33.49364904453004 0 124.9999999999414
165.458464646406 0 461.3138252490044
165.3239491106543 0 134.4547565224989
76.26999681796805 0 348.3351117662773
217.6352435010795 0 274.3638413961623
213.3974596122123 0 963.3974596122121
213.3974595851627 0 36.602540612682
36.60254033012797 0 963.3974599336644
36.60254037707801 0 36.60254037708304
222.0280748700682 0 424.9999999997231
171.8118935041466 0 883.2705756988055
78.12802684617925 0 883.0951083649323
184.1352570022491 0 253.4766903685469
2 17 0 81
231
232
233
234
235
236
237
238
239
240
241
242
243
244
245
246
247
248
249
250
251
252
253
254
255
256
257
258
259
260
261
262
263
264
265
266
267
268
269
270
271
272
273
274
275
276
277
278
279
280
281
282
283
284
285
286
287
288
289
290
291
292
293
294
295
296
297
298
299
300
301
302
303
304
305
306
307
308
309
310
311
250 43.30127023205927 175.0000000356041
250 42.5754448064192 274.7834192308619
250 156.6987297014371 674.9999999998812
250 156.6987297014371 574.9999999998447
250 43.30127025614041 774.9999999127135
250 156.6987297395037 374.9999999424905
250 158.1347843883902 872.7067089987158
250 43.30127027953374 474.9999999410009
250 156.6762671897771 124.254297390059
250 156.6987297015601 224.999999999732
250 43.30127028638825 624.9999999372814
250 156.6987297014371 774.9999999999179
250 42.05716045348255 870.7586012285497
250 43.30127029856298 374.9999999997048
250 156.6987297014322 474.9999999997469
250 43.30127029851251 74.99999999996615
250 124.999999999687 43.30127017545595
250 124.6648845080962 957.8607305681435
250 75.32588398825922 957.8939778835858
250 99.80393946748039 920.0841357370742
250 43.30127028257229 524.999999868321
250 85.73863458867783 501.1551437573344
250 86.60254052144639 449.9999998377313
250 86.60254043479188 549.9999999633621
250 129.9038105028552 525.0000000892906
250 43.3012702775606 575.0000000521227
250 85.87671499614794 599.7834192523953
250 85.62989111671862 650.1857557832989
250 129.9038103767702 625.0000001029696
250 43.23699708071475 675.0074592313065
250 85.54248146221742 699.9246937393995
250 43.30127023113496 125.0000000302104
250 85.87671492253442 149.7834194103139
250 86.6025403182461 200.0000001300902
250 129.9038104325736 175.0000002516547
250 42.32862109068616 325.1857559586711
250 86.60254058902828 299.9999999477572
250 157.4245552569299 275.2165807658445
250 113.3974595123819 250.0000001890268
250 157.6713826402944 324.8998938740617
250 112.7490029462589 353.3050325044825
250 116.6673520698255 401.9120472253191
250 42.32861737212818 225.1001060749485
250 157.6802310268952 425.3660751098744
250 42.57544479792237 424.7834193193956
250 43.2183231563307 724.9836921168325
250 85.36693694410515 748.9082769992947
250 86.60254030614334 800.0000000849689
250 129.9038101810071 724.9999995423975
250 156.6987297970966 824.9999999762663
250 115.4952012862915 843.189491428516
250 42.01193273177319 822.5414375633654
250 82.0455790068448 102.0254570153552
250 43.45631158041257 919.3224985164226
250 160.0798702560482 77.96802485317495
250 156.3732369471873 919.0848454224451
250 78.4217037009404 47.99399787277202
250 83.44394109378209 876.7844148998188
250 169.4100642853621 724.9999999998994
250 169.4100642943276 624.9999999998628
250 117.1924753760456 675.0000000574978
250 169.410064325753 174.9999999998559
250 75.65204716785425 395.5915959237007
250 169.410064365399 524.9999999997985
250 126.1087942422486 800.0000000466165
250 126.1087948595069 449.9999997780489
250 117.1924754796103 575.0000000728661
250 117.1924754983273 124.9999997993862
250 73.89120531352425 249.9999999610694
250 126.1087948155772 299.999999865861
250 73.89120520064884 349.9999999241417
250 163.3974596106708 963.3974596107391
250 36.95816939351896 37.35946957189022
250 163.3974596348021 36.60254029916306
250 36.60254034509256 963.3974595724014
250 120.1974813868742 83.6637853057246
250 77.47075522321859 839.9634870941925
250 121.503552006859 212.7325684271936
250 122.0463493966034 761.3904772779333
250 122.0463489204115 488.6095221521849
250 121.5241606376759 882.7641195816658
2 21 0 100
312
313
314
315
316
317
318
319
320
321
322
323
324
325
326
327
328
329
330
331
332
333
334
335
336
337
338
339
340
341
342
343
344
345
346
347
348
349
350
351
352
353
354
355
356
357
358
359
360
361
362
363
364
365
366
367
368
369
370
371
372
373
374
375
376
377
378
379
380
381
382
383
384
385
386
387
388
389
390
391
392
393
394
395
396
397
398
399
400
401
402
403
404
405
406
407
408
409
410
411
207.0385557310317 200 175.4358652132937
43.30126980621819 200 274.9999999996737
43.30127108511084 200 875.0000000400817
43.30127029727262 200 674.9999999246361
43.30126980628449 200 574.9999999998447
206.6987297014371 200 774.9999999999178
206.698729701437 200 424.9999999997231
206.6987297074797 200 324.9999999650541
207.0385557932721 200 524.5641347108602
208.8628737316304 200 624.531410925708
42.8528732261542 200 125.8814917841057
43.30127029856297 200 374.9999999997048
42.9614439663498 200 475.4358651635301
208.4910276038976 200 872.7669760940894
43.30127029856294 200 774.9999999999179
126.3216350109198 200 43.21329139857573
126.8088069811129 200 956.7777357575203
204.2994282128519 200 81.65943506090508
206.6987297577869 200 275.0000000109433
163.3974594575744 200 299.9999999050029
163.3974594645538 200 349.9999999048807
164.1216002801771 200 251.5464605552709
120.0961893710092 200 324.9999999049855
120.0961894282959 200 374.9999998175575
120.0961892205936 200 274.9999998222474
120.0961893623225 200 224.9999997069284
207.1018499198369 200 225.7409971418645
42.96144407154443 200 224.5641345942265
42.74731889490064 200 174.7350931731651
85.84758086497757 200 148.5184282723547
81.94395030116519 200 101.6619820635465
129.903809872355 200 124.999999704844
129.9038095789204 200 174.9999998730071
42.89034960399326 200 525.5557746761571
85.86886642249573 200 551.6142831233258
86.36937241482474 200 600.54040386785
129.9038100786816 200 574.9999994788559
129.9038095116991 200 524.9999994603473
129.5667538911618 200 625.4983642286762
86.57239958078517 200 650.058876260504
129.4937620338695 200 675.5826145593127
86.54321271159398 200 700.078848177435
129.9038111374237 200 724.9999994552343
170.28833634372 200 701.1595965063528
86.58366403400876 200 750.025256335319
129.9038114193103 200 774.9999994514397
86.59653510419204 200 800.0080532088704
129.9038116900521 200 824.9999994512194
86.60063075609781 200 850.0025639270104
129.903812419891 200 874.9999993949552
82.82812041161225 200 899.8964276505336
43.30127229179033 200 925.0000001994558
43.29385728129691 200 725.0111489249496
43.30126980627969 200 324.9999999996865
76.81454806111068 200 49.17668010130552
207.4011176182885 200 128.9414236581339
206.6987296746433 200 374.9999999582558
163.397459592978 200 400.0000000881026
120.0961895639391 200 425.0000000237055
207.109649995635 200 474.44422522001
207.7443549729338 200 574.6411994812564
174.8032305570045 200 958.1642894256106
43.30051786067119 200 825.0011372388307
42.90223156152206 200 425.0676028346164
206.6987299885741 200 825.0000003079133
164.1311330655768 200 448.3857168208027
120.0961892716954 200 474.9999998361953
43.26549675337978 200 625.0643805136993
205.3313484650573 200 918.9679840890681
41.88566204413422 200 77.45190530874441
172.6797865003368 200 41.38003084434314
78.31464010358309 200 953.3898055241668
151.6422221431229 200 918.9354263681799
151.3204247209514 200 80.67006076547177
165.8014221859578 200 203.0170436675584
165.8007218292798 200 496.9821859366349
84.19927780988615 200 503.017814196216
209.3213267359909 200 724.7172786474383
84.1973902828345 200 197.0010145516807
169.643590288951 200 650.2616068883522
168.4043055408347 200 154.3169638065929
167.8147439625138 200 549.4376901037485
81.69872963106042 200 299.9999997924064
82.22539000605079 200 249.4839638073183
81.6987299227261 200 400.0000000247985
82.20848804472783 200 450.5305606283547
168.7420083242399 200 599.7733876723528
81.6987297040647 200 349.9999998569348
168.2985717462779 200 800.0000025567234
169.0376369164218 200 846.3599692078114
209.5478401342274 200 675.0330761292298
168.2926940311054 200 749.9999992369105
36.60254061937502 200 963.3974597818333
212.6609751502746 200 37.95497066722256
36.71486093863834 200 37.5798942695253
213.397459669842 200 963.3974596698363
171.2471902561172 200 116.6085606414033
171.4267102387635 200 883.506590910152
114.5504670826354 200 922.4242429179875
114.5308074791431 200 77.56244426313432
2 25 0 83
412
413
414
415
416
417
418
419
420
421
422
423
424
425
426
427
428
429
430
431
432
433
434
435
436
437
438
439
440
441
442
443
444
445
446
447
448
449
450
451
452
453
454
455
456
457
458
459
460
461
462
463
464
465
466
467
468
469
470
471
472
473
474
475
476
477
478
479
480
481
482
483
484
485
486
487
488
489
490
491
492
493
494
0 43.44194322521727 175.9295370291991
0 156.6987297015034 274.9999999996737
0 43.30127029856288 624.9999999998627
0 43.3012703191672 724.9999999341883
0 156.698729701437 374.9999999997048
0 42.05716041648066 870.7586011065678
0 156.6987297014322 524.9999999997984
0 158.3727327475007 127.2957528589342
0 43.30127025366139 325.0000000223276
0 156.6987298107623 674.9999999998811
0 156.6987298107623 774.9999999999177
0 43.301270298563 424.9999999997232
0 158.134784336889 872.7067089762542
0 43.3012702985678 524.9999999997983
0 76.15380823860663 42.59143842991525
0 124.664884477332 957.8607305311741
0 124.6977841263721 42.11895526852604
0 99.70442939933402 80.51454118245677
0 46.24720198366393 78.24678732312347
0 77.21650520385242 132.2845502721952
0 43.30127015899953 275.0000000109407
0 85.73863440241858 301.1551436438465
0 86.60254017673014 250.0000000531514
0 85.44013430030523 349.3054762561733
0 129.90381056746 324.9999999049776
0 157.4245552364075 225.2165806196881
0 75.32588404519034 957.8939777383184
0 99.80393944326534 920.0841357097929
0 156.6987297202143 475.0000000453446
0 114.1232849628756 500.2165806271262
0 114.3701123402358 549.8998938430227
0 113.3974597130683 449.9999998147879
0 70.09618956707592 474.999999638637
0 156.7536352990974 574.9793624954514
0 113.3974595215626 600.0000002202424
0 70.0961894918166 575.0000002364923
0 43.27757756679767 374.9582096492447
0 157.4245552023386 424.7834193433754
0 43.30127020290342 675.0000000235505
0 85.73863438195963 701.1551434988774
0 86.60254047320225 749.9999995128611
0 129.903810348301 724.9999995203173
0 43.3012706021359 774.9999999358761
0 86.60254081180089 799.9999996581605
0 42.01193286051392 822.5414374897788
0 158.0579040811459 825.1884936486576
0 115.2209371760272 850.1948379072235
0 157.7424568367695 176.0118426680683
0 114.8105384146117 199.9568238062133
0 157.4432139012796 625.2098152106045
0 42.49179252673241 226.1173034233622
0 86.60254001266878 650.0000002782884
0 86.60254003137892 399.9999996000252
0 43.45631154814683 919.3224985554511
0 156.4493923635636 80.90004163057746
0 156.3732369016027 919.0848454356004
0 117.9744140179125 154.2034339568041
0 33.49364887406776 124.9999999999414
0 83.66618012921217 172.5924603637082
0 83.44394115848795 876.7844149512612
0 126.1087940057627 650.0000000020418
0 126.1087944774118 400.0000000665975
0 169.4100648638343 724.9999999998993
0 126.10879455936 249.9999999327832
0 30.58993518983658 474.9999999997469
0 30.58993553024118 574.9999999998445
0 169.4100649366694 324.9999999996864
0 117.1924755816605 774.9999993783557
0 82.80752454191065 525.0000000840352
0 163.3974595039544 36.60254043017922
0 36.60254036703805 963.3974598968634
0 163.3974596593752 963.3974599230861
0 36.60254036677571 36.60254030896301
0 77.24096708999519 209.3922215230295
0 79.26184594481715 840.2934172655004
0 122.0463489923974 688.609521738127
0 122.0463491879311 288.6095223009816
0 122.0463491361727 361.3904778795873
0 78.49644791267207 437.2674313416734
0 78.49644784423668 612.7325684768948
0 120.4912345231415 812.5036721552765
0 122.0862898617942 884.9505040713296
0 121.8250701292268 117.2914216166287
2 26 0 18
495
496
497
498
499
500
501
502
503
504
505
506
507
508
509
510
511
512
124.9999999998612 33.68474091566792 1000
126.5734748678999 167.3808462307364 1000
42.33860225262136 124.7881315363762 1000
207.6613977473241 75.21186846376605 1000
42.28013116809863 75.19899987467308 1000
82.89831972120136 100.8858445238635 1000
207.7198688318715 124.8010001254919 1000
169.7241383917759 100.8901340535172 1000
79.4537067409612 45.74534284514587 1000
171.7772429855084 155.0882797524171 1000
171.6602528141565 43.85578020740844 1000
78.96778276057506 156.5695374444202 1000
126.3814038103188 77.25037036298113 1000
36.60254037865875 36.60254037876776 1000
213.3974596214156 163.3974596213415 1000
213.3974596216655 36.60254037826964 1000
36.6025403782812 163.3974596218131 1000
132.8673743392575 120.6755551808958 1000
3 1 0 118
513
514
515
516
517
518
519
520
521
522
523
524
525
526
527
528
529
530
531
532
533
534
535
536
537
538
539
540
541
542
543
544
545
546
547
548
549
550
551
552
553
554
555
556
557
558
559
560
561
562
563
564
565
566
567
568
569
570
571
572
573
574
575
576
577
578
579
580
581
582
583
584
585
586
587
588
589
590
591
592
593
594
595
596
597
598
599
600
601
602
603
604
605
606
607
608
609
610
611
612
613
614
615
616
617
618
619
620
621
622
623
624
625
626
627
628
629
630
100.826540108952 100.141020623799 625.2407814680034
149.9240135645572 100.9011201399635 226.7612365228977
115.4660500406778 100.6572077298979 799.9999995295077
149.0863017075268 101.0838246646673 473.2295145685867
134.5299460717511 101.3147692027155 349.9999998447341
101.096630298056 100.563208582319 124.0602344479638
151.0845191116511 100.9432979256639 895.3854554543807
153.2581970810608 103.06467987517 708.8335111830647
161.3931588416109 88.35358946172532 560.7268659959456
84.71063604944744 115.7087939478406 529.9522999081911
83.77735179810821 115.5905349681638 418.4965511997891
82.81879277574788 99.08409980422529 280.9665833883067
78.68701914309892 78.96538760143423 730.7325904222976
77.70415401671826 122.5053314608061 866.8118338356352
73.81564284511767 70.41782190562793 189.2401055843522
173.6796510637269 124.9761589392202 135.7533129098671
179.5314727005734 130.3060115604219 823.0068033333549
173.9941827381269 76.26347478895563 636.5301222774252
179.5608763116362 70.43912340434072 773.9629226242693
69.85190230220779 70.87226467856262 362.9599513036869
175.7136837369052 126.2865524638579 407.6567149825993
158.3133604353205 77.02868751633925 74.6371117976521
175.4396691647364 126.4179120132954 292.4443471896138
70.53011467450463 72.66812841922231 929.344893513654
71.05116674611581 131.9157851228822 682.5644931285398
83.7160965191425 68.26378707309919 474.2791242475555
135.7460727652449 68.54364145726193 412.269630570084
67.43232057670068 130.6856477876278 67.57650241966714
66.46683616842958 133.2603210579238 221.1063823403701
70.52176132680778 63.92129128238169 574.1699922903796
183.6153829265217 65.43775515534023 841.1315320742882
186.9399462798943 64.06095987913184 271.7925372167034
67.30871604073758 136.3009180652589 766.6134476529151
65.51072746641 64.32930242598061 828.8253630158974
184.0409477746098 67.62830975629232 175.0760153268048
180.3909686799008 138.3364787780216 519.7866386655553
76.26211917295412 133.6052741184908 338.6830337042973
63.52171307075805 63.45764460239532 667.242517189511
155.9844557240264 134.7416591705307 608.9376900184632
187.2915848985899 62.60189159286028 937.1441263358361
189.0364414362894 61.22260623838041 507.3511041589805
186.660055991462 64.00284274871788 369.1155077404928
185.1353847222066 136.044994573054 756.9884865710314
61.95849991042068 138.0117018746532 587.7228099643393
101.801891500112 133.342335099843 929.750744674855
194.0303440063453 144.9740335870718 200.6048379984032
187.4069373517244 139.0636168421845 666.1732340477658
61.09999253863141 140.2468478207456 156.6274577202
188.9716505836737 139.0226681488475 938.8625864611857
90.74183722064065 65.60671131000822 65.28370850483857
186.8419617349359 136.4953163892229 62.62444537532697
61.67593868389287 138.4779404370113 474.389179387924
123.3660237892198 134.6122377214543 176.9579302019264
130.7168251600851 62.96455829850779 300.1750226224448
193.9682428474073 56.19485304945053 700.0004209448368
191.2355508267003 60.28833786609212 443.2902023164197
114.5159475645419 60.93991949573946 530.0834139054391
193.7901056634342 143.7901056532006 349.9999999531775
124.9770439914676 142.6168030068227 746.3885320998329
122.7940303308993 67.66042998930136 851.7059935066812
125.3010669556194 61.74678925648423 672.0388007192655
127.592894264198 139.037841708209 82.48086117946418
54.06242874848987 65.09803564089361 419.0863065699316
130.8737853568822 54.63404047679536 600.0000003259505
131.8139588352935 143.533801429324 554.6863201615051
127.0992009475427 141.1504344246031 661.7183103205606
125.3922237632639 55.28913903462728 158.5602958344531
190.4224562636512 143.9040787709078 879.7367057224718
193.7106865528734 137.9071163577269 462.4671928735604
116.0620034455785 142.7833976856809 254.9152710836809
106.9016157999942 57.78343629029343 240.7255916823073
124.741269488674 143.3808141081022 838.920955878583
123.7660559939099 57.21871048327775 761.4016282279397
121.5889186789122 147.1628482655205 449.9999999386753
55.5705049124107 54.19837301404214 308.0888483279313
124.1364173919457 143.7336816249982 387.9966489782242
127.4880007081643 58.52582295275438 942.7888738156716
55.34379595457742 55.34379606578138 113.4117088728523
196.1458907951316 53.85410907267743 589.3604972680457
54.56336602967158 145.030337698921 820.7258054831605
124.8886888380753 144.9116203913482 311.1837853431236
54.70153605678391 54.59439222161836 774.897670514014
46.4253063364618 103.3572154390689 626.8403672368829
141.9301345701744 48.66018531642109 462.1545819535305
196.1385882866162 65.21376484750945 117.7967626446141
50.03059851363706 57.91398730192891 250.309968736444
196.3671497071371 129.4928457327203 571.7926084594825
50.90924337536271 145.6951795958665 948.9884149444651
62.27700256275133 149.8183437061641 287.8425008722501
54.05862565810613 70.0477757378188 521.3505240511744
52.82940940930761 145.0949980991288 401.0924870354357
115.1767215380726 152.2386717927251 503.7076753739034
52.83741602223662 53.10784361421997 881.120067964563
203.3429231451106 97.63935386207898 223.9467397470739
120.1200786986649 51.02638405188038 363.5858114976139
110.7588322592486 98.37260011486231 572.7187416981708
105.9667432621062 152.3510022735899 614.1097289209163
175.8669217450108 81.56845492936887 320.4330522126923
146.1840098647975 48.42658335075222 808.23147943357
201.0010426267364 49.63557512410351 888.1176741697245
83.9693582302048 47.39809097515577 621.8997403826988
201.6616643291138 151.4578310786392 253.1356574184678
145.0633424284574 153.8788591815465 792.6163915125372
206.3163896133514 100.8454182226333 724.4716416976192
200.2880924700476 54.38568252164892 49.28638336388453
105.513536163431 153.1186744838418 130.4667486537126
48.81656941797635 151.0507821790143 539.8424638673789
51.22502118043563 112.1828658866154 113.6745215917093
148.1660125573235 46.55164129894224 893.4171016126027
123.7014812137586 47.74910631223684 104.7094661887176
59.88721527571411 152.8077073062246 636.9250108438819
145.7267136588522 108.6837024231591 948.1973393588811
48.83141537022306 99.96763544515602 796.8093880734638
135.3440971101854 105.9345517623486 521.4084164507451
169.6160092965443 52.04148812875793 223.4009760420852
146.1982865645929 45.78650023184701 716.3983568560108
46.33280743456788 152.3413577856806 895.7091834430018
141.0609919602524 152.986770241423 896.8252285133083
$EndNodes
$Elements
7 3097 1 3097
2 1 2 52
1 1 9 126 
2 22 1 126 
3 12 2 128 
4 2 13 128 
5 15 3 127 
6 3 16 127 
7 19 4 129 
8 4 20 129 
9 9 10 121 
10 9 121 126 
11 10 11 113 
12 10 113 121 
13 11 12 123 
14 113 11 123 
15 123 12 128 
16 13 14 116 
17 13 116 128 
18 14 15 119 
19 116 14 119 
20 119 15 127 
21 16 17 122 
22 16 122 127 
23 17 18 114 
24 17 114 122 
25 18 19 124 
26 114 18 124 
27 124 19 129 
28 20 21 115 
29 20 115 129 
30 21 22 117 
31 115 21 117 
32 117 22 126 
33 121 113 125 
34 113 123 125 
35 122 114 130 
36 114 124 130 
37 115 117 118 
38 115 118 124 
39 115 124 129 
40 116 119 120 
41 116 120 123 
42 116 123 128 
43 118 117 121 
44 121 117 126 
45 118 121 125 
46 124 118 130 
47 118 125 130 
48 120 119 122 
49 122 119 127 
50 120 122 130 
51 123 120 125 
52 125 120 130 
2 13 2 248
53 9 226 1 
54 1 226 37 
55 2 224 12 
56 56 224 2 
57 5 225 23 
58 55 225 5 
59 26 223 6 
60 6 223 74 
61 10 198 9 
62 198 226 9 
63 11 146 10 
64 146 198 10 
65 12 154 11 
66 11 154 146 
67 12 224 154 
68 23 149 24 
69 23 225 149 
70 24 147 25 
71 24 149 147 
72 25 153 26 
73 147 153 25 
74 153 223 26 
75 37 148 38 
76 37 226 148 
77 38 218 39 
78 148 218 38 
79 39 131 40 
80 39 218 131 
81 40 217 41 
82 131 217 40 
83 41 132 42 
84 41 217 132 
85 42 205 43 
86 132 205 42 
87 43 143 44 
88 43 205 143 
89 44 196 45 
90 143 196 44 
91 45 138 46 
92 45 196 138 
93 46 175 47 
94 138 175 46 
95 47 176 48 
96 175 176 47 
97 48 140 49 
98 48 176 140 
99 49 193 50 
100 140 193 49 
101 50 139 51 
102 50 193 139 
103 51 188 52 
104 139 188 51 
105 52 189 53 
106 188 189 52 
107 53 133 54 
108 53 189 133 
109 54 199 55 
110 133 199 54 
111 199 225 55 
112 57 200 56 
113 200 224 56 
114 58 141 57 
115 141 200 57 
116 59 191 58 
117 58 191 141 
118 60 142 59 
119 142 191 59 
120 61 222 60 
121 60 222 142 
122 62 204 61 
123 204 222 61 
124 63 137 62 
125 137 204 62 
126 64 227 63 
127 63 227 137 
128 65 145 64 
129 145 227 64 
130 66 182 65 
131 65 182 145 
132 67 135 66 
133 135 182 66 
134 68 190 67 
135 67 190 135 
136 69 134 68 
137 134 190 68 
138 70 183 69 
139 69 183 134 
140 71 136 70 
141 136 183 70 
142 72 194 71 
143 71 194 136 
144 73 144 72 
145 144 194 72 
146 74 201 73 
147 73 201 144 
148 74 223 201 
149 158 159 131 
150 131 218 158 
151 159 162 131 
152 162 217 131 
153 162 163 132 
154 132 217 162 
155 163 164 132 
156 164 205 132 
157 189 203 133 
158 133 229 199 
159 203 229 133 
160 183 208 134 
161 134 211 190 
162 208 211 134 
163 135 213 182 
164 190 210 135 
165 210 213 135 
166 136 184 183 
167 136 185 184 
168 136 194 185 
169 137 169 167 
170 167 204 137 
171 137 174 169 
172 137 227 174 
173 138 196 172 
174 172 215 138 
175 138 215 175 
176 139 212 188 
177 193 207 139 
178 207 212 139 
179 176 177 140 
180 177 178 140 
181 178 193 140 
182 155 200 141 
183 141 220 155 
184 191 220 141 
185 142 216 191 
186 142 230 216 
187 222 230 142 
188 170 196 143 
189 143 221 170 
190 205 221 143 
191 144 202 194 
192 201 228 144 
193 144 228 202 
194 145 219 174 
195 174 227 145 
196 182 195 145 
197 195 219 145 
198 154 155 146 
199 155 156 146 
200 156 198 146 
201 149 150 147 
202 150 151 147 
203 151 153 147 
204 156 158 148 
205 148 198 156 
206 158 218 148 
207 148 226 198 
208 149 199 150 
209 149 225 199 
210 150 152 151 
211 150 229 152 
212 199 229 150 
213 152 228 151 
214 151 201 153 
215 151 228 201 
216 197 202 152 
217 152 203 197 
218 202 228 152 
219 152 229 203 
220 201 223 153 
221 154 200 155 
222 154 224 200 
223 155 157 156 
224 155 220 157 
225 157 158 156 
226 157 159 158 
227 157 160 159 
228 157 220 160 
229 160 161 159 
230 161 162 159 
231 160 216 161 
232 191 216 160 
233 160 220 191 
234 161 163 162 
235 161 209 163 
236 161 216 209 
237 163 165 164 
238 163 209 165 
239 165 166 164 
240 166 221 164 
241 164 221 205 
242 165 167 166 
243 165 168 167 
244 165 209 168 
245 167 169 166 
246 169 170 166 
247 170 221 166 
248 168 204 167 
249 168 222 204 
250 209 230 168 
251 168 230 222 
252 169 171 170 
253 169 174 171 
254 171 172 170 
255 172 196 170 
256 171 173 172 
257 171 219 173 
258 174 219 171 
259 173 215 172 
260 195 206 173 
261 173 219 195 
262 206 215 173 
263 175 192 176 
264 175 215 192 
265 176 192 177 
266 177 179 178 
267 177 181 179 
268 177 192 181 
269 179 180 178 
270 180 207 178 
271 178 207 193 
272 179 211 180 
273 181 210 179 
274 210 211 179 
275 187 207 180 
276 180 208 187 
277 180 211 208 
278 192 206 181 
279 206 213 181 
280 181 213 210 
281 182 213 195 
282 184 208 183 
283 185 186 184 
284 186 187 184 
285 187 208 184 
286 185 197 186 
287 194 202 185 
288 185 202 197 
289 186 212 187 
290 197 214 186 
291 186 214 212 
292 187 212 207 
293 188 214 189 
294 212 214 188 
295 189 214 203 
296 190 211 210 
297 192 215 206 
298 195 213 206 
299 203 214 197 
300 216 230 209 
2 17 2 208
301 13 303 2 
302 2 303 56 
303 3 304 15 
304 75 304 3 
305 6 305 27 
306 74 305 6 
307 29 302 7 
308 7 302 93 
309 14 287 13 
310 287 303 13 
311 15 247 14 
312 247 287 14 
313 15 304 247 
314 27 249 28 
315 27 305 249 
316 28 248 29 
317 28 249 248 
318 248 302 29 
319 56 246 57 
320 56 303 246 
321 57 262 58 
322 246 262 57 
323 58 231 59 
324 58 262 231 
325 59 273 60 
326 231 273 59 
327 60 232 61 
328 60 273 232 
329 61 266 62 
330 232 266 61 
331 62 244 63 
332 62 266 244 
333 63 275 64 
334 244 275 63 
335 64 238 65 
336 64 275 238 
337 65 251 66 
338 238 251 65 
339 66 256 67 
340 251 256 66 
341 67 241 68 
342 67 256 241 
343 68 260 69 
344 241 260 68 
345 69 276 70 
346 260 276 69 
347 70 235 71 
348 70 276 235 
349 71 282 72 
350 235 282 71 
351 72 243 73 
352 72 282 243 
353 73 284 74 
354 243 284 73 
355 284 305 74 
356 76 285 75 
357 285 304 75 
358 77 239 76 
359 239 285 76 
360 78 292 77 
361 77 292 239 
362 79 240 78 
363 240 292 78 
364 80 268 79 
365 79 268 240 
366 81 270 80 
367 80 270 268 
368 82 236 81 
369 236 270 81 
370 83 274 82 
371 82 274 236 
372 84 245 83 
373 245 274 83 
374 85 294 84 
375 84 294 245 
376 86 234 85 
377 234 294 85 
378 87 290 86 
379 86 290 234 
380 88 233 87 
381 233 290 87 
382 89 289 88 
383 88 289 233 
384 90 242 89 
385 242 289 89 
386 91 280 90 
387 90 280 242 
388 92 237 91 
389 237 280 91 
390 93 286 92 
391 92 286 237 
392 93 302 286 
393 262 263 231 
394 263 264 231 
395 264 273 231 
396 232 267 266 
397 232 299 267 
398 273 299 232 
399 259 290 233 
400 233 291 259 
401 233 289 279 
402 279 291 233 
403 255 294 234 
404 234 297 255 
405 234 290 259 
406 259 297 234 
407 276 277 235 
408 277 278 235 
409 278 282 235 
410 236 271 270 
411 236 272 271 
412 236 274 272 
413 237 281 280 
414 237 311 281 
415 286 311 237 
416 238 252 251 
417 238 253 252 
418 238 275 253 
419 239 292 265 
420 265 298 239 
421 239 306 285 
422 298 306 239 
423 265 292 240 
424 240 308 265 
425 268 269 240 
426 269 308 240 
427 256 257 241 
428 257 258 241 
429 258 260 241 
430 279 289 242 
431 242 309 279 
432 280 295 242 
433 295 309 242 
434 282 307 243 
435 243 288 284 
436 243 307 288 
437 266 301 244 
438 244 293 275 
439 244 301 293 
440 245 294 255 
441 255 310 245 
442 245 296 274 
443 245 310 296 
444 246 283 262 
445 246 287 283 
446 246 303 287 
447 247 304 285 
448 285 306 247 
449 247 306 287 
450 249 250 248 
451 250 286 248 
452 286 302 248 
453 249 284 250 
454 249 305 284 
455 284 288 250 
456 250 311 286 
457 288 311 250 
458 252 254 251 
459 254 256 251 
460 253 310 252 
461 252 255 254 
462 252 310 255 
463 253 293 272 
464 272 296 253 
465 275 293 253 
466 296 310 253 
467 255 297 254 
468 254 257 256 
469 254 297 257 
470 257 259 258 
471 257 297 259 
472 259 291 258 
473 258 261 260 
474 258 291 261 
475 261 276 260 
476 261 277 276 
477 261 279 277 
478 261 291 279 
479 262 283 263 
480 263 265 264 
481 263 298 265 
482 283 298 263 
483 265 308 264 
484 269 299 264 
485 264 308 269 
486 264 299 273 
487 267 301 266 
488 267 299 269 
489 269 300 267 
490 267 300 271 
491 271 301 267 
492 268 300 269 
493 270 300 268 
494 271 300 270 
495 272 293 271 
496 293 301 271 
497 274 296 272 
498 277 309 278 
499 279 309 277 
500 278 295 281 
501 281 307 278 
502 278 307 282 
503 278 309 295 
504 281 295 280 
505 288 307 281 
506 281 311 288 
507 287 306 283 
508 283 306 298 
2 21 2 248
509 16 405 3 
510 3 405 75 
511 4 406 19 
512 94 406 4 
513 7 407 30 
514 93 407 7 
515 33 404 8 
516 8 404 112 
517 17 382 16 
518 382 405 16 
519 18 327 17 
520 327 382 17 
521 19 366 18 
522 18 366 327 
523 19 406 366 
524 30 373 31 
525 30 407 373 
526 31 328 32 
527 31 373 328 
528 32 383 33 
529 328 383 32 
530 383 404 33 
531 75 329 76 
532 75 405 329 
533 76 367 77 
534 329 367 76 
535 77 312 78 
536 77 367 312 
537 78 338 79 
538 312 338 78 
539 79 330 80 
540 79 338 330 
541 80 319 81 
542 80 330 319 
543 81 368 82 
544 319 368 81 
545 82 318 83 
546 82 368 318 
547 83 371 84 
548 318 371 83 
549 84 320 85 
550 84 371 320 
551 85 372 86 
552 320 372 85 
553 86 321 87 
554 86 372 321 
555 87 402 88 
556 321 402 87 
557 88 389 89 
558 88 402 389 
559 89 317 90 
560 89 389 317 
561 90 376 91 
562 317 376 90 
563 91 325 92 
564 91 376 325 
565 92 380 93 
566 325 380 92 
567 380 407 93 
568 95 381 94 
569 381 406 94 
570 96 322 95 
571 322 381 95 
572 97 340 96 
573 96 340 322 
574 98 339 97 
575 339 340 97 
576 99 313 98 
577 313 339 98 
578 100 365 99 
579 99 365 313 
580 101 323 100 
581 323 365 100 
582 102 375 101 
583 101 375 323 
584 103 324 102 
585 324 375 102 
586 104 345 103 
587 103 345 324 
588 105 316 104 
589 316 345 104 
590 106 379 105 
591 105 379 316 
592 107 315 106 
593 315 379 106 
594 108 364 107 
595 107 364 315 
596 109 326 108 
597 326 364 108 
598 110 374 109 
599 109 374 326 
600 111 314 110 
601 314 374 110 
602 112 363 111 
603 111 363 314 
604 112 404 363 
605 312 386 338 
606 367 392 312 
607 312 392 386 
608 313 395 339 
609 365 394 313 
610 394 395 313 
611 314 362 360 
612 360 374 314 
613 314 363 362 
614 315 353 351 
615 351 379 315 
616 315 364 353 
617 316 346 345 
618 316 347 346 
619 316 379 347 
620 317 400 376 
621 389 403 317 
622 317 403 400 
623 368 369 318 
624 369 377 318 
625 318 377 371 
626 330 331 319 
627 331 332 319 
628 332 368 319 
629 371 387 320 
630 320 393 372 
631 387 393 320 
632 372 398 321 
633 321 398 391 
634 391 402 321 
635 340 341 322 
636 341 342 322 
637 342 381 322 
638 323 399 365 
639 375 396 323 
640 396 399 323 
641 345 388 324 
642 324 397 375 
643 388 397 324 
644 376 401 325 
645 325 409 380 
646 401 409 325 
647 326 358 356 
648 356 364 326 
649 326 374 358 
650 366 411 327 
651 327 385 382 
652 327 411 385 
653 373 384 328 
654 328 410 383 
655 384 410 328 
656 329 408 367 
657 382 385 329 
658 329 405 382 
659 385 408 329 
660 330 333 331 
661 330 338 333 
662 331 334 332 
663 333 336 331 
664 331 336 334 
665 334 335 332 
666 335 369 332 
667 332 369 368 
668 333 337 336 
669 333 386 337 
670 338 386 333 
671 334 399 335 
672 336 394 334 
673 394 399 334 
674 335 370 369 
675 335 396 370 
676 335 399 396 
677 337 395 336 
678 336 395 394 
679 337 386 344 
680 344 390 337 
681 390 395 337 
682 339 390 340 
683 339 395 390 
684 340 390 341 
685 341 343 342 
686 341 344 343 
687 341 390 344 
688 343 411 342 
689 366 381 342 
690 342 411 366 
691 344 392 343 
692 343 408 385 
693 385 411 343 
694 392 408 343 
695 386 392 344 
696 346 388 345 
697 347 348 346 
698 348 349 346 
699 349 388 346 
700 347 350 348 
701 347 351 350 
702 347 379 351 
703 348 393 349 
704 350 398 348 
705 348 398 393 
706 349 387 378 
707 378 388 349 
708 349 393 387 
709 351 352 350 
710 352 391 350 
711 391 398 350 
712 351 353 352 
713 353 354 352 
714 354 355 352 
715 355 391 352 
716 353 356 354 
717 353 364 356 
718 354 403 355 
719 356 357 354 
720 357 403 354 
721 389 402 355 
722 355 403 389 
723 355 402 391 
724 356 358 357 
725 358 359 357 
726 359 400 357 
727 400 403 357 
728 358 360 359 
729 358 374 360 
730 360 361 359 
731 361 401 359 
732 359 401 400 
733 360 362 361 
734 362 410 361 
735 384 409 361 
736 361 410 384 
737 361 409 401 
738 363 383 362 
739 383 410 362 
740 363 404 383 
741 365 399 394 
742 366 406 381 
743 367 408 392 
744 370 377 369 
745 370 378 377 
746 370 397 378 
747 396 397 370 
748 377 387 371 
749 393 398 372 
750 380 384 373 
751 373 407 380 
752 375 397 396 
753 400 401 376 
754 378 387 377 
755 378 397 388 
756 380 409 384 
2 25 2 212
757 1 484 22 
758 37 484 1 
759 20 481 4 
760 4 481 94 
761 36 482 5 
762 5 482 55 
763 8 483 34 
764 112 483 8 
765 21 428 20 
766 428 481 20 
767 22 426 21 
768 426 428 21 
769 22 484 426 
770 34 427 35 
771 34 483 427 
772 35 438 36 
773 427 438 35 
774 438 482 36 
775 38 430 37 
776 430 484 37 
777 39 469 38 
778 38 469 430 
779 40 412 39 
780 412 469 39 
781 41 462 40 
782 40 462 412 
783 42 432 41 
784 432 462 41 
785 43 420 42 
786 420 432 42 
787 44 448 43 
788 43 448 420 
789 45 423 44 
790 423 448 44 
791 46 476 45 
792 45 476 423 
793 47 425 46 
794 425 476 46 
795 48 477 47 
796 47 477 425 
797 49 414 48 
798 414 477 48 
799 50 450 49 
800 49 450 414 
801 51 415 50 
802 415 450 50 
803 52 454 51 
804 51 454 415 
805 53 456 52 
806 52 456 454 
807 54 417 53 
808 417 456 53 
809 55 465 54 
810 54 465 417 
811 55 482 465 
812 94 466 95 
813 94 481 466 
814 95 419 96 
815 95 466 419 
816 96 459 97 
817 419 459 96 
818 97 437 98 
819 97 459 437 
820 98 413 99 
821 98 437 413 
822 99 478 100 
823 413 478 99 
824 100 416 101 
825 100 478 416 
826 101 449 102 
827 416 449 101 
828 102 440 103 
829 102 449 440 
830 103 418 104 
831 103 440 418 
832 104 445 105 
833 418 445 104 
834 105 461 106 
835 445 461 105 
836 106 421 107 
837 106 461 421 
838 107 474 108 
839 421 474 107 
840 108 422 109 
841 108 474 422 
842 109 457 110 
843 422 457 109 
844 110 424 111 
845 110 457 424 
846 111 467 112 
847 424 467 111 
848 467 483 112 
849 431 469 412 
850 412 470 431 
851 462 485 412 
852 412 485 470 
853 436 478 413 
854 413 488 436 
855 437 475 413 
856 475 488 413 
857 447 477 414 
858 414 491 447 
859 450 463 414 
860 463 491 414 
861 415 451 450 
862 415 452 451 
863 415 454 452 
864 416 478 436 
865 436 489 416 
866 416 473 449 
867 416 489 473 
868 417 486 456 
869 465 471 417 
870 471 486 417 
871 440 441 418 
872 441 442 418 
873 442 445 418 
874 419 468 459 
875 466 494 419 
876 419 494 468 
877 420 433 432 
878 420 435 433 
879 420 448 435 
880 453 474 421 
881 421 487 453 
882 461 472 421 
883 472 487 421 
884 422 474 453 
885 453 479 422 
886 422 492 457 
887 479 492 422 
888 423 476 444 
889 444 490 423 
890 423 464 448 
891 423 490 464 
892 457 458 424 
893 458 493 424 
894 424 493 467 
895 444 476 425 
896 425 480 444 
897 425 477 447 
898 447 480 425 
899 426 429 428 
900 426 430 429 
901 426 484 430 
902 427 439 438 
903 427 467 439 
904 427 483 467 
905 429 466 428 
906 466 481 428 
907 430 431 429 
908 431 494 429 
909 429 494 466 
910 430 469 431 
911 431 470 468 
912 468 494 431 
913 433 434 432 
914 434 462 432 
915 433 488 434 
916 435 436 433 
917 436 488 433 
918 434 475 460 
919 460 485 434 
920 434 485 462 
921 434 488 475 
922 435 489 436 
923 448 464 435 
924 464 489 435 
925 459 460 437 
926 460 475 437 
927 439 465 438 
928 465 482 438 
929 439 471 465 
930 467 493 439 
931 439 493 471 
932 440 443 441 
933 440 449 443 
934 441 480 442 
935 443 444 441 
936 444 480 441 
937 442 446 445 
938 442 447 446 
939 442 480 447 
940 443 490 444 
941 449 473 443 
942 443 473 464 
943 464 490 443 
944 446 461 445 
945 447 491 446 
946 446 472 461 
947 463 472 446 
948 446 491 463 
949 451 463 450 
950 452 453 451 
951 453 487 451 
952 451 487 463 
953 452 479 453 
954 454 455 452 
955 455 479 452 
956 454 456 455 
957 456 486 455 
958 455 492 479 
959 486 492 455 
960 457 492 458 
961 458 486 471 
962 471 493 458 
963 458 492 486 
964 459 468 460 
965 468 470 460 
966 470 485 460 
967 463 487 472 
968 473 489 464 
2 26 2 52
969 5 23 508 
970 36 5 508 
971 26 6 510 
972 6 27 510 
973 29 7 509 
974 7 30 509 
975 33 8 511 
976 8 34 511 
977 23 24 503 
978 23 503 508 
979 24 25 495 
980 24 495 503 
981 25 26 505 
982 495 25 505 
983 505 26 510 
984 27 28 498 
985 27 498 510 
986 28 29 501 
987 498 28 501 
988 501 29 509 
989 30 31 504 
990 30 504 509 
991 31 32 496 
992 31 496 504 
993 32 33 506 
994 496 32 506 
995 506 33 511 
996 34 35 497 
997 34 497 511 
998 35 36 499 
999 497 35 499 
1000 499 36 508 
1001 503 495 507 
1002 495 505 507 
1003 504 496 512 
1004 496 506 512 
1005 497 499 500 
1006 497 500 506 
1007 497 506 511 
1008 498 501 502 
1009 498 502 505 
1010 498 505 510 
1011 500 499 503 
1012 503 499 508 
1013 500 503 507 
1014 506 500 512 
1015 500 507 512 
1016 502 501 504 
1017 504 501 509 
1018 502 504 512 
1019 505 502 507 
1020 507 502 512 
3 1 4 2077
1021 290 551 321 599 
1022 520 571 355 578 
1023 474 537 364 545 
1024 355 520 555 571 
1025 470 560 527 620 
1026 290 321 551 559 
1027 389 289 555 559 
1028 353 545 537 571 
1029 355 555 520 559 
1030 353 356 545 571 
1031 433 549 435 587 
1032 117 540 426 562 
1033 190 260 241 530 
1034 386 565 558 582 
1035 353 364 537 545 
1036 415 525 139 550 
1037 134 260 190 530 
1038 254 548 553 599 
1039 470 468 560 620 
1040 484 117 426 562 
1041 355 559 520 578 
1042 435 549 532 587 
1043 433 524 549 587 
1044 488 433 524 549 
1045 488 549 524 601 
1046 386 337 565 582 
1047 354 355 571 578 
1048 353 356 364 545 
1049 530 551 259 599 
1050 259 551 290 599 
1051 519 580 250 612 
1052 516 586 564 604 
1053 525 537 520 573 
1054 484 126 117 562 
1055 254 548 252 553 
1056 389 555 355 559 
1057 134 260 530 567 
1058 527 590 470 620 
1059 254 553 521 599 
1060 474 453 537 545 
1061 290 551 259 559 
1062 520 537 525 571 
1063 258 559 530 567 
1064 250 552 519 612 
1065 358 584 592 615 
1066 194 282 531 543 
1067 358 592 545 615 
1068 259 551 530 559 
1069 515 571 531 585 
1070 292 312 367 528 
1071 194 282 136 531 
1072 521 553 548 599 
1073 520 531 571 585 
1074 353 571 537 578 
1075 490 443 444 575 
1076 519 536 526 572 
1077 250 519 561 580 
1078 258 291 559 567 
1079 248 498 501 561 
1080 183 235 276 531 
1081 453 525 537 545 
1082 367 528 408 563 
1083 426 117 115 540 
1084 214 585 546 611 
1085 183 136 235 531 
1086 489 532 549 603 
1087 498 248 249 561 
1088 538 564 516 586 
1089 484 226 126 562 
1090 439 526 493 629 
1091 516 564 538 604 
1092 235 136 282 531 
1093 433 436 435 549 
1094 280 376 317 529 
1095 519 552 250 561 
1096 257 530 259 599 
1097 517 532 524 566 
1098 521 553 213 569 
1099 183 531 276 567 
1100 353 354 571 578 
1101 426 115 428 540 
1102 515 555 531 571 
1103 497 499 438 600 
1104 213 521 569 576 
1105 292 312 528 558 
1106 498 249 552 561 
1107 381 540 322 620 
1108 491 542 595 613 
1109 488 436 433 549 
1110 438 427 497 600 
1111 558 565 514 582 
1112 524 532 517 549 
1113 527 541 514 565 
1114 529 543 281 580 
1115 546 585 214 594 
1116 436 549 488 601 
1117 229 572 605 621 
1118 429 426 540 562 
1119 520 573 537 578 
1120 496 328 561 624 
1121 520 531 555 571 
1122 491 414 542 613 
1123 319 330 268 535 
1124 278 295 309 555 
1125 453 525 451 537 
1126 543 580 519 612 
1127 526 536 439 605 
1128 257 591 530 599 
1129 204 266 544 610 
1130 288 580 543 612 
1131 514 566 535 582 
1132 516 604 538 626 
1133 470 460 527 560 
1134 415 451 525 550 
1135 451 537 525 550 
1136 329 367 408 563 
1137 239 528 367 563 
1138 229 605 150 621 
1139 499 536 438 600 
1140 529 531 278 543 
1141 213 569 181 576 
1142 139 525 207 550 
1143 450 415 139 550 
1144 518 528 579 622 
1145 439 536 526 629 
1146 514 541 527 583 
1147 559 567 291 616 
1148 535 582 566 593 
1149 521 553 254 591 
1150 254 255 252 548 
1151 342 322 540 620 
1152 536 526 572 605 
1153 522 538 604 626 
1154 139 193 450 550 
1155 322 618 560 620 
1156 528 597 579 622 
1157 443 564 538 575 
1158 517 532 523 549 
1159 386 333 337 582 
1160 537 571 520 578 
1161 288 250 580 612 
1162 268 535 330 614 
1163 453 452 525 545 
1164 529 531 515 615 
1165 522 538 564 604 
1166 130 540 562 574 
1167 536 605 572 621 
1168 381 322 466 620 
1169 496 561 504 624 
1170 292 367 239 528 
1171 251 553 182 591 
1172 270 319 268 535 
1173 526 536 519 557 
1174 366 540 327 574 
1175 537 545 525 571 
1176 444 564 441 602 
1177 207 573 525 628 
1178 213 553 521 591 
1179 566 582 524 593 
1180 204 544 168 610 
1181 523 532 517 539 
1182 139 525 415 594 
1183 354 352 355 578 
1184 527 541 485 598 
1185 280 317 242 529 
1186 529 555 531 615 
1187 536 572 519 621 
1188 524 566 532 587 
1189 531 555 515 615 
1190 342 322 381 540 
1191 536 150 605 621 
1192 526 546 458 625 
1193 444 538 564 602 
1194 288 281 543 580 
1195 514 527 565 579 
1196 355 555 403 571 
1197 227 275 554 568 
1198 517 549 523 588 
1199 197 214 546 611 
1200 353 352 354 578 
1201 251 254 553 591 
1202 570 588 332 593 
1203 521 576 213 591 
1204 429 562 540 620 
1205 470 527 412 590 
1206 194 543 531 611 
1207 558 582 514 614 
1208 526 584 360 630 
1209 322 342 618 620 
1210 525 550 537 573 
1211 207 550 525 573 
1212 431 470 590 620 
1213 547 558 528 565 
1214 523 549 532 603 
1215 172 538 539 575 
1216 442 447 542 556 
1217 528 563 306 597 
1218 288 250 311 580 
1219 484 426 430 562 
1220 306 298 528 597 
1221 328 561 624 630 
1222 242 529 317 555 
1223 278 309 531 555 
1224 466 322 419 620 
1225 437 541 339 601 
1226 226 484 430 562 
1227 476 538 138 575 
1228 437 339 313 601 
1229 516 538 523 539 
1230 381 466 540 620 
1231 293 533 554 568 
1232 518 534 528 622 
1233 258 261 291 567 
1234 241 260 258 530 
1235 185 194 531 611 
1236 553 568 516 581 
1237 515 546 585 611 
1238 130 540 118 562 
1239 172 539 538 596 
1240 429 426 562 590 
1241 368 236 533 570 
1242 329 239 367 563 
1243 514 558 547 565 
1244 525 545 452 625 
1245 524 541 475 601 
1246 515 543 529 572 
1247 114 327 124 574 
1248 209 566 544 627 
1249 387 586 581 604 
1250 134 190 211 530 
1251 534 597 528 622 
1252 520 571 525 585 
1253 321 551 398 599 
1254 204 554 266 610 
1255 489 532 435 549 
1256 444 538 443 564 
1257 515 531 529 611 
1258 130 562 534 574 
1259 271 554 533 570 
1260 529 572 519 584 
1261 491 595 414 613 
1262 408 563 528 574 
1263 282 278 531 543 
1264 392 367 312 528 
1265 523 538 516 586 
1266 514 582 541 583 
1267 517 539 532 607 
1268 475 524 434 541 
1269 261 291 567 616 
1270 187 207 525 628 
1271 360 362 526 630 
1272 194 136 185 531 
1273 526 458 592 625 
1274 515 529 543 611 
1275 496 557 328 624 
1276 182 553 213 591 
1277 545 571 358 615 
1278 453 452 451 525 
1279 119 116 287 617 
1280 529 543 519 572 
1281 258 530 260 567 
1282 195 569 553 596 
1283 265 528 263 547 
1284 514 544 535 566 
1285 295 280 242 529 
1286 443 523 564 575 
1287 387 581 548 604 
1288 256 251 135 591 
1289 536 519 589 621 
1290 258 259 530 559 
1291 470 468 460 560 
1292 414 140 542 613 
1293 547 565 528 579 
1294 525 571 515 585 
1295 258 259 257 530 
1296 142 230 222 544 
1297 266 232 204 544 
1298 276 567 531 616 
1299 327 540 124 574 
1300 397 396 586 603 
1301 292 528 265 558 
1302 555 571 515 615 
1303 563 597 534 617 
1304 253 296 533 581 
1305 539 586 533 588 
1306 531 543 529 611 
1307 548 553 516 581 
1308 198 126 226 562 
1309 533 539 516 586 
1310 462 217 412 527 
1311 515 572 529 584 
1312 523 586 539 588 
1313 361 360 584 630 
1314 523 564 538 586 
1315 339 459 340 541 
1316 541 565 337 582 
1317 437 459 339 541 
1318 513 537 573 578 
1319 227 554 174 568 
1320 477 542 176 602 
1321 328 624 557 630 
1322 265 528 547 558 
1323 342 540 618 620 
1324 298 239 306 528 
1325 544 566 168 610 
1326 253 533 568 581 
1327 538 564 523 575 
1328 295 529 242 555 
1329 528 558 392 565 
1330 477 176 175 602 
1331 146 534 113 562 
1332 333 535 331 582 
1333 134 530 211 567 
1334 522 564 441 619 
1335 524 434 541 598 
1336 118 540 117 562 
1337 135 251 182 591 
1338 453 451 487 537 
1339 119 287 247 563 
1340 315 364 421 537 
1341 476 138 538 602 
1342 197 546 572 611 
1343 270 319 535 570 
1344 522 441 564 602 
1345 273 231 142 547 
1346 255 548 254 599 
1347 317 529 400 555 
1348 523 516 539 586 
1349 312 392 528 558 
1350 488 524 475 601 
1351 328 384 561 630 
1352 530 559 520 567 
1353 566 587 164 607 
1354 514 565 547 579 
1355 443 538 444 575 
1356 181 569 192 576 
1357 334 332 335 593 
1358 183 184 136 531 
1359 276 531 277 616 
1360 390 337 541 565 
1361 217 527 462 598 
1362 460 541 527 560 
1363 357 358 571 615 
1364 541 582 524 583 
1365 331 582 535 593 
1366 277 276 235 531 
1367 521 591 254 599 
1368 340 541 459 560 
1369 513 537 550 573 
1370 192 569 542 576 
1371 421 364 474 537 
1372 451 487 537 550 
1373 207 212 187 525 
1374 525 545 515 571 
1375 429 590 562 620 
1376 581 586 516 604 
1377 537 550 487 595 
1378 204 232 222 544 
1379 532 566 517 607 
1380 205 420 532 587 
1381 332 588 335 593 
1382 376 529 280 580 
1383 408 528 343 574 
1384 527 579 514 583 
1385 190 530 241 591 
1386 392 528 565 618 
1387 548 581 516 604 
1388 227 275 137 554 
1389 244 137 275 554 
1390 515 585 546 594 
1391 152 572 229 621 
1392 317 376 400 529 
1393 125 113 534 562 
1394 321 398 372 599 
1395 518 528 565 579 
1396 530 573 520 578 
1397 148 226 430 562 
1398 360 361 362 630 
1399 452 415 451 525 
1400 282 278 235 531 
1401 446 542 447 556 
1402 458 546 486 625 
1403 172 539 170 575 
1404 187 525 585 628 
1405 369 533 377 586 
1406 211 567 530 573 
1407 517 588 570 593 
1408 306 528 239 563 
1409 119 287 563 617 
1410 356 358 545 571 
1411 272 533 271 554 
1412 212 187 525 585 
1413 434 485 541 598 
1414 209 583 566 627 
1415 392 558 386 565 
1416 442 446 447 556 
1417 520 559 555 616 
1418 293 272 533 568 
1419 140 176 542 613 
1420 473 523 443 575 
1421 444 538 476 575 
1422 253 533 272 568 
1423 533 586 369 588 
1424 300 570 535 610 
1425 322 560 419 620 
1426 441 602 522 619 
1427 251 256 254 591 
1428 437 313 413 601 
1429 174 554 539 568 
1430 139 212 207 525 
1431 355 403 354 571 
1432 239 265 292 528 
1433 150 536 589 621 
1434 329 285 239 563 
1435 164 587 221 607 
1436 113 146 123 534 
1437 415 525 452 594 
1438 551 577 398 599 
1439 332 570 369 588 
1440 356 357 358 571 
1441 130 125 534 562 
1442 273 547 142 627 
1443 366 124 327 540 
1444 566 583 163 587 
1445 333 331 336 582 
1446 209 168 544 566 
1447 447 491 414 542 
1448 474 364 326 545 
1449 115 117 118 540 
1450 415 450 451 550 
1451 328 384 373 561 
1452 204 168 167 610 
1453 221 587 532 607 
1454 203 229 572 605 
1455 542 556 446 595 
1456 400 555 529 615 
1457 170 575 539 607 
1458 323 416 549 603 
1459 430 562 426 590 
1460 230 544 142 627 
1461 142 222 273 544 
1462 473 443 523 603 
1463 482 438 499 536 
1464 485 527 460 541 
1465 532 587 566 607 
1466 272 253 296 533 
1467 336 582 331 593 
1468 513 573 530 578 
1469 508 225 482 536 
1470 232 273 222 544 
1471 252 310 253 581 
1472 272 271 533 570 
1473 225 508 149 536 
1474 346 577 556 619 
1475 517 523 539 588 
1476 167 168 566 610 
1477 281 295 278 529 
1478 488 434 475 524 
1479 516 553 569 596 
1480 369 570 533 588 
1481 344 392 386 565 
1482 288 311 281 580 
1483 324 440 564 619 
1484 387 377 581 586 
1485 324 418 440 619 
1486 443 564 523 603 
1487 393 398 577 599 
1488 521 530 591 599 
1489 520 559 530 578 
1490 547 579 528 597 
1491 532 539 575 607 
1492 408 385 563 574 
1493 318 369 368 533 
1494 519 543 529 580 
1495 543 572 515 611 
1496 527 560 518 620 
1497 525 452 594 625 
1498 577 604 522 619 
1499 320 294 372 599 
1500 375 324 440 564 
1501 331 570 332 593 
1502 518 560 527 565 
1503 375 440 449 564 
1504 321 372 234 599 
1505 526 515 546 625 
1506 470 460 485 527 
1507 139 212 525 594 
1508 273 142 544 627 
1509 514 565 541 582 
1510 126 198 121 562 
1511 520 567 559 616 
1512 325 376 280 580 
1513 523 532 539 575 
1514 508 482 499 536 
1515 269 544 535 606 
1516 391 551 321 559 
1517 392 343 528 618 
1518 333 535 582 614 
1519 139 207 193 550 
1520 516 569 553 626 
1521 320 548 294 599 
1522 197 546 203 572 
1523 319 331 330 535 
1524 528 343 574 618 
1525 442 602 441 619 
1526 439 600 536 629 
1527 227 137 174 554 
1528 324 345 418 619 
1529 318 533 274 581 
1530 257 241 530 591 
1531 346 556 577 609 
1532 320 371 245 548 
1533 131 412 217 527 
1534 527 560 541 565 
1535 234 290 321 599 
1536 167 566 607 610 
1537 567 573 211 628 
1538 257 241 258 530 
1539 521 551 530 599 
1540 172 171 539 596 
1541 526 592 515 625 
1542 346 604 577 619 
1543 444 443 441 564 
1544 536 557 500 589 
1545 532 549 524 587 
1546 533 554 517 570 
1547 408 392 343 528 
1548 477 175 425 602 
1549 515 525 594 625 
1550 500 589 557 624 
1551 306 563 287 617 
1552 135 182 213 591 
1553 161 579 527 583 
1554 515 545 525 625 
1555 434 488 433 524 
1556 213 206 181 569 
1557 204 167 554 610 
1558 429 426 428 540 
1559 191 142 231 547 
1560 476 538 444 602 
1561 164 566 163 587 
1562 195 173 569 596 
1563 166 566 164 607 
1564 309 531 555 616 
1565 396 370 586 588 
1566 527 579 158 590 
1567 489 435 436 549 
1568 267 535 269 544 
1569 131 412 527 590 
1570 114 130 122 574 
1571 331 535 570 593 
1572 527 583 541 598 
1573 300 271 570 610 
1574 375 564 449 603 
1575 126 121 117 562 
1576 210 530 190 591 
1577 362 557 526 630 
1578 203 197 214 546 
1579 195 173 206 569 
1580 186 585 214 611 
1581 463 487 550 595 
1582 231 262 191 597 
1583 514 583 579 627 
1584 536 557 526 629 
1585 280 237 325 580 
1586 541 583 524 598 
1587 320 245 294 548 
1588 533 581 377 586 
1589 167 607 554 610 
1590 278 309 277 531 
1591 538 539 516 596 
1592 412 485 462 527 
1593 530 551 513 578 
1594 528 534 518 574 
1595 389 355 402 559 
1596 370 369 586 588 
1597 243 194 144 543 
1598 429 430 426 590 
1599 203 572 546 605 
1600 159 158 527 579 
1601 210 211 530 576 
1602 210 213 576 591 
1603 161 579 583 627 
1604 527 518 565 579 
1605 556 577 522 619 
1606 263 547 528 597 
1607 433 434 524 598 
1608 368 533 369 570 
1609 283 306 287 617 
1610 293 533 272 554 
1611 442 542 447 602 
1612 366 327 411 574 
1613 138 476 175 602 
1614 148 198 226 562 
1615 523 539 538 575 
1616 517 524 549 593 
1617 300 270 268 535 
1618 403 355 389 555 
1619 233 279 289 559 
1620 377 369 318 533 
1621 519 557 536 589 
1622 238 553 252 568 
1623 309 277 531 616 
1624 174 169 539 554 
1625 194 243 282 543 
1626 462 527 485 598 
1627 541 560 390 565 
1628 392 565 344 618 
1629 435 489 464 532 
1630 391 398 321 551 
1631 211 190 210 530 
1632 524 517 566 593 
1633 257 254 591 599 
1634 306 283 298 597 
1635 377 533 318 581 
1636 470 431 468 620 
1637 271 554 570 610 
1638 331 535 319 570 
1639 204 222 168 544 
1640 114 124 130 574 
1641 365 549 478 601 
1642 146 154 123 534 
1643 265 558 547 606 
1644 515 525 585 594 
1645 208 567 211 628 
1646 298 263 265 528 
1647 532 575 170 607 
1648 267 544 266 610 
1649 539 554 533 568 
1650 530 551 521 576 
1651 245 548 371 581 
1652 516 539 533 568 
1653 525 573 520 628 
1654 149 508 503 536 
1655 401 529 580 584 
1656 534 563 528 597 
1657 288 281 307 543 
1658 527 518 590 620 
1659 125 113 123 534 
1660 536 600 557 629 
1661 464 443 490 575 
1662 526 557 362 629 
1663 431 470 412 590 
1664 231 191 547 597 
1665 474 326 422 545 
1666 526 546 515 572 
1667 285 306 239 563 
1668 274 533 296 581 
1669 479 452 545 625 
1670 513 551 530 576 
1671 161 159 527 579 
1672 451 463 487 550 
1673 535 514 582 614 
1674 519 572 526 584 
1675 360 592 526 629 
1676 293 554 275 568 
1677 515 572 546 611 
1678 144 243 543 612 
1679 393 548 320 599 
1680 166 164 221 607 
1681 546 572 526 605 
1682 281 280 529 580 
1683 130 534 563 574 
1684 433 524 587 598 
1685 465 482 225 536 
1686 372 393 320 599 
1687 310 252 255 548 
1688 420 435 448 532 
1689 236 272 274 533 
1690 353 364 315 537 
1691 538 569 173 596 
1692 360 314 592 629 
1693 382 385 327 574 
1694 124 540 130 574 
1695 535 566 517 593 
1696 515 571 545 615 
1697 266 554 301 610 
1698 205 532 221 587 
1699 358 584 360 592 
1700 219 553 568 596 
1701 115 481 428 540 
1702 370 369 377 586 
1703 524 583 566 587 
1704 456 189 546 605 
1705 337 344 386 565 
1706 172 171 170 539 
1707 316 379 461 556 
1708 517 570 554 610 
1709 203 229 152 572 
1710 209 165 168 566 
1711 389 289 317 555 
1712 493 471 458 526 
1713 401 529 376 580 
1714 517 566 535 610 
1715 351 353 537 578 
1716 461 445 316 556 
1717 533 539 517 554 
1718 525 520 585 628 
1719 210 213 181 576 
1720 263 528 298 597 
1721 516 568 533 581 
1722 491 542 447 595 
1723 521 576 551 608 
1724 397 396 370 586 
1725 414 595 550 613 
1726 131 527 158 590 
1727 234 372 294 599 
1728 381 481 406 540 
1729 453 479 452 545 
1730 515 526 584 592 
1731 434 485 460 541 
1732 395 339 541 601 
1733 130 118 125 562 
1734 375 397 564 603 
1735 519 580 529 584 
1736 346 577 348 609 
1737 523 588 549 603 
1738 154 123 534 617 
1739 130 563 122 574 
1740 214 585 212 594 
1741 244 266 137 554 
1742 513 551 576 608 
1743 163 587 583 598 
1744 244 275 293 554 
1745 414 550 140 613 
1746 143 221 205 532 
1747 193 140 414 550 
1748 210 576 530 591 
1749 421 474 453 537 
1750 481 115 129 540 
1751 526 592 458 629 
1752 399 323 365 549 
1753 172 138 538 575 
1754 450 193 414 550 
1755 416 436 478 549 
1756 481 129 406 540 
1757 273 544 606 627 
1758 273 606 547 627 
1759 424 374 314 592 
1760 390 541 340 560 
1761 346 347 556 609 
1762 542 569 192 602 
1763 447 542 446 595 
1764 456 417 189 605 
1765 341 390 560 565 
1766 442 480 441 602 
1767 485 412 470 527 
1768 257 297 254 599 
1769 530 559 551 578 
1770 220 579 597 622 
1771 143 532 448 575 
1772 392 408 367 528 
1773 443 449 564 603 
1774 210 179 211 576 
1775 220 579 547 597 
1776 476 425 175 602 
1777 293 253 272 568 
1778 366 411 540 574 
1779 360 584 526 592 
1780 360 526 362 629 
1781 267 535 544 610 
1782 424 458 592 629 
1783 526 572 515 584 
1784 137 266 204 554 
1785 271 301 554 610 
1786 174 568 539 596 
1787 352 559 355 578 
1788 273 544 299 606 
1789 392 344 343 618 
1790 353 354 356 571 
1791 520 567 531 628 
1792 282 307 278 543 
1793 464 473 443 575 
1794 178 550 207 573 
1795 269 606 535 614 
1796 516 569 538 596 
1797 465 225 199 536 
1798 401 584 580 630 
1799 296 274 272 533 
1800 395 313 339 601 
1801 424 592 314 629 
1802 534 562 146 622 
1803 516 553 548 626 
1804 352 391 355 559 
1805 219 553 145 568 
1806 387 378 586 604 
1807 500 557 536 600 
1808 517 539 533 588 
1809 212 585 525 594 
1810 374 424 457 592 
1811 477 447 414 542 
1812 152 229 150 621 
1813 518 534 562 574 
1814 265 263 264 547 
1815 352 391 559 578 
1816 435 532 420 587 
1817 503 149 536 589 
1818 131 159 158 527 
1819 382 563 385 574 
1820 447 542 477 602 
1821 530 567 520 573 
1822 518 579 527 590 
1823 186 214 197 611 
1824 209 168 230 544 
1825 153 147 495 589 
1826 272 533 236 570 
1827 416 489 549 603 
1828 411 342 540 574 
1829 217 162 527 598 
1830 148 562 430 590 
1831 333 331 535 614 
1832 337 395 541 582 
1833 520 531 567 616 
1834 489 436 416 549 
1835 548 553 521 626 
1836 399 323 549 603 
1837 290 402 321 559 
1838 415 454 188 594 
1839 161 527 162 583 
1840 139 415 188 594 
1841 417 133 189 605 
1842 253 238 252 568 
1843 250 561 311 580 
1844 214 186 212 585 
1845 265 547 264 606 
1846 522 564 538 602 
1847 518 562 540 574 
1848 487 472 537 595 
1849 346 348 347 609 
1850 339 340 390 541 
1851 300 267 271 610 
1852 239 298 265 528 
1853 251 238 182 553 
1854 466 481 381 540 
1855 195 553 219 596 
1856 372 398 393 599 
1857 456 546 189 594 
1858 202 572 543 611 
1859 459 541 460 560 
1860 478 549 436 601 
1861 225 149 199 536 
1862 215 538 138 602 
1863 514 579 547 627 
1864 538 569 516 626 
1865 179 573 576 613 
1866 469 131 218 590 
1867 191 262 141 597 
1868 167 168 165 566 
1869 337 395 390 541 
1870 269 267 300 535 
1871 191 142 547 627 
1872 548 393 577 599 
1873 165 209 163 566 
1874 341 565 560 618 
1875 350 551 391 578 
1876 270 535 300 570 
1877 533 570 517 588 
1878 171 174 539 596 
1879 173 538 215 569 
1880 351 352 353 578 
1881 421 453 487 537 
1882 334 399 394 549 
1883 387 378 377 586 
1884 266 267 232 544 
1885 495 147 503 589 
1886 342 540 574 618 
1887 520 531 585 628 
1888 264 231 273 547 
1889 317 289 242 555 
1890 113 121 198 562 
1891 551 559 391 578 
1892 529 584 401 615 
1893 163 566 209 583 
1894 161 160 579 627 
1895 526 519 584 630 
1896 293 272 271 554 
1897 458 493 526 629 
1898 544 535 566 610 
1899 359 584 358 615 
1900 202 197 572 611 
1901 564 604 388 619 
1902 247 287 306 563 
1903 543 572 202 621 
1904 334 549 394 593 
1905 258 291 259 559 
1906 215 192 569 602 
1907 502 561 552 624 
1908 528 563 534 574 
1909 300 535 267 610 
1910 461 556 379 623 
1911 209 544 230 627 
1912 179 178 573 613 
1913 517 570 535 593 
1914 348 398 551 577 
1915 120 130 534 563 
1916 456 189 188 594 
1917 217 162 131 527 
1918 143 170 532 575 
1919 166 165 164 566 
1920 374 457 326 592 
1921 167 566 166 607 
1922 496 506 328 557 
1923 318 274 371 581 
1924 120 563 534 617 
1925 300 535 268 614 
1926 281 237 280 580 
1927 419 340 459 560 
1928 503 147 149 589 
1929 161 159 162 527 
1930 232 299 273 544 
1931 200 155 597 617 
1932 330 535 331 614 
1933 531 585 184 611 
1934 534 597 155 617 
1935 322 340 419 560 
1936 507 589 500 624 
1937 280 90 317 376 
1938 175 215 138 602 
1939 145 182 238 553 
1940 291 279 559 616 
1941 191 220 547 597 
1942 113 198 146 562 
1943 564 586 397 604 
1944 499 503 508 536 
1945 490 444 423 575 
1946 515 594 546 625 
1947 264 547 273 606 
1948 318 368 82 274 
1949 131 469 412 590 
1950 238 145 553 568 
1951 547 558 514 606 
1952 454 188 51 415 
1953 521 553 569 626 
1954 522 556 542 608 
1955 454 456 188 594 
1956 241 190 68 260 
1957 236 82 368 274 
1958 300 269 535 614 
1959 251 256 135 66 
1960 535 544 514 606 
1961 348 393 398 577 
1962 149 150 536 589 
1963 316 379 105 461 
1964 415 188 51 139 
1965 325 401 376 580 
1966 145 219 195 553 
1967 286 311 561 580 
1968 109 326 374 457 
1969 134 68 190 260 
1970 185 136 184 531 
1971 146 155 154 534 
1972 461 105 316 445 
1973 542 556 513 608 
1974 440 102 324 375 
1975 537 351 578 623 
1976 336 593 394 601 
1977 180 573 207 628 
1978 410 328 557 630 
1979 50 450 415 139 
1980 166 167 165 566 
1981 526 557 519 630 
1982 280 295 281 529 
1983 408 343 385 574 
1984 503 536 500 589 
1985 516 581 533 586 
1986 341 344 390 565 
1987 324 103 440 418 
1988 437 460 459 541 
1989 235 183 70 136 
1990 294 548 255 599 
1991 276 183 70 235 
1992 103 324 345 418 
1993 102 440 449 375 
1994 267 266 301 610 
1995 313 339 437 98 
1996 450 50 193 139 
1997 235 278 277 531 
1998 268 319 80 330 
1999 336 582 593 601 
2000 520 555 531 616 
2001 390 344 337 565 
2002 530 573 513 576 
2003 542 177 576 613 
2004 455 546 456 594 
2005 349 548 577 604 
2006 531 184 585 628 
2007 519 557 589 624 
2008 246 200 262 597 
2009 482 465 438 536 
2010 460 475 434 541 
2011 231 547 263 597 
2012 583 587 524 598 
2013 231 263 262 597 
2014 364 356 326 545 
2015 331 319 332 570 
2016 332 368 369 570 
2017 146 155 534 622 
2018 353 315 351 537 
2019 185 531 184 611 
2020 438 497 35 499 
2021 366 411 342 540 
2022 248 498 28 501 
2023 388 604 346 619 
2024 290 233 402 559 
2025 464 448 435 532 
2026 153 495 505 589 
2027 502 552 589 624 
2028 271 267 301 610 
2029 387 371 548 581 
2030 522 569 538 626 
2031 202 197 152 572 
2032 498 248 28 249 
2033 497 438 35 427 
2034 513 556 542 595 
2035 310 548 245 581 
2036 182 251 135 66 
2037 491 447 446 595 
2038 409 380 384 580 
2039 234 259 290 599 
2040 400 529 401 615 
2041 329 408 385 563 
2042 400 376 401 529 
2043 425 447 477 602 
2044 545 515 592 625 
2045 118 130 124 540 
2046 387 371 320 548 
2047 117 21 426 115 
2048 299 267 269 544 
2049 550 573 178 613 
2050 518 528 574 618 
2051 169 539 554 607 
2052 519 580 584 630 
2053 474 422 453 545 
2054 448 532 464 575 
2055 158 590 579 622 
2056 374 360 314 592 
2057 83 371 318 274 
2058 255 294 245 548 
2059 388 564 397 604 
2060 358 326 545 592 
2061 164 165 163 566 
2062 178 207 180 573 
2063 97 437 459 339 
2064 428 426 21 115 
2065 180 179 178 573 
2066 150 229 199 605 
2067 358 359 360 584 
2068 215 175 192 602 
2069 487 463 472 595 
2070 171 539 169 607 
2071 369 335 332 588 
2072 375 397 324 564 
2073 541 582 395 601 
2074 243 307 282 543 
2075 387 548 349 604 
2076 238 275 227 568 
2077 517 535 570 610 
2078 215 569 538 602 
2079 506 383 328 557 
2080 299 544 269 606 
2081 409 580 384 630 
2082 502 552 505 589 
2083 291 279 233 559 
2084 258 260 261 567 
2085 349 548 393 577 
2086 380 561 384 580 
2087 365 394 399 549 
2088 522 604 564 619 
2089 459 97 339 340 
2090 351 537 315 623 
2091 359 401 584 615 
2092 423 444 476 575 
2093 384 580 561 630 
2094 319 268 80 270 
2095 522 577 556 608 
2096 177 542 176 613 
2097 545 592 479 625 
2098 179 180 211 573 
2099 442 447 480 602 
2100 518 565 528 618 
2101 144 194 202 543 
2102 172 196 138 575 
2103 422 545 326 592 
2104 549 588 517 593 
2105 350 348 551 609 
2106 378 397 586 604 
2107 203 546 189 605 
2108 150 199 536 605 
2109 516 548 604 626 
2110 547 579 160 627 
2111 350 348 398 551 
2112 153 505 552 589 
2113 546 594 455 625 
2114 244 301 266 554 
2115 421 315 537 623 
2116 513 550 537 595 
2117 124 406 129 540 
2118 221 143 170 532 
2119 189 546 214 594 
2120 394 593 549 601 
2121 255 245 310 548 
2122 276 260 69 567 
2123 171 174 169 539 
2124 348 577 551 609 
2125 317 400 403 555 
2126 132 587 163 598 
2127 422 326 457 592 
2128 110 374 314 424 
2129 394 549 365 601 
2130 183 276 69 567 
2131 325 91 280 376 
2132 181 206 192 569 
2133 282 194 136 71 
2134 140 177 176 613 
2135 498 249 305 552 
2136 193 178 140 550 
2137 160 547 220 579 
2138 69 260 134 567 
2139 257 259 297 599 
2140 182 251 65 238 
2141 403 555 400 615 
2142 440 443 449 564 
2143 424 110 374 457 
2144 398 391 350 551 
2145 191 141 220 597 
2146 134 183 69 567 
2147 235 282 136 71 
2148 245 371 274 581 
2149 81 368 319 570 
2150 341 560 322 618 
2151 140 550 178 613 
2152 503 500 507 589 
2153 518 562 534 622 
2154 414 491 463 595 
2155 557 600 362 629 
2156 155 154 534 617 
2157 250 286 311 561 
2158 90 242 280 317 
2159 133 203 189 605 
2160 556 608 577 609 
2161 368 81 236 570 
2162 252 251 254 553 
2163 246 200 597 617 
2164 152 197 203 572 
2165 189 188 52 456 
2166 456 188 52 454 
2167 171 170 539 607 
2168 514 535 606 614 
2169 149 150 199 536 
2170 540 562 518 620 
2171 344 565 341 618 
2172 231 58 191 262 
2173 186 184 585 611 
2174 459 419 96 340 
2175 331 332 334 593 
2176 401 361 584 630 
2177 238 227 145 568 
2178 379 315 106 623 
2179 478 313 365 601 
2180 152 202 572 621 
2181 221 532 170 607 
2182 326 109 422 457 
2183 530 576 521 591 
2184 510 498 305 552 
2185 322 96 419 340 
2186 187 180 207 628 
2187 91 280 237 325 
2188 98 437 313 413 
2189 173 172 538 596 
2190 579 590 518 622 
2191 424 458 457 592 
2192 410 384 328 630 
2193 362 557 383 600 
2194 220 597 155 622 
2195 401 580 409 630 
2196 510 223 153 552 
2197 513 537 578 623 
2198 458 424 493 629 
2199 193 49 450 414 
2200 49 193 140 414 
2201 244 62 137 266 
2202 144 543 202 612 
2203 243 307 543 612 
2204 448 43 420 205 
2205 119 247 304 563 
2206 169 554 167 607 
2207 534 155 597 622 
2208 287 119 14 116 
2209 237 286 325 580 
2210 379 106 461 623 
2211 241 67 190 591 
2212 496 512 557 624 
2213 336 395 582 601 
2214 403 571 555 615 
2215 120 125 123 534 
2216 472 537 595 623 
2217 247 119 14 287 
2218 552 561 519 624 
2219 406 366 381 540 
2220 124 366 406 540 
2221 25 495 153 147 
2222 81 319 270 570 
2223 219 568 174 596 
2224 378 388 397 604 
2225 386 338 333 614 
2226 157 158 579 622 
2227 466 428 481 540 
2228 65 145 182 238 
2229 492 592 458 625 
2230 351 609 578 623 
2231 540 518 618 620 
2232 326 356 358 545 
2233 144 194 243 72 
2234 349 387 393 548 
2235 196 143 448 575 
2236 399 396 323 603 
2237 270 236 81 570 
2238 162 583 527 598 
2239 241 256 67 591 
2240 120 534 123 617 
2241 389 317 403 555 
2242 349 577 346 604 
2243 271 301 293 554 
2244 517 554 539 607 
2245 336 394 395 601 
2246 296 253 310 581 
2247 540 518 574 618 
2248 371 83 245 274 
2249 119 304 127 563 
2250 282 243 194 72 
2251 262 200 141 597 
2252 304 285 405 563 
2253 201 223 305 552 
2254 350 551 578 609 
2255 414 463 550 595 
2256 455 486 456 546 
2257 62 204 137 266 
2258 151 153 552 589 
2259 265 308 558 606 
2260 186 185 184 611 
2261 206 173 215 569 
2262 422 479 545 592 
2263 246 57 262 200 
2264 174 137 169 554 
2265 167 137 204 554 
2266 208 134 211 567 
2267 542 576 569 608 
2268 501 302 248 561 
2269 133 189 53 417 
2270 513 578 609 623 
2271 517 554 607 610 
2272 309 295 242 555 
2273 223 510 305 552 
2274 149 147 150 589 
2275 120 130 125 534 
2276 366 342 381 540 
2277 380 325 286 580 
2278 363 362 600 629 
2279 386 558 338 614 
2280 465 439 536 605 
2281 472 421 537 623 
2282 196 448 423 575 
2283 502 589 507 624 
2284 184 183 208 628 
2285 461 595 556 623 
2286 456 53 189 417 
2287 362 410 557 630 
2288 135 190 67 591 
2289 507 502 505 589 
2290 341 322 342 618 
2291 213 182 195 553 
2292 513 576 573 613 
2293 468 459 460 560 
2294 465 536 199 605 
2295 132 164 163 587 
2296 494 466 419 620 
2297 333 330 331 614 
2298 454 415 452 594 
2299 183 567 208 628 
2300 539 568 516 596 
2301 396 397 375 603 
2302 517 607 566 610 
2303 382 127 405 563 
2304 201 552 612 621 
2305 445 556 442 619 
2306 316 347 379 556 
2307 121 118 117 562 
2308 516 568 553 596 
2309 171 219 174 596 
2310 421 106 315 623 
2311 390 395 339 541 
2312 520 573 567 628 
2313 302 501 509 561 
2314 160 191 220 547 
2315 500 503 499 536 
2316 171 169 170 607 
2317 347 316 346 556 
2318 407 509 373 561 
2319 78 338 312 292 
2320 135 67 256 591 
2321 363 362 383 600 
2322 382 122 127 563 
2323 48 140 176 477 
2324 410 328 383 557 
2325 364 108 474 326 
2326 496 504 512 624 
2327 365 100 478 323 
2328 531 515 585 611 
2329 473 449 443 603 
2330 54 133 417 605 
2331 246 597 283 617 
2332 286 561 380 580 
2333 421 461 106 623 
2334 162 159 131 527 
2335 317 389 89 289 
2336 153 505 510 552 
2337 99 313 365 478 
2338 432 420 42 587 
2339 230 168 222 544 
2340 176 177 192 542 
2341 316 346 556 619 
2342 342 574 411 618 
2343 359 400 401 615 
2344 478 413 313 601 
2345 454 455 456 594 
2346 410 383 362 557 
2347 161 583 209 627 
2348 321 402 391 559 
2349 329 405 285 563 
2350 492 479 592 625 
2351 529 515 584 615 
2352 379 556 347 623 
2353 360 362 314 629 
2354 302 407 286 561 
2355 216 547 160 627 
2356 433 587 432 598 
2357 453 422 479 545 
2358 113 125 121 562 
2359 207 178 193 550 
2360 524 582 541 601 
2361 468 494 419 560 
2362 138 476 46 175 
2363 405 127 304 563 
2364 216 191 160 547 
2365 191 216 142 627 
2366 43 448 143 205 
2367 148 156 198 562 
2368 265 264 308 606 
2369 292 338 312 558 
2370 215 173 172 538 
2371 387 377 371 581 
2372 294 255 234 599 
2373 138 215 172 538 
2374 373 509 504 561 
2375 191 547 216 627 
2376 288 543 307 612 
2377 429 540 466 620 
2378 522 538 569 602 
2379 569 576 521 608 
2380 465 439 438 536 
2381 455 486 546 625 
2382 492 458 486 625 
2383 189 214 188 594 
2384 421 487 472 537 
2385 312 386 392 558 
2386 58 141 191 262 
2387 377 318 371 581 
2388 131 158 218 590 
2389 294 85 320 372 
2390 238 64 227 275 
2391 328 31 496 373 
2392 494 419 560 620 
2393 462 432 41 598 
2394 350 578 351 609 
2395 25 495 505 153 
2396 521 548 577 599 
2397 576 608 542 613 
2398 176 175 47 477 
2399 139 188 212 594 
2400 242 289 279 555 
2401 359 358 357 615 
2402 142 222 60 273 
2403 577 608 551 609 
2404 451 450 463 550 
2405 513 573 550 613 
2406 513 608 576 613 
2407 380 286 407 561 
2408 273 59 142 231 
2409 381 95 466 322 
2410 352 351 350 578 
2411 513 542 608 613 
2412 476 444 425 602 
2413 316 556 445 619 
2414 542 513 595 613 
2415 290 259 233 559 
2416 148 156 562 590 
2417 419 466 95 322 
2418 214 189 203 546 
2419 500 557 512 624 
2420 521 577 551 599 
2421 232 60 222 273 
2422 201 305 284 552 
2423 521 551 577 608 
2424 141 200 155 597 
2425 549 593 524 601 
2426 403 357 571 615 
2427 428 466 429 540 
2428 446 556 461 595 
2429 284 552 250 612 
2430 442 445 446 556 
2431 450 414 463 550 
2432 500 506 557 600 
2433 237 286 92 325 
2434 302 509 407 561 
2435 143 196 170 575 
2436 522 569 542 602 
2437 352 350 391 578 
2438 124 129 115 540 
2439 201 151 552 621 
2440 358 374 326 592 
2441 469 431 412 590 
2442 390 340 341 560 
2443 217 462 41 598 
2444 433 435 420 587 
2445 519 543 612 621 
2446 254 256 257 591 
2447 140 48 414 477 
2448 326 108 474 422 
2449 494 560 468 620 
2450 88 389 402 289 
2451 542 569 522 608 
2452 537 513 595 623 
2453 227 145 64 238 
2454 416 478 100 323 
2455 513 551 608 609 
2456 292 78 338 240 
2457 263 231 264 547 
2458 252 238 251 553 
2459 402 87 290 321 
2460 175 476 46 425 
2461 42 132 432 587 
2462 89 242 317 289 
2463 562 590 518 620 
2464 272 236 271 570 
2465 478 99 313 413 
2466 333 336 337 582 
2467 155 200 154 617 
2468 311 237 281 580 
2469 228 144 202 612 
2470 419 459 468 560 
2471 31 504 496 373 
2472 455 594 452 625 
2473 420 205 42 587 
2474 524 593 582 601 
2475 383 557 506 600 
2476 462 40 412 217 
2477 461 446 445 556 
2478 558 606 308 614 
2479 156 146 562 622 
2480 143 448 44 196 
2481 496 512 506 557 
2482 255 254 297 599 
2483 401 409 361 630 
2484 444 441 480 602 
2485 422 492 479 592 
2486 191 142 59 231 
2487 437 475 460 541 
2488 57 141 262 200 
2489 159 157 158 579 
2490 514 606 558 614 
2491 448 423 44 196 
2492 380 92 286 325 
2493 161 216 160 627 
2494 359 401 361 584 
2495 151 147 153 589 
2496 39 469 131 218 
2497 85 294 234 372 
2498 519 572 543 621 
2499 397 388 324 564 
2500 292 240 338 558 
2501 196 172 170 575 
2502 477 175 47 425 
2503 157 579 220 622 
2504 560 565 518 618 
2505 242 279 309 555 
2506 145 195 182 553 
2507 369 370 335 588 
2508 358 360 374 592 
2509 151 589 552 621 
2510 441 418 442 619 
2511 521 577 548 626 
2512 391 402 355 559 
2513 335 370 396 588 
2514 348 346 349 577 
2515 513 608 556 609 
2516 443 440 441 564 
2517 54 417 465 605 
2518 403 357 354 571 
2519 393 387 320 548 
2520 384 380 373 561 
2521 402 87 233 290 
2522 45 476 138 196 
2523 467 600 439 629 
2524 233 88 402 289 
2525 455 454 452 594 
2526 151 153 201 552 
2527 293 275 253 568 
2528 163 583 162 598 
2529 121 198 10 113 
2530 327 124 18 114 
2531 156 562 590 622 
2532 304 247 285 563 
2533 411 574 343 618 
2534 505 502 498 552 
2535 192 206 215 569 
2536 42 205 132 587 
2537 104 316 445 619 
2538 220 141 155 597 
2539 120 122 130 563 
2540 287 246 283 617 
2541 322 341 340 560 
2542 261 567 276 616 
2543 41 432 132 598 
2544 357 356 354 571 
2545 131 412 40 217 
2546 429 466 494 620 
2547 167 169 137 554 
2548 506 512 500 557 
2549 413 488 475 601 
2550 210 135 213 591 
2551 413 478 436 601 
2552 385 382 329 563 
2553 299 232 267 544 
2554 465 471 439 605 
2555 115 118 124 540 
2556 469 412 39 131 
2557 385 343 411 574 
2558 240 558 308 614 
2559 179 576 177 613 
2560 121 125 118 562 
2561 76 285 239 329 
2562 336 334 394 593 
2563 433 432 434 598 
2564 248 286 250 561 
2565 41 132 217 598 
2566 187 585 184 628 
2567 359 361 360 584 
2568 161 160 159 579 
2569 179 181 177 576 
2570 249 250 284 552 
2571 501 502 504 561 
2572 243 288 307 612 
2573 504 561 502 624 
2574 187 186 184 585 
2575 334 336 331 593 
2576 263 298 283 597 
2577 156 146 198 562 
2578 327 385 411 574 
2579 212 186 187 585 
2580 552 519 612 621 
2581 271 270 300 570 
2582 476 45 423 196 
2583 513 578 551 609 
2584 562 518 590 622 
2585 132 432 587 598 
2586 507 495 503 589 
2587 269 308 606 614 
2588 291 233 259 559 
2589 219 145 174 568 
2590 556 513 609 623 
2591 577 604 548 626 
2592 113 198 10 146 
2593 413 436 488 601 
2594 388 349 346 604 
2595 362 361 410 630 
2596 556 609 347 623 
2597 76 239 367 329 
2598 552 589 519 621 
2599 480 447 425 602 
2600 550 595 513 613 
2601 259 234 297 599 
2602 552 519 589 624 
2603 223 201 153 552 
2604 122 120 119 563 
2605 507 500 512 624 
2606 104 345 316 619 
2607 104 445 418 619 
2608 561 580 519 630 
2609 156 590 158 622 
2610 77 312 367 292 
2611 556 595 513 623 
2612 505 498 510 552 
2613 218 148 469 590 
2614 367 77 292 239 
2615 472 595 461 623 
2616 132 163 162 598 
2617 346 345 388 619 
2618 366 124 18 327 
2619 305 249 284 552 
2620 261 276 277 616 
2621 127 122 119 563 
2622 401 325 409 580 
2623 286 237 311 580 
2624 427 439 467 600 
2625 173 171 172 596 
2626 212 188 214 594 
2627 203 133 229 605 
2628 332 319 368 570 
2629 238 253 275 568 
2630 201 552 284 612 
2631 174 145 227 568 
2632 306 285 247 563 
2633 380 407 373 561 
2634 405 329 382 563 
2635 469 38 148 218 
2636 495 507 505 589 
2637 467 439 493 629 
2638 262 283 246 597 
2639 455 492 486 625 
2640 163 209 161 583 
2641 457 492 422 592 
2642 261 260 276 567 
2643 243 144 73 612 
2644 116 120 123 617 
2645 363 404 483 600 
2646 519 624 561 630 
2647 429 431 590 620 
2648 409 325 380 580 
2649 257 256 241 591 
2650 345 104 418 619 
2651 150 589 151 621 
2652 504 509 501 561 
2653 432 433 420 587 
2654 377 378 370 586 
2655 300 268 269 614 
2656 248 302 286 561 
2657 301 244 293 554 
2658 560 618 518 620 
2659 472 461 421 623 
2660 544 514 606 627 
2661 146 156 155 622 
2662 497 427 483 600 
2663 483 467 363 600 
2664 134 208 183 567 
2665 181 179 210 576 
2666 288 284 250 612 
2667 309 555 279 616 
2668 169 167 166 607 
2669 245 274 296 581 
2670 337 336 395 582 
2671 348 349 393 577 
2672 330 338 79 614 
2673 330 79 268 614 
2674 458 492 457 592 
2675 101 375 449 603 
2676 351 347 609 623 
2677 74 201 223 305 
2678 22 484 117 426 
2679 119 15 304 247 
2680 157 160 220 579 
2681 407 93 302 286 
2682 269 240 308 614 
2683 161 209 216 627 
2684 201 73 144 612 
2685 305 498 27 249 
2686 483 497 34 427 
2687 511 497 483 600 
2688 115 481 20 428 
2689 499 482 36 438 
2690 501 302 29 248 
2691 387 349 378 604 
2692 240 265 308 558 
2693 323 375 101 603 
2694 500 497 506 600 
2695 479 455 452 625 
2696 152 228 202 621 
2697 448 464 423 575 
2698 255 297 234 599 
2699 342 411 343 618 
2700 205 221 164 587 
2701 135 210 190 591 
2702 148 158 156 590 
2703 338 558 240 614 
2704 498 305 27 510 
2705 497 483 34 511 
2706 481 115 20 129 
2707 386 312 338 558 
2708 547 606 514 627 
2709 484 126 22 117 
2710 304 127 15 119 
2711 302 501 29 509 
2712 482 499 36 508 
2713 569 522 608 626 
2714 480 425 444 602 
2715 200 246 303 617 
2716 221 170 166 607 
2717 93 407 380 286 
2718 417 486 471 605 
2719 55 465 482 225 
2720 151 150 147 589 
2721 521 569 608 626 
2722 148 430 469 590 
2723 111 314 363 629 
2724 406 381 94 481 
2725 264 273 299 606 
2726 173 195 219 596 
2727 314 111 424 629 
2728 338 240 79 614 
2729 216 230 142 627 
2730 357 403 400 615 
2731 128 154 224 617 
2732 350 347 348 609 
2733 446 461 472 595 
2734 243 73 284 612 
2735 200 303 224 617 
2736 363 112 483 404 
2737 179 177 178 613 
2738 430 38 148 469 
2739 303 116 128 617 
2740 416 323 101 603 
2741 351 379 347 623 
2742 344 341 343 618 
2743 303 287 116 617 
2744 370 378 397 586 
2745 404 506 511 600 
2746 363 600 467 629 
2747 521 608 577 626 
2748 519 557 624 630 
2749 223 153 26 510 
2750 163 161 162 583 
2751 16 127 382 122 
2752 431 430 429 590 
2753 16 127 405 382 
2754 418 445 442 619 
2755 225 55 465 199 
2756 316 345 346 619 
2757 466 94 381 481 
2758 270 271 236 570 
2759 30 373 407 509 
2760 201 284 73 612 
2761 157 156 158 622 
2762 305 74 201 284 
2763 126 226 9 198 
2764 246 303 56 200 
2765 132 162 217 598 
2766 394 365 313 601 
2767 79 240 268 614 
2768 373 30 504 509 
2769 225 508 23 149 
2770 209 230 216 627 
2771 483 467 112 363 
2772 186 197 185 611 
2773 394 313 395 601 
2774 383 506 404 600 
2775 197 202 185 611 
2776 577 608 522 626 
2777 154 128 123 617 
2778 522 604 577 626 
2779 351 315 379 623 
2780 283 262 263 597 
2781 449 416 101 603 
2782 111 363 467 629 
2783 200 303 56 224 
2784 431 494 468 620 
2785 199 229 133 605 
2786 303 116 13 128 
2787 149 508 23 503 
2788 13 287 116 303 
2789 128 154 12 224 
2790 347 350 351 609 
2791 198 9 126 121 
2792 150 151 152 621 
2793 153 505 26 510 
2794 205 164 132 587 
2795 304 285 75 405 
2796 140 178 177 613 
2797 240 292 265 558 
2798 434 462 485 598 
2799 417 471 465 605 
2800 291 261 279 616 
2801 405 285 75 329 
2802 157 220 155 622 
2803 333 338 330 614 
2804 416 473 489 603 
2805 159 160 157 579 
2806 504 502 512 624 
2807 404 33 511 506 
2808 154 12 123 128 
2809 170 169 166 607 
2810 467 424 111 629 
2811 429 494 431 620 
2812 19 124 406 129 
2813 280 91 90 376 
2814 136 70 235 71 
2815 368 82 236 81 
2816 105 104 316 445 
2817 464 490 423 575 
2818 33 404 383 506 
2819 103 345 104 418 
2820 415 51 50 139 
2821 50 49 450 193 
2822 171 173 219 596 
2823 51 52 188 454 
2824 241 190 67 68 
2825 134 69 68 260 
2826 483 404 511 600 
2827 67 135 256 66 
2828 183 70 69 276 
2829 102 103 440 324 
2830 268 80 79 330 
2831 83 318 82 274 
2832 339 97 437 98 
2833 379 105 461 106 
2834 314 110 424 111 
2835 218 158 148 590 
2836 52 53 189 456 
2837 19 124 366 406 
2838 110 109 374 457 
2839 117 21 22 426 
2840 96 97 459 340 
2841 180 187 208 628 
2842 101 102 449 375 
2843 35 34 497 427 
2844 28 27 498 249 
2845 96 419 95 322 
2846 428 21 20 115 
2847 248 28 29 501 
2848 438 35 36 499 
2849 396 375 323 603 
2850 71 282 194 72 
2851 14 15 119 247 
2852 59 58 191 231 
2853 462 434 432 598 
2854 357 400 359 615 
2855 66 182 251 65 
2856 81 80 270 319 
2857 363 383 404 600 
2858 349 388 378 604 
2859 64 145 65 238 
2860 363 314 362 629 
2861 430 431 469 590 
2862 310 245 296 581 
2863 287 14 13 116 
2864 128 224 303 617 
2865 201 144 228 612 
2866 504 31 30 373 
2867 284 288 243 612 
2868 137 63 62 244 
2869 48 49 140 414 
2870 108 326 109 422 
2871 106 107 421 315 
2872 101 416 100 323 
2873 491 446 463 595 
2874 317 90 242 89 
2875 432 42 41 132 
2876 342 343 341 618 
2877 313 99 98 413 
2878 187 184 208 628 
2879 91 237 92 325 
2880 243 144 72 73 
2881 133 53 54 417 
2882 149 23 24 503 
2883 269 308 264 606 
2884 371 83 84 245 
2885 200 224 154 617 
2886 79 338 78 240 
2887 111 112 467 363 
2888 382 17 16 122 
2889 46 47 175 425 
2890 246 56 57 200 
2891 234 86 85 372 
2892 268 240 269 614 
2893 58 57 141 262 
2894 92 93 380 286 
2895 448 44 43 143 
2896 483 427 467 600 
2897 157 155 156 622 
2898 10 9 198 121 
2899 26 25 505 153 
2900 510 6 223 305 
2901 1 226 126 484 
2902 7 407 302 509 
2903 8 511 483 404 
2904 5 482 508 225 
2905 95 94 381 466 
2906 481 4 406 129 
2907 128 2 303 224 
2908 285 76 75 329 
2909 367 77 239 76 
2910 304 3 127 405 
2911 402 87 88 233 
2912 40 39 412 131 
2913 62 61 204 266 
2914 123 11 12 154 
2915 384 410 361 630 
2916 495 25 24 147 
2917 55 54 465 199 
2918 74 73 201 284 
2919 420 43 42 205 
2920 148 37 38 430 
2921 277 279 261 616 
2922 151 228 152 621 
2923 472 463 446 595 
2924 269 264 299 606 
2925 32 33 383 506 
2926 18 19 124 366 
2927 423 45 44 196 
2928 467 493 424 629 
2929 60 59 142 273 
2930 496 32 31 328 
2931 123 128 116 617 
2932 361 409 384 630 
2933 462 41 40 217 
2934 511 506 497 600 
2935 449 473 416 603 
2936 309 279 277 616 
2937 492 455 479 625 
2938 510 27 6 305 
2939 302 29 7 509 
2940 126 22 1 484 
2941 36 5 482 508 
2942 34 8 511 483 
2943 303 246 287 617 
2944 2 56 303 224 
2945 18 17 327 114 
2946 99 365 100 478 
2947 474 107 108 364 
2948 481 20 4 129 
2949 61 60 222 232 
2950 47 48 176 477 
2951 320 85 294 84 
2952 127 15 3 304 
2953 113 10 11 146 
2954 26 6 223 510 
2955 312 77 78 292 
2956 3 16 127 405 
2957 128 12 2 224 
2958 7 30 407 509 
2959 512 502 507 624 
2960 6 74 223 305 
2961 8 483 112 404 
2962 476 46 45 138 
2963 4 406 94 481 
2964 226 1 37 484 
2965 7 407 93 302 
2966 9 1 226 126 
2967 508 23 5 225 
2968 5 55 482 225 
2969 511 8 33 404 
2970 13 2 303 128 
2971 4 19 406 129 
2972 227 64 63 275 
2973 86 290 87 321 
2974 75 3 304 405 
2975 389 88 89 289 
2976 39 38 469 218 
2977 555 278 529 531 
2978 555 529 278 295 
2979 592 615 515 545 
2980 515 615 592 584 
2981 555 279 559 289 
2982 555 559 279 616 
2983 526 471 439 493 
2984 526 439 471 605 
2985 581 252 548 553 
2986 581 548 252 310 
2987 543 281 278 529 
2988 543 278 281 307 
2989 122 574 327 114 
2990 569 195 213 206 
2991 569 213 195 553 
2992 561 498 502 552 
2993 561 502 498 501 
2994 561 249 250 248 
2995 561 250 249 552 
2996 600 499 500 497 
2997 600 500 499 536 
2998 306 597 617 283 
2999 617 597 306 563 
3000 600 438 439 536 
3001 600 439 438 427 
3002 617 119 120 563 
3003 617 120 119 116 
3004 252 568 581 253 
3005 581 568 252 553 
3006 586 603 564 397 
3007 564 603 586 523 
3008 192 576 177 181 
3009 177 576 192 542 
3010 574 382 122 327 
3011 574 122 382 563 
3012 576 211 573 179 
3013 576 573 211 530 
3014 335 593 549 334 
3015 549 593 335 588 
3016 549 399 335 334 
3017 602 176 192 542 
3018 602 192 176 175 
3019 526 605 458 546 
3020 526 458 605 471 
3021 486 458 605 546 
3022 486 605 458 471 
3023 122 327 17 114 
3024 122 17 327 382 
3025 619 602 556 442 
3026 619 556 602 522 
3027 542 556 602 442 
3028 542 602 556 522 
3029 421 364 107 474 
3030 107 364 421 315 
3031 601 437 475 413 
3032 601 475 437 541 
3033 323 478 549 416 
3034 323 549 478 365 
3035 619 440 441 418 
3036 619 441 440 564 
3037 477 140 542 414 
3038 477 542 140 176 
3039 627 566 514 583 
3040 627 514 566 544 
3041 274 368 533 318 
3042 274 533 368 236 
3043 611 194 202 185 
3044 611 202 194 543 
3045 402 289 559 233 
3046 559 289 402 389 
3047 619 324 388 564 
3048 619 388 324 345 
3049 245 320 84 371 
3050 245 84 320 294 
3051 211 628 180 208 
3052 180 628 211 573 
3053 628 183 531 184 
3054 628 531 183 567 
3055 275 137 63 227 
3056 275 63 137 244 
3057 321 234 86 290 
3058 321 86 234 372 
3059 583 582 566 514 
3060 583 566 582 524 
3061 448 205 532 143 
3062 532 205 448 420 
3063 496 373 561 328 
3064 561 373 496 504 
3065 503 147 24 149 
3066 24 147 503 495 
3067 605 456 486 546 
3068 605 486 456 417 
3069 202 612 621 228 
3070 621 612 202 543 
3071 476 196 575 138 
3072 575 196 476 423 
3073 614 386 582 333 
3074 614 582 386 558 
3075 506 328 32 496 
3076 32 328 506 383 
3077 123 146 11 154 
3078 11 146 123 113 
3079 204 232 61 222 
3080 61 232 204 266 
3081 605 54 199 465 
3082 605 199 54 133 
3083 621 201 228 612 
3084 621 228 201 151 
3085 226 430 37 148 
3086 37 430 226 484 
3087 586 603 588 523 
3088 588 603 586 396 
3089 489 473 532 603 
3090 489 532 473 464 
3091 575 473 532 464 
3092 473 523 532 603 
3093 532 523 473 575 
3094 549 603 396 399 
3095 396 603 549 588 
3096 396 335 549 399 
3097 549 335 396 588 
$EndElements
