$MeshFormat
4.1 0 8
$EndMeshFormat
$PhysicalNames
6
1 2 "Circle"
1 3 "A"
1 4 "B"
1 5 "C"
1 6 "D"
2 1 "Domain"
$EndPhysicalNames
$Entities
9 8 1 0
1 0 0 0 0 
2 1000 0 0 0 
3 1000 400 0 0 
4 0 400 0 0 
5 500 200 0 0 
6 575 200 0 0 
7 500 275 0 0 
8 425 200 0 0 
9 500 125 0 0 
1 0 0 0 1000 0 0 1 3 2 1 -2 
2 1000 0 0 1000 400 0 1 4 2 2 -3 
3 0 400 0 1000 400 0 1 5 2 3 -4 
4 0 0 0 0 400 0 1 6 2 4 -1 
5 500 200 0 575 275 0 1 2 2 6 -7 
6 425 200 0 500 275 0 1 2 2 7 -8 
7 425 125 0 500 200 0 1 2 2 8 -9 
8 500 125 0 575 200 0 1 2 2 9 -6 
1 0 0 0 1000 400 0 1 1 8 1 2 3 4 -8 -7 -6 -5 
$EndEntities
$Nodes
17 751 1 751
0 1 0 1
1
0 0 0
0 2 0 1
2
1000 0 0
0 3 0 1
3
1000 400 0
0 4 0 1
4
0 400 0
0 6 0 1
5
575 200 0
0 7 0 1
6
500 275 0
0 8 0 1
7
425 200 0
0 9 0 1
8
500 125 0
1 1 0 39
9
10
11
12
13
14
15
16
17
18
19
20
21
22
23
24
25
26
27
28
29
30
31
32
33
34
35
36
37
38
39
40
41
42
43
44
45
46
47
24.99999999998769 0 0
49.99999999996728 0 0
74.99999999995588 0 0
99.99999999996503 0 0
124.9999999999714 0 0
149.9999999999178 0 0
174.9999999998559 0 0
199.999999999794 0 0
224.9999999997321 0 0
249.9999999996702 0 0
274.9999999996682 0 0
299.9999999996773 0 0
324.9999999996865 0 0
349.9999999996956 0 0
374.9999999997048 0 0
399.9999999997139 0 0
424.9999999997231 0 0
449.9999999997322 0 0
474.9999999997414 0 0
499.9999999997617 0 0
524.9999999998263 0 0
549.9999999998354 0 0
574.9999999998445 0 0
599.9999999998537 0 0
624.9999999998628 0 0
649.9999999998719 0 0
674.9999999998811 0 0
699.9999999998903 0 0
724.9999999998994 0 0
749.9999999999085 0 0
774.9999999999177 0 0
799.9999999999268 0 0
824.9999999999359 0 0
849.9999999999451 0 0
874.9999999999542 0 0
899.9999999999634 0 0
924.9999999999725 0 0
949.9999999999817 0 0
974.9999999999908 0 0
1 2 0 15
48
49
50
51
52
53
54
55
56
57
58
59
60
61
62
1000 24.99999999989821 0
1000 49.9999999998108 0
1000 74.99999999968247 0
1000 99.99999999955274 0
1000 124.999999999423 0
1000 149.9999999993766 0
1000 174.9999999993356 0
1000 199.9999999992947 0
1000 224.9999999992538 0
1000 249.9999999992129 0
1000 274.9999999993163 0
1000 299.9999999994531 0
1000 324.9999999995898 0
1000 349.9999999997265 0
1000 374.9999999998633 0
1 3 0 39
63
64
65
66
67
68
69
70
71
72
73
74
75
76
77
78
79
80
81
82
83
84
85
86
87
88
89
90
91
92
93
94
95
96
97
98
99
100
101
975.0000000000017 400 0
950.0000000000033 400 0
925.000000000005 400 0
900.0000000000067 400 0
875.0000000000083 400 0
850.00000000001 400 0
825.0000000000117 400 0
800.0000000000133 400 0
775.000000000015 400 0
750.0000000000166 400 0
725.0000000000184 400 0
700.00000000002 400 0
675.0000000000217 400 0
650.0000000000234 400 0
625.000000000025 400 0
600.0000000000266 400 0
575.0000000000283 400 0
550.00000000003 400 0
525.0000000000316 400 0
500.0000000000222 400 0
474.9999999999683 400 0
449.9999999999701 400 0
424.9999999999717 400 0
399.9999999999735 400 0
374.999999999975 400 0
349.9999999999768 400 0
324.9999999999784 400 0
299.9999999999801 400 0
274.9999999999818 400 0
249.9999999999834 400 0
224.9999999999851 400 0
199.9999999999867 400 0
174.9999999999883 400 0
149.99999999999 400 0
124.9999999999917 400 0
99.99999999999341 400 0
74.99999999999511 400 0
49.99999999999659 400 0
24.99999999999841 400 0
1 4 0 15
102
103
104
105
106
107
108
109
110
111
112
113
114
115
116
0 375.0000000001776 0
0 350.0000000003553 0
0 325.0000000005329 0
0 300.0000000007105 0
0 275.0000000008882 0
0 250.0000000010325 0
0 225.0000000010325 0
0 200.0000000010325 0
0 175.0000000010325 0
0 150.0000000010325 0
0 125.0000000008882 0
0 100.0000000007105 0
0 75.00000000053291 0
0 50.00000000035527 0
0 25.00000000017764 0
1 5 0 5
117
118
119
120
121
572.4444369734559 219.4114283760616 0
564.9519052870319 237.4999999944593 0
553.0330084834611 253.033008694521 0
537.4999999545852 264.9519053100532 0
519.4114283091353 272.4444369913888 0
1 6 0 5
122
123
124
125
126
480.5885714871694 272.4444369368088 0
462.4999998371646 264.9519051898199 0
446.9669912456289 253.0330084236111 0
435.0480946450037 237.4999998767414 0
427.5555630065989 219.4114283016253 0
1 7 0 5
127
128
129
130
131
427.5555630471604 180.5885715469974 0
435.0480948035531 162.4999998486431 0
446.9669915719714 146.9669912500465 0
462.5000001255873 135.0480946436592 0
480.5885716524059 127.5555630189162 0
1 8 0 5
132
133
134
135
136
519.4114285363747 127.5555630694998 0
537.5000001580861 135.0480948074382 0
553.033008727352 146.9669915493699 0
564.951905384718 162.500000174738 0
572.4444370015366 180.5885717287368 0
2 1 0 615
137
138
139
140
141
142
143
144
145
146
147
148
149
150
151
152
153
154
155
156
157
158
159
160
161
162
163
164
165
166
167
168
169
170
171
172
173
174
175
176
177
178
179
180
181
182
183
184
185
186
187
188
189
190
191
192
193
194
195
196
197
198
199
200
201
202
203
204
205
206
207
208
209
210
211
212
213
214
215
216
217
218
219
220
221
222
223
224
225
226
227
228
229
230
231
232
233
234
235
236
237
238
239
240
241
242
243
244
245
246
247
248
249
250
251
252
253
254
255
256
257
258
259
260
261
262
263
264
265
266
267
268
269
270
271
272
273
274
275
276
277
278
279
280
281
282
283
284
285
286
287
288
289
290
291
292
293
294
295
296
297
298
299
300
301
302
303
304
305
306
307
308
309
310
311
312
313
314
315
316
317
318
319
320
321
322
323
324
325
326
327
328
329
330
331
332
333
334
335
336
337
338
339
340
341
342
343
344
345
346
347
348
349
350
351
352
353
354
355
356
357
358
359
360
361
362
363
364
365
366
367
368
369
370
371
372
373
374
375
376
377
378
379
380
381
382
383
384
385
386
387
388
389
390
391
392
393
394
395
396
397
398
399
400
401
402
403
404
405
406
407
408
409
410
411
412
413
414
415
416
417
418
419
420
421
422
423
424
425
426
427
428
429
430
431
432
433
434
435
436
437
438
439
440
441
442
443
444
445
446
447
448
449
450
451
452
453
454
455
456
457
458
459
460
461
462
463
464
465
466
467
468
469
470
471
472
473
474
475
476
477
478
479
480
481
482
483
484
485
486
487
488
489
490
491
492
493
494
495
496
497
498
499
500
501
502
503
504
505
506
507
508
509
510
511
512
513
514
515
516
517
518
519
520
521
522
523
524
525
526
527
528
529
530
531
532
533
534
535
536
537
538
539
540
541
542
543
544
545
546
547
548
549
550
551
552
553
554
555
556
557
558
559
560
561
562
563
564
565
566
567
568
569
570
571
572
573
574
575
576
577
578
579
580
581
582
583
584
585
586
587
588
589
590
591
592
593
594
595
596
597
598
599
600
601
602
603
604
605
606
607
608
609
610
611
612
613
614
615
616
617
618
619
620
621
622
623
624
625
626
627
628
629
630
631
632
633
634
635
636
637
638
639
640
641
642
643
644
645
646
647
648
649
650
651
652
653
654
655
656
657
658
659
660
661
662
663
664
665
666
667
668
669
670
671
672
673
674
675
676
677
678
679
680
681
682
683
684
685
686
687
688
689
690
691
692
693
694
695
696
697
698
699
700
701
702
703
704
705
706
707
708
709
710
711
712
713
714
715
716
717
718
719
720
721
722
723
724
725
726
727
728
729
730
731
732
733
734
735
736
737
738
739
740
741
742
743
744
745
746
747
748
749
750
751
224.9918206414977 24.87432176398021 0
774.9813247717159 375.1089459727039 0
200.0180947471335 375.1249595823702 0
799.9985727311409 24.8920742329216 0
593.4548686540861 196.7717341051716 0
402.5534337409194 188.65067926286 0
975.0039637367792 199.9967121758124 0
24.99823588849106 200.0008481098051 0
675.0849323671268 375.5525087244199 0
299.7532723879832 375.6219352011285 0
425.3936528722082 251.7590345854959 0
725.1462958682066 24.53344997561226 0
324.8149371374763 24.39734069316298 0
578.4470728999472 250.7941702506487 0
427.4576400059062 132.4513509007213 0
149.9984786827214 24.99069231837483 0
849.9942316982734 375.0165898459138 0
588.6274711151077 154.0608553974358 0
599.059240897355 24.02880354908828 0
397.8759624562953 375.8462171500087 0
575.3861251542394 376.4035838097295 0
975.0032474198696 274.9989556205177 0
24.99064671327363 124.9914375134049 0
544.0018451291216 110.1235005349651 0
479.5590834453664 110.639827328365 0
520.5119355467108 291.1885189258043 0
400.3640393360846 23.97726221090826 0
448.7613229833106 374.1952640695342 0
100.0030376864505 375.0045912981761 0
899.9981713098817 24.99837827359965 0
99.96810766773427 24.96758255290197 0
899.9995248973004 375.0037485775219 0
549.5084056011104 23.82763270182215 0
474.8625557720937 23.78770041430817 0
500.83326121117 376.0097889699622 0
462.0807634620859 290.2857215887774 0
24.99996969954936 350.0002657639876 0
24.99908649501911 300.0006532889778 0
975.0002138274809 74.99981014592497 0
975.0008846207468 325.0004376806506 0
24.90954285864799 74.90960996492589 0
674.9682927959138 24.50133004184189 0
975.0010063719616 124.9995164771033 0
975.0000041979603 24.99996707129176 0
524.668371390056 23.76015050082803 0
375.2230060834357 24.18243135140697 0
450.1443898225046 23.68885935589329 0
349.271711871437 375.8999205556705 0
600.2575788144611 375.8338839509423 0
525.8965871194694 376.7309540311174 0
649.6011769916853 24.47892982600651 0
625.2199016585377 375.6085542963771 0
299.8245685279434 24.48715244747764 0
700.0092566932861 375.4569051498404 0
249.957793194422 375.3373914035707 0
775.0374919675442 24.78910818376596 0
24.85605430612407 49.85606610813978 0
975.0003872600579 350.0003216940961 0
49.86554583302661 24.86553056450685 0
950.0002955445586 375.0004757994382 0
24.99787195334871 250.0006578759102 0
50.00034377110915 375.000465890526 0
125.005869158652 375.0117847077781 0
874.9943599306008 24.9938445906768 0
949.9999439859574 24.99984779752709 0
150.010145854385 375.0283608245228 0
274.8921511604838 24.61801027854667 0
849.9889810371903 24.97962527196116 0
24.99825866391341 175.0006120716139 0
799.9916575152221 375.0580374819197 0
724.9684998742347 375.3367686549668 0
199.996080348413 24.9402766719842 0
975.0047047601606 224.9962194460216 0
975.0019890587799 149.9988315253779 0
975.0001494173778 375.0001684647876 0
25.00005767387804 375.0001434927681 0
24.90331744148505 24.90331681007579 0
500.2896842596371 108.4245170426411 0
487.4124827304502 297.4080172885027 0
450.275008737555 278.4398307790228 0
557.929155966423 279.4219641476368 0
416.0335807879894 234.7800316949826 0
589.8263873272723 237.5542600047334 0
536.7699331517073 291.3895211975591 0
800.0225479597237 49.72667619238538 0
199.9692353957814 49.8540355661358 0
775.0171305871697 350.2895880431254 0
950.0150204897326 199.9881786133946 0
600.0267251509747 248.2615963481278 0
299.3844636854311 48.72242715894199 0
402.0940246292841 251.919130861989 0
49.99254740833165 200.0020467047188 0
125.0052290094372 350.0341053770313 0
648.2661035847098 49.3990091949922 0
600.1217434337607 350.7823007119633 0
700.2621895800556 351.1202074054664 0
401.9135582701902 47.31852138596099 0
553.2215651058128 296.7346390373845 0
451.0440060661873 299.7016407319622 0
548.7227210916227 46.84386071508687 0
874.9892948688389 49.97852688447026 0
950.004086916443 124.99654440927 0
500.1758910675177 89.13713390757958 0
527.6444993089772 354.5132780612647 0
420.3699153899708 151.0736280469542 0
50.0002229778156 350.0014189014801 0
475.2137286468099 46.69456618058005 0
460.793354680816 116.4789858476473 0
571.978429418166 135.6661462876973 0
591.9593380768207 178.0034363258123 0
521.6269055300017 109.2175640979653 0
475.1635604100575 374.8938051843747 0
499.7907429748009 23.68268730506073 0
425.4453858161723 23.69029140029271 0
422.5780731697953 374.8567616632585 0
550.6977997453175 376.9503339859669 0
574.150923592453 23.80389575106268 0
373.5652601991934 376.0509382094826 0
624.1087012977844 24.27388868314149 0
349.9602409361937 24.30313517518997 0
650.1851504405953 375.6098167005972 0
324.525213105571 375.7822846122932 0
700.1201895792329 24.47152327283182 0
274.8573879169324 375.4885052568538 0
750.1013800226847 24.65236007990003 0
249.9478839558489 24.75103167129601 0
749.9755238591549 375.2234210033031 0
224.9956118018263 375.2263183934718 0
49.90857242524314 74.90873728397479 0
49.87501204572008 49.87502471337943 0
950.0029946670119 325.0030753623977 0
950.0012052568179 350.0017463260806 0
24.99669210280446 149.9983881925079 0
24.96884937225881 99.96920498313281 0
975.0046576240973 249.9971753230161 0
75.00129735986431 375.0020502168938 0
975.002244426438 300.0002539366247 0
924.9994541534348 24.99932478632223 0
124.9899292484998 24.98740931344577 0
175.0128420949491 375.0665735737333 0
24.99818361555556 275.0007421081195 0
824.9906175413435 24.94181580654544 0
975.0036351469834 174.997354355922 0
824.9926098690632 375.0337290956386 0
174.9976726810995 24.97209615931139 0
874.9968809476491 375.0095180382448 0
975.0006987982455 99.9995090580566 0
24.99751233695212 225.0007949518898 0
925.0003101773392 375.0017260099996 0
74.93422063898994 24.93407293105623 0
24.99961626187807 325.0006186179069 0
975.0000625621917 49.99987387991028 0
403.8445407495288 222.1338899388089 0
596.3469762276197 213.4166697606571 0
437.1004700924361 266.4230496927497 0
447.8720075780035 122.4550911136426 0
567.315038982926 264.9802020688379 0
503.9087288988391 293.2526446565245 0
535.763873202466 305.9181030946158 0
470.9841312007429 305.38585871338 0
224.936426100302 350.5135036469192 0
613.3104226568253 198.3259620519943 0
604.4366734182452 135.6160275098123 0
372.1641071220761 352.5514501418443 0
413.3095082773307 126.0955680290677 0
49.99644462883975 300.0028803625014 0
849.9885409310119 350.0546100991882 0
551.1663678087667 354.9075368899108 0
417.3388851434065 350.2780223094135 0
426.8943851085742 46.53129084955587 0
433.7666483658904 107.3099655389951 0
323.7677508948653 351.7466525248194 0
476.9978275430496 350.2720058553257 0
700.378686855837 48.86308561804425 0
725.1423274794605 350.8285640545883 0
546.3658065004859 89.74071915916035 0
824.9889801229904 49.859085977697 0
800.0047456395802 350.1665243815281 0
950.0075907609366 149.9938697867236 0
950.0155407084571 249.994542343509 0
950.007051278769 300.0036682785852 0
75.00127099195433 350.0051871082335 0
49.99266986855786 149.9976439864211 0
49.95925470583045 99.96013495739315 0
149.994134286335 49.97631177929845 0
499.7528146618287 46.53849800586767 0
477.7901537162008 90.79037379872011 0
387.5188553535277 213.2806109499443 0
454.1880318233258 312.6649837133732 0
547.1246459987179 313.8751283204222 0
412.030798624332 169.0965978168084 0
574.7540287591883 352.6964073509545 0
524.2997458318547 46.5045434678938 0
451.141362334905 46.47574336230755 0
502.8858200032138 352.7142111089931 0
572.8242880043003 47.0161899126645 0
622.1107964534044 48.43604473736652 0
674.5764016026818 49.31777083039116 0
750.0718725361467 350.54077943263 0
349.7997618550337 48.46906613312417 0
324.3195972463701 48.40384015302177 0
249.7861703747298 49.4169836687155 0
274.5687112674194 49.05722403352041 0
650.6707484680027 351.4300578018679 0
675.4983499089254 351.3906037584369 0
376.0396895713225 48.21646340589719 0
625.6903409359941 350.9130343952 0
274.6279666006963 351.1132932992523 0
224.8959051357895 49.66581122795679 0
750.278802643595 49.20473980901985 0
174.9997877672799 350.1567684459321 0
775.1320025963715 49.48438707012576 0
849.9842950383648 49.93544031507587 0
150.0022310990539 350.0813290020974 0
899.9993505183725 350.0130180930045 0
950.0177460102759 224.9892228185058 0
950.0123296902046 174.9899412815017 0
925.001429983429 350.0058391765691 0
899.9960301789869 49.99151335788528 0
950.0020684687227 99.99763287666944 0
100.0025353763044 350.0156139797445 0
74.92054088247265 49.92030503103245 0
924.9990408842399 49.99725210687214 0
950.0006152157889 74.99850929114204 0
949.9999556803068 49.99906021726979 0
49.99288138852749 175.0009461889023 0
49.99112944775918 225.0019022778029 0
174.9877439405957 49.93493697768712 0
49.99330044701119 275.0027037445474 0
124.9838397586878 49.97782823672767 0
49.99875202757966 325.0027939058269 0
604.2089868787866 228.5119041838997 0
412.9444834962604 267.0771635306911 0
569.6247452458239 286.6817256245179 0
492.3920673960271 311.2049879805545 0
523.0873152087128 89.16329425644508 0
390.2940755895012 239.6130393196152 0
439.6833551651176 293.5655419639687 0
596.912813734106 265.8354277144537 0
523.5649316861548 309.4324273515767 0
199.9059575879188 74.71464896030186 0
800.0903833225298 74.47750715952064 0
750.3195351178184 325.9911022304029 0
925.0453863177413 224.9836581042238 0
323.5347291749824 71.75221084873544 0
374.4873351257955 231.906593405541 0
613.015019629221 244.2109885087416 0
74.97546739893684 225.0039774839819 0
149.9764415434011 325.1452976412762 0
651.6609306193683 327.7102256895333 0
675.2224965351675 74.20405323622028 0
74.9906114646512 300.0104109489697 0
849.9906757870269 74.87263960902924 0
925.0209693723696 149.9768940862662 0
149.9836835263041 74.95326228143861 0
377.3152586034061 74.40761800146934 0
274.136943753561 73.33007018958986 0
74.98227199402133 174.9993326494999 0
407.2138900552458 107.4152739907645 0
589.9825670615345 116.8777760745629 0
567.9732307134399 326.0919680674411 0
617.7287832182019 177.5999205711619 0
430.0251404588371 67.55441400028907 0
378.9611908308113 190.3365457980679 0
385.003876336319 266.7224991835064 0
430.6962538153354 315.1619213315594 0
571.0931226148134 69.27762899509638 0
597.0749352869215 47.35519778204115 0
348.2375556092787 351.9073467041912 0
618.1496939582231 71.38605904641182 0
394.4894544370514 352.9965471520814 0
725.6059783814666 326.546566710767 0
299.252430599052 351.4771050807317 0
455.1468559204523 95.14884390638879 0
725.4257038542278 48.92714915665319 0
446.9697602274485 343.4566575406722 0
627.3576578532358 326.8473397682815 0
249.5065472274025 73.92131561573049 0
199.9735525425956 350.3115566119858 0
676.315842218997 327.5377799633034 0
249.8155473375845 350.8085229146228 0
750.5541179927339 73.59457308497198 0
800.0670927335123 325.3415390359191 0
824.9944634657298 350.1051864252092 0
925.0327113088745 174.9707103982115 0
99.99530216212214 325.0263455008484 0
74.99678040646229 325.0102840118957 0
925.0037573125264 99.99009111367387 0
874.9945680321465 350.0314543416873 0
900.0053054089201 325.02982502225 0
925.0059939411152 325.0126447255233 0
899.9968882704222 74.98102017915133 0
950.012453112828 275.0008929070877 0
925.0001008411717 74.99274499587446 0
49.98349735460826 124.9861238568817 0
74.96589881371122 99.96714548987259 0
74.94046473037048 74.9405122965341 0
49.99067329304494 250.0022473043963 0
99.96061846967348 49.95887841760558 0
404.1167793628961 139.1604037278738 0
570.4425022300891 300.8296317778282 0
523.7904523941799 68.30790564186319 0
480.5535345104379 324.72708824176 0
505.3701769097724 330.7520798206336 0
452.9578081694996 68.68369543181912 0
531.7037744618724 330.0660064933256 0
564.0416076652588 125.2245725978221 0
381.0395972235258 250.9989316558548 0
425.5257145274139 281.73010499039 0
579.8621360385791 279.2242077466158 0
499.9025653603214 68.30492973504968 0
505.9816823166313 311.2833761264645 0
610.3742725687966 210.4467479493794 0
620.243440460271 262.6862472737682 0
637.3111531869235 188.2330370996105 0
273.7630863793631 97.48120640471564 0
249.6823476039443 326.4139502237791 0
367.6875560505739 248.876139844706 0
726.2758769094247 302.5325987420707 0
346.9100519815554 327.9506105388055 0
640.3317980176095 255.9908621070052 0
900.0771090939636 174.9399096624978 0
900.0051986610788 99.96412280986269 0
629.063175381269 304.75049922901 0
411.596063758173 297.3576198269607 0
725.8951261976208 73.11650134792599 0
616.312348078243 125.3573913864778 0
99.97998383996777 300.0348711357517 0
74.97589991535179 250.0068775444637 0
74.98080443112346 124.9851504362025 0
99.97487402429425 99.9742517919174 0
394.556174554286 157.6320602957565 0
594.5062363249008 69.84333195932852 0
606.4837476434968 289.3086847169346 0
406.4856057959915 68.36325394116169 0
348.5603297768924 71.35419170352372 0
644.8766136408159 78.18988542039115 0
298.7823073289852 72.52762646599038 0
700.997251964696 73.13082425871282 0
298.7907940949174 327.6280278188141 0
407.4856886331369 328.8778447395082 0
600.0354522821452 320.8138335367509 0
199.8943200922097 325.5364036037749 0
701.0129344082244 327.1337531005973 0
775.1806700600757 325.6173206327464 0
825.0220051630019 325.2138302536164 0
825.0213365525827 74.71386154840535 0
174.9607718900067 74.87250854962201 0
775.2786338335056 74.07323000442962 0
174.9415274867969 325.3014574016076 0
124.9875071444011 325.0706424274635 0
224.7536739049522 74.37588070416574 0
925.0442076384362 199.9728849305034 0
925.0414231545601 250.0010066307548 0
74.98119657987264 275.0109609177546 0
875.0027125950672 325.0667885365415 0
74.97681119341932 200.0016054747518 0
925.0296063744652 275.0142045098706 0
900.0257538493207 300.048669001552 0
925.0167714879116 300.0186706596625 0
925.0118526094741 124.9809867905261 0
74.98385805313904 149.9938244520693 0
124.980281604123 74.96987555938482 0
874.9937928320637 74.94039465262146 0
99.96465752996409 74.96204289325298 0
547.5429462637501 68.63242848677224 0
652.780340379053 304.1827226384943 0
360.0032772483257 206.9041424072909 0
398.8607170511707 281.8478235396439 0
566.1592635309721 110.8641675505715 0
619.8415081796139 220.6914178709317 0
386.0145804416786 176.7588539114037 0
476.3578559382171 68.90486907854921 0
416.8327177876575 86.77981987526921 0
550.3667753437501 338.3491735189176 0
364.5744146880317 265.8988968212289 0
460.1167037526453 326.0418508957592 0
432.9767194126228 82.61359541220847 0
382.4139985330216 125.4165089932721 0
750.8755807689406 97.83881360289718 0
825.1086105706279 300.3714451537014 0
677.7199260893253 98.06357517006346 0
199.7908441669391 300.8171156531524 0
199.8211740853729 99.53089479736458 0
99.94908268343934 250.0308270562539 0
99.97084315114074 149.9835444082152 0
345.0333503405146 264.545195990746 0
900.0863351162254 250.0367132504504 0
825.0892694198958 99.54317741575559 0
636.8649649267024 162.634906303474 0
702.1237427618543 303.5118198075671 0
637.1273480204775 206.8965254083438 0
875.0385196589586 300.1108646768867 0
875.0123410658055 99.89816190982079 0
900.0985050203385 199.9651433126228 0
900.0256197490191 124.9417705500016 0
347.1168160219729 91.91621393586261 0
375.5931391829463 149.260414175692 0
298.3976946077561 96.22410908848413 0
613.7841124065247 111.155933678969 0
392.5582612937396 336.7500340490448 0
629.8995893857146 93.22716406831631 0
677.7034222800678 303.9530539281938 0
626.6768439562511 283.4747196283784 0
702.1303186958185 96.86535518693545 0
364.0139928490001 186.5719932893616 0
224.8115631510875 325.9422485771591 0
322.8535216106881 328.0957054328871 0
393.6016748433479 93.34073214891835 0
609.2983285164089 159.6969284217272 0
850.0120327006422 325.1330169463119 0
274.3759032644285 327.0398907660367 0
249.2462215822596 98.33513308163867 0
750.7147328289927 301.6702201171141 0
775.3916598507469 301.0447448011312 0
900.0586987644499 275.0565984522236 0
775.4671126536853 98.57936697520304 0
124.9618360403912 300.0984721563983 0
99.96130783937701 275.0411573706569 0
99.94892263769499 200.0021383706193 0
900.0534554231726 149.932104874259 0
174.8719496832853 300.458564425349 0
174.9190284719564 99.78877659236043 0
124.9755534764951 99.96308559336715 0
99.97492354131681 124.9776434119669 0
630.7026605732099 237.1197506092284 0
588.4374873754409 297.0775764035548 0
569.0366737957278 90.74215727049454 0
383.873802907826 294.4147227200352 0
354.1725447702669 226.8061025387697 0
612.5887727035594 304.2320625743602 0
394.8995941255315 311.0035420760541 0
374.7148882950296 326.3655691624247 0
614.0686458055224 92.19426965527262 0
377.2850383599116 282.2965709372955 0
751.1588800336501 122.0570098392397 0
726.6185021195871 278.8126553113182 0
657.9845012489928 179.1465678807995 0
298.6988338344186 120.4193225830599 0
274.3796930178824 303.2718726176909 0
199.6865241449184 276.0810768695155 0
199.7135225006122 124.3474909139051 0
875.1991192266195 200.0024380564024 0
650.1390961279482 229.1593282350079 0
680.1576283622152 119.7587039291102 0
224.7239131149336 301.4302275076735 0
345.0658616362965 305.0409182134796 0
653.4161466981313 277.3713501740507 0
369.1780832391723 167.7904998374189 0
654.1975971861169 102.4633724483584 0
679.9172512760148 281.2250788515756 0
620.3516120442957 148.6493686902392 0
323.2362526124406 94.26637310948247 0
363.5900263416087 283.3942082864231 0
322.196013947767 305.1557895733304 0
750.7447367750628 277.3495768923694 0
273.6123932426282 121.7272782623825 0
850.0706252566997 300.2221721151324 0
800.231562968048 99.14017403038288 0
224.5858517284784 99.00841599998274 0
875.1025943622191 275.1461071836453 0
337.898304067636 201.365628339028 0
800.2221607793347 300.6465839241877 0
149.9278831327142 300.2343090879496 0
124.9310676825106 275.1205924352976 0
850.0412276226905 99.76131291663184 0
900.1044539186266 225.0091393732541 0
875.0568664568351 124.853051011726 0
875.1135708819246 149.8522674147924 0
99.94339917762501 225.0195658973708 0
99.95833929419052 174.9896205543284 0
124.9625207356301 124.9522164860922 0
149.9587247565994 99.90778471103178 0
726.4645591797496 97.11039168504819 0
372.010926075772 103.5925093654804 0
366.354951665919 302.0769148661882 0
592.0025887974738 91.79850794505214 0
348.4272726213428 245.711560628145 0
364.7932873464841 90.59904316141811 0
659.217911344108 248.0783884947498 0
633.3305099230337 107.7294164827955 0
725.207569578041 255.0282510727515 0
825.263038260779 275.5610178687674 0
124.8938903345077 225.0691528214736 0
298.5969498053283 145.4703379834064 0
343.5519812584969 179.7656893403485 0
678.2503393004447 241.9499190716607 0
224.6713123019799 276.940076549412 0
800.396727545417 123.8889654559627 0
875.1623424526676 250.144239386889 0
224.4001877883997 123.6686485034785 0
149.8802990500298 275.2891793355345 0
174.8556522973669 124.6947095511032 0
726.8206570850998 120.8655329067159 0
324.5609336504179 117.2832339197611 0
652.5148529588912 147.4900648802734 0
360.0667004787659 145.9792190353865 0
323.6920545753507 262.4800638104211 0
635.6422460008002 130.2591061840863 0
249.6544442309441 302.2940961346699 0
298.6221396669099 304.3925890412258 0
775.7127671499644 123.1072446011586 0
850.1733091769183 275.3145984886895 0
248.9752747556273 122.7636565760037 0
875.2011807847837 225.1006865962357 0
775.4454762468745 276.427735891271 0
174.7953183690171 275.5934542321541 0
850.1187326573187 124.6855204554058 0
124.9050466255441 250.117478515128 0
875.1704108575719 174.9138908483916 0
124.9194086634589 174.9668857662797 0
702.8231532276847 119.8752838672583 0
149.9247215387299 124.86601175281 0
124.9393929681096 149.9448202325114 0
703.0201105732936 280.5148073694004 0
344.0433753309646 284.0100298078926 0
663.8429243382011 202.2520677065368 0
332.1602887720406 222.0335642790863 0
665.5075244716147 261.5030829417045 0
659.1824179607878 122.627033450595 0
349.4462905130698 111.7917177198479 0
248.5388432845854 147.3265710168212 0
775.9566901934758 147.8555957747033 0
224.764010579057 251.9283243437422 0
850.3580414725087 200.0995558156652 0
701.8543674205174 142.5448371502082 0
825.4079075388872 250.6405832078548 0
850.2182413046486 149.7088883439465 0
199.556979669956 149.2517671256541 0
149.8447706011474 174.9090863234465 0
680.8679717789373 182.2136591005121 0
329.6141207587557 145.277731791327 0
299.1018191654312 281.7721080324123 0
249.8480879990945 278.2344032732977 0
273.0948097492553 146.1779610846921 0
149.8353925443706 250.2837690322335 0
749.4511373818294 252.1621282714952 0
800.3537933527213 275.9103570035849 0
850.274630865802 250.3482137370079 0
174.7697338117328 149.6555478311615 0
124.8966671782558 200.0142969311963 0
825.2337013804179 124.3854628979125 0
149.8762907961359 149.8507710892192 0
199.6044397708332 251.0880593453523 0
726.6624064723421 144.7716120901042 0
315.3627013580175 196.0692356001352 0
671.1126639283106 222.4080005499734 0
663.3232164806241 136.4899481931513 0
702.2958308294999 258.4313610120004 0
322.270569233171 283.3537512045298 0
351.5286867480738 159.6375330778512 0
355.306708427433 131.8898043802689 0
327.1092358981676 242.1995957764537 0
680.871372501085 260.845751446725 0
720.3254208209164 232.2401739087763 0
224.7290591401016 225.7517333314572 0
271.7294278501237 170.1962492940001 0
800.4296241994617 250.9172348630995 0
825.3765780166062 149.42537885619 0
149.8098289554784 200.0307341682312 0
697.5747593843996 168.8170829493199 0
320.9332473275824 173.37523818614 0
274.8309402583038 279.960858190366 0
250.7963686010203 253.5182307355954 0
825.4861430560953 225.4627660389117 0
774.9394198164017 251.0356947074661 0
751.4455178672065 146.4206237175147 0
800.6099156840349 148.8529782918767 0
850.3111535865362 174.8684783267735 0
174.7240570862618 250.5754063028306 0
199.4240449962448 174.4192521476531 0
149.8061686762872 225.1829389923649 0
174.6825648772733 174.7616462336459 0
850.3360913476876 225.2614433271842 0
224.0995484752108 148.470016877441 0
685.9657170652896 197.2684787690401 0
309.7083558257746 217.3128867217823 0
671.4935760976535 157.9087884391842 0
300.8668015753506 259.7836143818668 0
698.4612203258068 237.3268200579397 0
678.9286556550858 139.371308578073 0
254.8241409143822 223.8347952502099 0
751.7737649869381 170.7837444394922 0
825.5176003917071 200.0851267092795 0
174.6616946050027 225.3628411667148 0
223.8639796978935 173.5449355076047 0
707.1511154678077 192.5074664972443 0
292.4866327629809 192.5746343478517 0
276.702154024959 256.3844265200329 0
800.6908469466607 174.1309255677422 0
199.4135003366939 199.9002700774298 0
774.7297309397703 224.7024937712854 0
744.7977627094743 222.1697063418525 0
199.5465736917206 225.5570257276339 0
247.8525641821205 171.8846058782377 0
174.6501746522302 200.0185378132345 0
825.4764373996223 174.6528426038606 0
800.4009884725274 225.318779987496 0
713.3068047666121 212.0384184304665 0
727.038488074168 168.8501267642969 0
296.2558815313591 170.1874213452641 0
304.5897810610928 238.3094179996383 0
692.4341242540945 217.1520429188159 0
270.4799991870802 192.8332896846275 0
750.9842191188692 195.016046644996 0
248.5623939461119 196.3612912469327 0
775.3046537079723 198.2684604365012 0
281.3445538495768 233.5826047727234 0
775.9633579286792 172.7557104841658 0
224.4448656683212 199.0207472786403 0
800.5066722210233 199.53669541869 0
287.6750039866316 212.9859424854686 0
728.2857148037403 191.6106196042727 0
271.7076264989973 209.145881669037 0
728.1531227559137 207.8542888682735 0
$EndNodes
$Elements
9 819 1 819
1 1 1 40
1 1 9 
2 9 10 
3 10 11 
4 11 12 
5 12 13 
6 13 14 
7 14 15 
8 15 16 
9 16 17 
10 17 18 
11 18 19 
12 19 20 
13 20 21 
14 21 22 
15 22 23 
16 23 24 
17 24 25 
18 25 26 
19 26 27 
20 27 28 
21 28 29 
22 29 30 
23 30 31 
24 31 32 
25 32 33 
26 33 34 
27 34 35 
28 35 36 
29 36 37 
30 37 38 
31 38 39 
32 39 40 
33 40 41 
34 41 42 
35 42 43 
36 43 44 
37 44 45 
38 45 46 
39 46 47 
40 47 2 
1 2 1 16
41 2 48 
42 48 49 
43 49 50 
44 50 51 
45 51 52 
46 52 53 
47 53 54 
48 54 55 
49 55 56 
50 56 57 
51 57 58 
52 58 59 
53 59 60 
54 60 61 
55 61 62 
56 62 3 
1 3 1 40
57 3 63 
58 63 64 
59 64 65 
60 65 66 
61 66 67 
62 67 68 
63 68 69 
64 69 70 
65 70 71 
66 71 72 
67 72 73 
68 73 74 
69 74 75 
70 75 76 
71 76 77 
72 77 78 
73 78 79 
74 79 80 
75 80 81 
76 81 82 
77 82 83 
78 83 84 
79 84 85 
80 85 86 
81 86 87 
82 87 88 
83 88 89 
84 89 90 
85 90 91 
86 91 92 
87 92 93 
88 93 94 
89 94 95 
90 95 96 
91 96 97 
92 97 98 
93 98 99 
94 99 100 
95 100 101 
96 101 4 
1 4 1 16
97 4 102 
98 102 103 
99 103 104 
100 104 105 
101 105 106 
102 106 107 
103 107 108 
104 108 109 
105 109 110 
106 110 111 
107 111 112 
108 112 113 
109 113 114 
110 114 115 
111 115 116 
112 116 1 
1 5 1 6
113 5 117 
114 117 118 
115 118 119 
116 119 120 
117 120 121 
118 121 6 
1 6 1 6
119 6 122 
120 122 123 
121 123 124 
122 124 125 
123 125 126 
124 126 7 
1 7 1 6
125 7 127 
126 127 128 
127 128 129 
128 129 130 
129 130 131 
130 131 8 
1 8 1 6
131 8 132 
132 132 133 
133 133 134 
134 134 135 
135 135 136 
136 136 5 
2 1 3 683
137 477 402 412 305 
138 584 503 460 540 
139 235 325 402 374 
140 295 326 442 376 
141 457 616 655 584 
142 312 502 403 564 
143 564 403 469 613 
144 536 570 538 617 
145 437 563 478 397 
146 714 717 662 697 
147 375 450 540 470 
148 540 460 567 470 
149 621 737 693 671 
150 745 726 747 743 
151 584 540 450 457 
152 682 713 748 724 
153 449 298 528 507 
154 713 738 744 748 
155 716 691 618 685 
156 533 657 631 589 
157 445 374 402 461 
158 154 299 588 546 
159 526 588 635 632 
160 133 443 245 134 
161 506 443 133 160 
162 151 301 395 307 
163 448 376 442 440 
164 518 586 473 387 
165 154 546 398 246 
166 239 372 247 214 
167 725 700 718 744 
168 299 463 635 588 
169 662 681 736 697 
170 687 668 688 633 
171 397 511 442 326 
172 623 716 685 690 
173 746 692 730 727 
174 726 733 720 747 
175 697 723 712 667 
176 569 612 565 568 
177 304 328 157 252 
178 401 571 590 512 
179 697 667 574 714 
180 621 668 698 737 
181 523 652 686 634 
182 291 216 374 445 
183 117 290 368 219 
184 565 505 461 568 
185 571 565 612 590 
186 368 507 562 383 
187 322 249 181 329 
188 507 528 580 562 
189 306 250 183 330 
190 236 169 253 332 
191 410 441 509 323 
192 725 699 670 700 
193 749 723 697 736 
194 379 335 311 408 
195 375 470 563 446 
196 719 736 681 703 
197 730 721 732 727 
198 715 669 699 725 
199 472 336 342 392 
200 410 244 292 307 
201 652 590 612 583 
202 508 585 534 468 
203 405 184 258 308 
204 669 715 634 686 
205 622 698 668 687 
206 691 716 739 735 
207 386 340 343 413 
208 412 402 325 513 
209 537 477 305 407 
210 586 518 581 656 
211 239 447 438 372 
212 309 331 171 248 
213 399 471 233 306 
214 333 404 155 255 
215 729 691 735 751 
216 682 724 737 698 
217 387 473 230 334 
218 310 334 178 259 
219 720 733 705 661 
220 256 182 342 336 
221 178 334 230 187 
222 336 337 149 256 
223 509 441 330 243 
224 439 309 412 513 
225 527 480 416 539 
226 412 164 251 305 
227 340 341 145 257 
228 675 710 641 626 
229 583 612 569 456 
230 344 409 146 260 
231 257 188 343 340 
232 404 469 403 332 
233 186 171 331 240 
234 249 322 243 170 
235 169 236 329 181 
236 329 236 502 438 
237 309 439 440 331 
238 250 306 233 163 
239 407 156 254 300 
240 322 329 438 447 
241 170 243 330 183 
242 255 187 230 333 
243 633 688 515 534 
244 346 411 148 261 
245 413 460 503 386 
246 252 186 240 304 
247 339 393 414 338 
248 510 545 392 471 
249 157 328 231 185 
250 343 231 478 413 
251 473 538 570 406 
252 392 615 533 472 
253 573 618 673 592 
254 304 511 397 328 
255 253 155 404 332 
256 669 686 591 637 
257 478 231 328 397 
258 549 640 627 596 
259 582 636 453 543 
260 163 233 342 182 
261 306 330 441 399 
262 248 164 412 309 
263 342 233 471 392 
264 156 407 305 251 
265 721 708 696 732 
266 474 226 337 381 
267 336 472 381 337 
268 587 539 503 584 
269 576 637 476 548 
270 672 706 643 628 
271 632 635 656 684 
272 340 386 416 341 
273 408 455 550 379 
274 185 231 343 188 
275 184 405 300 254 
276 670 699 576 636 
277 393 452 549 414 
278 539 587 651 527 
279 694 674 642 702 
280 411 346 418 462 
281 189 149 337 226 
282 333 406 469 404 
283 311 335 263 207 
284 592 550 455 573 
285 617 538 473 586 
286 541 518 387 475 
287 190 145 341 232 
288 462 475 310 411 
289 186 81 82 171 
290 183 26 27 170 
291 379 550 551 481 
292 473 406 333 230 
293 248 83 84 164 
294 171 82 83 248 
295 476 544 308 409 
296 249 28 29 181 
297 170 27 28 249 
298 250 25 26 183 
299 258 146 409 308 
300 478 567 460 413 
301 181 29 30 169 
302 252 80 81 186 
303 640 658 711 627 
304 339 338 262 203 
305 341 416 480 232 
306 264 139 415 297 
307 163 24 25 250 
308 381 589 535 474 
309 164 84 85 251 
310 182 23 24 163 
311 636 582 624 670 
312 157 79 80 252 
313 169 30 31 253 
314 659 703 572 638 
315 251 85 86 156 
316 185 78 79 157 
317 338 414 488 345 
318 593 452 535 575 
319 253 31 32 155 
320 256 22 23 182 
321 259 148 411 310 
322 550 592 642 551 
323 188 77 78 185 
324 261 192 348 346 
325 156 86 87 254 
326 396 613 570 536 
327 155 32 33 255 
328 681 662 648 630 
329 618 573 651 685 
330 257 76 77 188 
331 254 87 88 184 
332 604 644 602 530 
333 149 21 22 256 
334 548 453 636 576 
335 722 711 658 731 
336 625 638 553 595 
337 386 503 539 416 
338 178 187 34 35 
339 255 33 34 187 
340 481 551 599 419 
341 737 724 740 693 
342 145 75 76 257 
343 184 88 89 258 
344 480 527 455 408 
345 189 20 21 149 
346 596 488 414 549 
347 591 583 456 544 
348 544 476 637 591 
349 226 474 393 339 
350 525 595 378 483 
351 601 628 600 554 
352 551 642 674 599 
353 407 300 569 537 
354 258 89 90 146 
355 626 641 603 524 
356 203 189 226 339 
357 729 741 743 728 
358 178 35 36 259 
359 589 381 472 533 
360 658 640 593 671 
361 710 675 663 701 
362 702 728 734 694 
363 322 447 509 243 
364 747 734 728 743 
365 259 36 37 148 
366 644 604 605 664 
367 207 190 232 311 
368 630 648 541 610 
369 705 646 579 661 
370 453 548 344 417 
371 707 727 732 709 
372 479 543 297 415 
373 389 602 525 483 
374 203 19 20 189 
375 728 702 673 729 
376 335 379 481 223 
377 628 601 645 672 
378 665 707 709 676 
379 300 405 456 569 
380 704 695 733 726 
381 145 190 74 75 
382 543 479 519 582 
383 146 90 91 260 
384 639 594 517 619 
385 577 624 582 519 
386 348 221 378 485 
387 578 520 596 627 
388 338 345 137 262 
389 663 619 674 694 
390 263 335 223 138 
391 662 717 581 648 
392 554 464 555 601 
393 592 673 702 642 
394 520 377 488 596 
395 665 578 627 711 
396 701 720 661 710 
397 530 602 389 500 
398 148 37 38 261 
399 485 378 595 553 
400 553 516 418 485 
401 480 408 311 232 
402 516 610 462 418 
403 707 665 711 722 
404 415 347 486 479 
405 583 591 686 652 
406 419 314 223 481 
407 260 191 417 344 
408 262 18 19 203 
409 630 572 703 681 
410 674 619 517 599 
411 619 663 675 639 
412 190 207 73 74 
413 260 91 92 191 
414 695 704 625 678 
415 666 679 676 709 
416 701 663 694 734 
417 552 524 490 494 
418 726 745 659 704 
419 678 644 664 695 
420 479 486 558 519 
421 483 313 349 389 
422 706 680 577 643 
423 137 345 222 208 
424 594 529 492 547 
425 721 730 680 706 
426 661 579 641 710 
427 547 482 517 594 
428 727 707 722 746 
429 746 742 718 692 
430 482 547 303 420 
431 420 314 419 482 
432 222 345 488 377 
433 604 532 557 605 
434 706 672 708 721 
435 573 455 527 651 
436 680 660 624 577 
437 7 289 324 142 
438 709 732 696 666 
439 483 378 221 313 
440 348 192 140 221 
441 261 38 39 192 
442 410 307 510 514 
443 678 525 602 644 
444 626 597 639 675 
445 346 348 485 418 
446 696 708 620 677 
447 647 650 679 666 
448 629 676 679 649 
449 705 733 695 664 
450 207 263 72 73 
451 555 491 465 521 
452 191 92 93 264 
453 620 645 521 606 
454 417 191 264 297 
455 599 517 482 419 
456 554 600 385 487 
457 594 639 597 529 
458 649 609 559 629 
459 676 629 578 665 
460 350 385 486 347 
461 607 522 650 647 
462 677 647 666 696 
463 417 297 543 453 
464 646 705 664 605 
465 628 643 558 600 
466 647 677 556 607 
467 646 458 531 579 
468 605 557 458 646 
469 492 425 303 547 
470 595 525 678 625 
471 637 576 699 669 
472 492 529 495 426 
473 494 496 495 552 
474 452 593 640 549 
475 603 380 490 524 
476 555 521 645 601 
477 415 139 276 347 
478 645 620 708 672 
479 579 531 603 641 
480 530 459 532 604 
481 734 747 720 701 
482 552 495 529 597 
483 459 530 500 428 
484 524 552 597 626 
485 650 608 649 679 
486 532 497 390 557 
487 606 556 677 620 
488 489 224 352 380 
489 521 465 384 606 
490 426 351 425 492 
491 487 422 464 554 
492 377 520 559 484 
493 489 531 458 421 
494 464 388 491 555 
495 380 352 316 490 
496 496 427 426 495 
497 520 578 629 559 
498 421 353 224 489 
499 388 464 422 423 
500 229 487 385 350 
501 606 384 493 556 
502 390 315 353 421 
503 561 522 498 466 
504 347 276 202 350 
505 223 314 206 138 
506 394 607 556 493 
507 491 365 434 465 
508 314 420 280 206 
509 380 603 531 489 
510 609 649 608 560 
511 609 391 484 559 
512 490 316 429 494 
513 572 630 610 516 
514 496 494 429 317 
515 452 393 474 535 
516 522 561 608 650 
517 459 424 497 532 
518 486 385 600 558 
519 303 153 280 420 
520 427 496 317 267 
521 560 499 391 609 
522 560 608 561 467 
523 421 458 557 390 
524 423 367 302 388 
525 388 302 365 491 
526 384 465 434 363 
527 497 238 315 390 
528 607 394 498 522 
529 428 430 424 459 
530 351 426 427 354 
531 499 560 467 501 
532 377 484 364 222 
533 384 363 228 493 
534 334 310 475 387 
535 466 432 467 561 
536 425 282 153 303 
537 424 356 238 497 
538 422 357 318 423 
539 487 229 357 422 
540 493 228 362 394 
541 391 321 364 484 
542 351 168 282 425 
543 394 362 319 498 
544 354 427 267 268 
545 498 319 431 466 
546 432 433 501 467 
547 432 466 431 320 
548 224 143 209 352 
549 430 428 355 359 
550 224 353 279 143 
551 430 360 356 424 
552 352 209 271 316 
553 391 499 366 321 
554 499 501 435 366 
555 351 354 285 168 
556 353 315 210 279 
557 316 271 158 429 
558 389 349 237 500 
559 238 179 210 315 
560 433 358 435 501 
561 500 237 355 428 
562 359 361 360 430 
563 313 278 204 349 
564 433 432 320 265 
565 429 158 273 317 
566 273 176 267 317 
567 237 349 204 200 
568 237 200 166 355 
569 238 356 283 179 
570 355 166 274 359 
571 361 359 274 201 
572 356 360 175 283 
573 360 361 288 175 
574 201 180 288 361 
575 435 358 286 167 
576 433 265 266 358 
577 213 195 266 193 
578 198 212 173 242 
579 48 49 288 180 
580 266 265 177 193 
581 318 357 165 272 
582 194 211 196 268 
583 320 431 159 270 
584 111 112 159 269 
585 268 267 176 194 
586 57 58 158 271 
587 101 4 102 212 
588 177 270 113 114 
589 2 48 180 47 
590 366 435 167 275 
591 102 103 173 212 
592 62 3 63 211 
593 176 273 59 60 
594 159 112 113 270 
595 358 266 195 286 
596 158 58 59 273 
597 270 177 265 320 
598 63 64 196 211 
599 213 193 115 116 
600 354 268 196 285 
601 269 159 431 319 
602 350 202 199 229 
603 272 99 100 198 
604 212 198 100 101 
605 49 50 175 288 
606 211 194 61 62 
607 52 53 210 179 
608 193 177 114 115 
609 197 284 363 434 
610 165 98 99 272 
611 194 176 60 61 
612 144 284 108 109 
613 228 363 284 144 
614 287 174 302 367 
615 201 46 47 180 
616 423 318 242 367 
617 274 45 46 201 
618 166 44 45 274 
619 286 11 12 167 
620 202 96 97 199 
621 165 199 97 98 
622 54 55 143 279 
623 152 321 366 275 
624 166 200 43 44 
625 204 42 43 200 
626 165 357 229 199 
627 276 95 96 202 
628 278 41 42 204 
629 210 53 54 279 
630 139 94 95 276 
631 272 198 242 318 
632 275 13 14 152 
633 13 275 167 12 
634 282 67 68 153 
635 264 93 94 139 
636 153 68 69 280 
637 107 108 284 197 
638 192 39 40 140 
639 278 140 40 41 
640 280 69 70 206 
641 179 283 51 52 
642 15 281 152 14 
643 263 138 71 72 
644 206 70 71 138 
645 228 144 205 362 
646 197 277 106 107 
647 262 137 17 18 
648 281 15 16 208 
649 16 17 137 208 
650 282 168 66 67 
651 285 65 66 168 
652 321 152 281 364 
653 208 222 364 281 
654 104 105 174 287 
655 277 197 434 365 
656 173 287 367 242 
657 144 109 110 205 
658 283 175 50 51 
659 365 302 174 277 
660 287 173 103 104 
661 285 196 64 65 
662 56 209 143 55 
663 110 111 269 205 
664 286 195 10 11 
665 319 362 205 269 
666 56 57 271 209 
667 105 106 277 174 
668 213 9 10 195 
669 116 1 9 213 
670 278 313 221 140 
671 519 558 643 577 
672 703 659 745 719 
673 332 403 502 236 
674 516 553 638 572 
675 638 625 704 659 
676 660 680 730 692 
677 575 621 671 593 
678 660 700 670 624 
679 692 718 700 660 
680 409 344 548 476 
681 671 693 731 658 
682 618 691 729 673 
683 475 462 610 541 
684 668 631 657 688 
685 518 541 648 581 
686 656 581 717 684 
687 534 585 687 633 
688 504 598 622 542 
689 405 308 544 456 
690 718 750 748 744 
691 683 580 528 653 
692 446 563 437 370 
693 142 508 468 327 
694 219 368 383 225 
695 586 656 635 617 
696 504 566 654 598 
697 461 505 369 445 
698 299 396 536 463 
699 515 688 657 611 
700 398 298 141 246 
701 729 751 749 741 
702 508 142 324 400 
703 698 622 598 682 
704 245 154 135 134 
705 528 298 398 451 
706 246 141 5 136 
707 683 623 616 580 
708 398 526 574 451 
709 588 526 398 546 
710 125 124 291 147 
711 241 151 129 128 
712 396 299 154 245 
713 611 545 395 515 
714 654 689 738 713 
715 542 400 324 504 
716 653 528 451 574 
717 536 617 635 463 
718 214 161 323 239 
719 244 410 323 161 
720 505 401 227 369 
721 545 510 307 395 
722 247 160 133 132 
723 713 682 598 654 
724 611 657 533 615 
725 298 449 290 141 
726 575 535 589 631 
727 446 370 217 293 
728 402 477 568 461 
729 436 301 151 241 
730 214 8 131 161 
731 566 504 324 382 
732 331 440 442 240 
733 293 217 120 119 
734 294 215 122 6 
735 712 653 574 667 
736 247 132 8 214 
737 289 373 382 324 
738 375 225 383 450 
739 448 371 215 294 
740 653 712 739 683 
741 7 126 218 289 
742 507 368 290 449 
743 512 590 652 523 
744 118 150 293 119 
745 566 614 689 654 
746 436 515 395 301 
747 437 234 217 370 
748 457 562 580 616 
749 123 216 291 124 
750 478 563 470 567 
751 307 292 129 151 
752 439 296 215 371 
753 611 615 392 545 
754 141 290 117 5 
755 410 514 399 441 
756 147 291 445 369 
757 121 162 294 6 
758 129 292 244 130 
759 130 244 161 131 
760 447 239 323 509 
761 127 327 241 128 
762 562 457 450 383 
763 623 683 739 716 
764 401 505 565 571 
765 712 723 735 739 
766 715 725 744 738 
767 289 218 227 373 
768 439 371 448 440 
769 717 714 632 684 
770 245 443 506 396 
771 126 125 147 218 
772 436 241 327 468 
773 369 227 218 147 
774 515 436 468 534 
775 117 219 150 118 
776 685 651 587 690 
777 397 326 234 437 
778 616 623 690 655 
779 122 172 216 123 
780 382 454 614 566 
781 219 225 375 150 
782 296 172 122 215 
783 120 220 162 121 
784 234 220 120 217 
785 584 655 690 587 
786 373 444 454 382 
787 172 235 374 216 
788 401 444 373 227 
789 689 614 523 634 
790 150 375 446 293 
791 220 295 376 162 
792 160 312 564 506 
793 738 689 634 715 
794 401 512 454 444 
795 614 454 512 523 
796 172 296 325 235 
797 220 234 326 295 
798 162 376 448 294 
799 396 506 564 613 
800 613 469 406 570 
801 240 442 511 304 
802 439 513 325 296 
803 748 750 740 724 
804 477 537 569 568 
805 718 742 740 750 
806 723 749 751 735 
807 471 399 514 510 
808 7 142 327 127 
809 136 135 154 246 
810 160 247 372 312 
811 438 502 312 372 
812 400 542 585 508 
813 714 574 526 632 
814 622 687 585 542 
815 575 631 668 621 
816 743 741 719 745 
817 736 719 741 749 
818 693 740 742 731 
819 722 731 742 746 
$EndElements
